M48
; DRILL file {KiCad (6.0.2-0)} date 2022 June 23, Thursday 22:24:59
; FORMAT={-:-/ absolute / inch / decimal}
; #@! TF.CreationDate,2022-06-23T22:24:59+02:00
; #@! TF.GenerationSoftware,Kicad,Pcbnew,(6.0.2-0)
; #@! TF.FileFunction,Plated,1,2,PTH
FMAT,2
INCH
; #@! TA.AperFunction,Plated,PTH,ViaDrill
T1C0.0157
; #@! TA.AperFunction,Plated,PTH,ComponentDrill
T2C0.0300
; #@! TA.AperFunction,Plated,PTH,ComponentDrill
T3C0.0315
; #@! TA.AperFunction,Plated,PTH,ComponentDrill
T4C0.0394
; #@! TA.AperFunction,Plated,PTH,ComponentDrill
T5C0.0787
%
G90
G05
T1
X4.08Y-4.96
X4.148Y-4.25
X4.15Y-4.316
X4.15Y-5.315
X4.16Y-4.44
X4.16Y-4.86
X4.1659Y-5.105
X4.1659Y-5.17
X4.184Y-5.28
X4.27Y-5.422
X4.28Y-5.32
X4.29Y-5.04
X4.294Y-4.4015
X4.3295Y-5.575
X4.3345Y-4.625
X4.335Y-4.9145
X4.3955Y-4.6845
X4.465Y-4.905
X4.53Y-4.91
T2
X4.9113Y-4.8564
X4.9113Y-5.0336
X4.99Y-4.8564
X4.99Y-5.0336
X5.0687Y-4.8564
X5.0687Y-5.0336
T3
X3.9945Y-4.5898
X3.9945Y-4.6898
X3.9945Y-4.7898
X3.9945Y-4.8898
X3.9945Y-4.9898
X3.9945Y-5.0898
X3.9945Y-5.1898
X3.9945Y-5.2898
X3.9945Y-5.3898
X3.9945Y-5.4898
X3.9945Y-5.5898
X3.9945Y-5.6898
X4.175Y-5.4638
X4.175Y-5.5425
X4.175Y-5.6213
X4.175Y-5.7
X4.7945Y-4.2898
X4.7945Y-4.4898
T4
X4.205Y-4.035
X4.305Y-4.035
X4.9626Y-4.3246
X4.9626Y-4.4246
X4.9626Y-4.5246
X4.9626Y-4.6246
X4.9626Y-5.2746
X4.9626Y-5.3746
X4.9626Y-5.4746
X4.9626Y-5.5746
X4.9626Y-5.6746
X5.0626Y-4.3246
X5.0626Y-4.4246
X5.0626Y-4.5246
X5.0626Y-4.6246
X5.0626Y-5.2746
X5.0626Y-5.3746
X5.0626Y-5.4746
X5.0626Y-5.5746
X5.0626Y-5.6746
T5
X4.4Y-4.475
X4.4Y-5.4252
T0
M30
