%TF.GenerationSoftware,KiCad,Pcbnew,(6.0.2-0)*%
%TF.CreationDate,2022-06-23T22:24:51+02:00*%
%TF.ProjectId,CapSenseDuo,43617053-656e-4736-9544-756f2e6b6963,rev?*%
%TF.SameCoordinates,Original*%
%TF.FileFunction,Paste,Top*%
%TF.FilePolarity,Positive*%
%FSLAX46Y46*%
G04 Gerber Fmt 4.6, Leading zero omitted, Abs format (unit mm)*
G04 Created by KiCad (PCBNEW (6.0.2-0)) date 2022-06-23 22:24:51*
%MOMM*%
%LPD*%
G01*
G04 APERTURE LIST*
G04 Aperture macros list*
%AMRoundRect*
0 Rectangle with rounded corners*
0 $1 Rounding radius*
0 $2 $3 $4 $5 $6 $7 $8 $9 X,Y pos of 4 corners*
0 Add a 4 corners polygon primitive as box body*
4,1,4,$2,$3,$4,$5,$6,$7,$8,$9,$2,$3,0*
0 Add four circle primitives for the rounded corners*
1,1,$1+$1,$2,$3*
1,1,$1+$1,$4,$5*
1,1,$1+$1,$6,$7*
1,1,$1+$1,$8,$9*
0 Add four rect primitives between the rounded corners*
20,1,$1+$1,$2,$3,$4,$5,0*
20,1,$1+$1,$4,$5,$6,$7,0*
20,1,$1+$1,$6,$7,$8,$9,0*
20,1,$1+$1,$8,$9,$2,$3,0*%
%AMRotRect*
0 Rectangle, with rotation*
0 The origin of the aperture is its center*
0 $1 length*
0 $2 width*
0 $3 Rotation angle, in degrees counterclockwise*
0 Add horizontal line*
21,1,$1,$2,0,0,$3*%
G04 Aperture macros list end*
%ADD10C,0.100000*%
%ADD11R,0.800000X0.900000*%
%ADD12RoundRect,0.237500X-0.250000X-0.237500X0.250000X-0.237500X0.250000X0.237500X-0.250000X0.237500X0*%
%ADD13R,2.000000X1.250000*%
%ADD14RotRect,0.249999X0.599999X45.000000*%
%ADD15RotRect,0.249999X0.599999X315.000000*%
%ADD16C,0.499999*%
%ADD17RoundRect,0.225000X-0.250000X0.225000X-0.250000X-0.225000X0.250000X-0.225000X0.250000X0.225000X0*%
%ADD18RoundRect,0.225000X-0.225000X-0.250000X0.225000X-0.250000X0.225000X0.250000X-0.225000X0.250000X0*%
%ADD19RoundRect,0.237500X0.250000X0.237500X-0.250000X0.237500X-0.250000X-0.237500X0.250000X-0.237500X0*%
%ADD20RoundRect,0.237500X-0.237500X0.250000X-0.237500X-0.250000X0.237500X-0.250000X0.237500X0.250000X0*%
%ADD21RoundRect,0.237500X0.237500X-0.250000X0.237500X0.250000X-0.237500X0.250000X-0.237500X-0.250000X0*%
G04 APERTURE END LIST*
D10*
%TO.C,IC1*%
X110948242Y-138753345D02*
X111760001Y-139565105D01*
X111760001Y-139565105D02*
X112571761Y-138753345D01*
X112571761Y-138753345D02*
X111760002Y-137941585D01*
X111760002Y-137941585D02*
X110948242Y-138753345D01*
G36*
X112571761Y-138753345D02*
G01*
X111760001Y-139565105D01*
X110948242Y-138753345D01*
X111760002Y-137941585D01*
X112571761Y-138753345D01*
G37*
X112571761Y-138753345D02*
X111760001Y-139565105D01*
X110948242Y-138753345D01*
X111760002Y-137941585D01*
X112571761Y-138753345D01*
X111618583Y-137800166D02*
X110806823Y-136988406D01*
X110806823Y-136988406D02*
X109995063Y-137800166D01*
X109995063Y-137800166D02*
X110806823Y-138611926D01*
X110806823Y-138611926D02*
X111618583Y-137800166D01*
G36*
X111618583Y-137800166D02*
G01*
X110806823Y-138611926D01*
X109995063Y-137800166D01*
X110806823Y-136988406D01*
X111618583Y-137800166D01*
G37*
X111618583Y-137800166D02*
X110806823Y-138611926D01*
X109995063Y-137800166D01*
X110806823Y-136988406D01*
X111618583Y-137800166D01*
X111901421Y-137800166D02*
X112713181Y-138611925D01*
X112713181Y-138611925D02*
X113524940Y-137800166D01*
X113524940Y-137800166D02*
X112713181Y-136988407D01*
X112713181Y-136988407D02*
X111901421Y-137800166D01*
G36*
X113524940Y-137800166D02*
G01*
X112713181Y-138611925D01*
X111901421Y-137800166D01*
X112713181Y-136988407D01*
X113524940Y-137800166D01*
G37*
X113524940Y-137800166D02*
X112713181Y-138611925D01*
X111901421Y-137800166D01*
X112713181Y-136988407D01*
X113524940Y-137800166D01*
X112571761Y-136846987D02*
X111760001Y-136035227D01*
X111760001Y-136035227D02*
X110948242Y-136846987D01*
X110948242Y-136846987D02*
X111760002Y-137658747D01*
X111760002Y-137658747D02*
X112571761Y-136846987D01*
G36*
X112571761Y-136846987D02*
G01*
X111760002Y-137658747D01*
X110948242Y-136846987D01*
X111760001Y-136035227D01*
X112571761Y-136846987D01*
G37*
X112571761Y-136846987D02*
X111760002Y-137658747D01*
X110948242Y-136846987D01*
X111760001Y-136035227D01*
X112571761Y-136846987D01*
%TO.C,IC2*%
X112571761Y-112711821D02*
X111760001Y-111900061D01*
X111760001Y-111900061D02*
X110948242Y-112711821D01*
X110948242Y-112711821D02*
X111760002Y-113523581D01*
X111760002Y-113523581D02*
X112571761Y-112711821D01*
G36*
X112571761Y-112711821D02*
G01*
X111760002Y-113523581D01*
X110948242Y-112711821D01*
X111760001Y-111900061D01*
X112571761Y-112711821D01*
G37*
X112571761Y-112711821D02*
X111760002Y-113523581D01*
X110948242Y-112711821D01*
X111760001Y-111900061D01*
X112571761Y-112711821D01*
X110948242Y-114618179D02*
X111760001Y-115429939D01*
X111760001Y-115429939D02*
X112571761Y-114618179D01*
X112571761Y-114618179D02*
X111760002Y-113806419D01*
X111760002Y-113806419D02*
X110948242Y-114618179D01*
G36*
X112571761Y-114618179D02*
G01*
X111760001Y-115429939D01*
X110948242Y-114618179D01*
X111760002Y-113806419D01*
X112571761Y-114618179D01*
G37*
X112571761Y-114618179D02*
X111760001Y-115429939D01*
X110948242Y-114618179D01*
X111760002Y-113806419D01*
X112571761Y-114618179D01*
X111618583Y-113665000D02*
X110806823Y-112853240D01*
X110806823Y-112853240D02*
X109995063Y-113665000D01*
X109995063Y-113665000D02*
X110806823Y-114476760D01*
X110806823Y-114476760D02*
X111618583Y-113665000D01*
G36*
X111618583Y-113665000D02*
G01*
X110806823Y-114476760D01*
X109995063Y-113665000D01*
X110806823Y-112853240D01*
X111618583Y-113665000D01*
G37*
X111618583Y-113665000D02*
X110806823Y-114476760D01*
X109995063Y-113665000D01*
X110806823Y-112853240D01*
X111618583Y-113665000D01*
X111901421Y-113665000D02*
X112713181Y-114476759D01*
X112713181Y-114476759D02*
X113524940Y-113665000D01*
X113524940Y-113665000D02*
X112713181Y-112853241D01*
X112713181Y-112853241D02*
X111901421Y-113665000D01*
G36*
X113524940Y-113665000D02*
G01*
X112713181Y-114476759D01*
X111901421Y-113665000D01*
X112713181Y-112853241D01*
X113524940Y-113665000D01*
G37*
X113524940Y-113665000D02*
X112713181Y-114476759D01*
X111901421Y-113665000D01*
X112713181Y-112853241D01*
X113524940Y-113665000D01*
%TD*%
D11*
%TO.C,Y1*%
X111882500Y-124678000D03*
X111882500Y-126528000D03*
X113332500Y-126528000D03*
X113332500Y-124678000D03*
%TD*%
D12*
%TO.C,R5*%
X105386500Y-135001000D03*
X107211500Y-135001000D03*
%TD*%
%TO.C,R4*%
X103989500Y-129667000D03*
X105814500Y-129667000D03*
%TD*%
%TO.C,R3*%
X103989500Y-131318000D03*
X105814500Y-131318000D03*
%TD*%
D13*
%TO.C,L1*%
X116500000Y-144995000D03*
X116500000Y-143295000D03*
%TD*%
%TO.C,L2*%
X116500000Y-140804000D03*
X116500000Y-139104000D03*
%TD*%
%TO.C,L3*%
X116500000Y-136473000D03*
X116500000Y-134773000D03*
%TD*%
%TO.C,L4*%
X116500000Y-132409000D03*
X116500000Y-130709000D03*
%TD*%
D14*
%TO.C,IC1*%
X110946829Y-135926333D03*
X110593276Y-136279886D03*
X110239721Y-136633441D03*
X109886169Y-136986992D03*
D15*
X109886169Y-138613340D03*
X110239721Y-138966891D03*
X110593276Y-139320446D03*
X110946829Y-139673999D03*
D14*
X112573175Y-139673998D03*
X112926727Y-139320446D03*
X113280282Y-138966891D03*
X113633834Y-138613339D03*
D15*
X113633834Y-136986993D03*
X113280282Y-136633441D03*
X112926727Y-136279886D03*
X112573175Y-135926334D03*
D16*
X111017538Y-138542628D03*
X112502462Y-137057704D03*
X111017540Y-137057702D03*
X112502464Y-138542626D03*
%TD*%
D17*
%TO.C,C8*%
X119000000Y-143370000D03*
X119000000Y-144920000D03*
%TD*%
%TO.C,C7*%
X119000000Y-139179000D03*
X119000000Y-140729000D03*
%TD*%
%TO.C,C6*%
X119000000Y-134861000D03*
X119000000Y-136411000D03*
%TD*%
%TO.C,C5*%
X119000000Y-130797000D03*
X119000000Y-132347000D03*
%TD*%
D18*
%TO.C,C4*%
X109969000Y-144653000D03*
X111519000Y-144653000D03*
%TD*%
%TO.C,C3*%
X109969000Y-143129000D03*
X111519000Y-143129000D03*
%TD*%
%TO.C,C2*%
X109969000Y-141605000D03*
X111519000Y-141605000D03*
%TD*%
D17*
%TO.C,C1*%
X110109000Y-124828000D03*
X110109000Y-126378000D03*
%TD*%
D19*
%TO.C,R6*%
X107211500Y-136652000D03*
X105386500Y-136652000D03*
%TD*%
D12*
%TO.C,R7*%
X105386500Y-112776000D03*
X107211500Y-112776000D03*
%TD*%
D19*
%TO.C,R8*%
X107211500Y-114427000D03*
X105386500Y-114427000D03*
%TD*%
D18*
%TO.C,C10*%
X110096000Y-118999000D03*
X111646000Y-118999000D03*
%TD*%
D12*
%TO.C,R9*%
X103989500Y-128016000D03*
X105814500Y-128016000D03*
%TD*%
D19*
%TO.C,R10*%
X107211500Y-107950000D03*
X105386500Y-107950000D03*
%TD*%
D18*
%TO.C,C11*%
X110096000Y-120523000D03*
X111646000Y-120523000D03*
%TD*%
D17*
%TO.C,C13*%
X119000000Y-110858000D03*
X119000000Y-112408000D03*
%TD*%
D20*
%TO.C,R2*%
X116586000Y-124690500D03*
X116586000Y-126515500D03*
%TD*%
D13*
%TO.C,L5*%
X116500000Y-120611000D03*
X116500000Y-118911000D03*
%TD*%
D17*
%TO.C,C15*%
X119000000Y-118986000D03*
X119000000Y-120536000D03*
%TD*%
D13*
%TO.C,L8*%
X116500000Y-108419000D03*
X116500000Y-106719000D03*
%TD*%
D18*
%TO.C,C9*%
X110096000Y-117475000D03*
X111646000Y-117475000D03*
%TD*%
D13*
%TO.C,L6*%
X116500000Y-116547000D03*
X116500000Y-114847000D03*
%TD*%
D14*
%TO.C,IC2*%
X110946829Y-111791167D03*
X110593276Y-112144720D03*
X110239721Y-112498275D03*
X109886169Y-112851826D03*
D15*
X109886169Y-114478174D03*
X110239721Y-114831725D03*
X110593276Y-115185280D03*
X110946829Y-115538833D03*
D14*
X112573175Y-115538832D03*
X112926727Y-115185280D03*
X113280282Y-114831725D03*
X113633834Y-114478173D03*
D15*
X113633834Y-112851827D03*
X113280282Y-112498275D03*
X112926727Y-112144720D03*
X112573175Y-111791168D03*
D16*
X112502462Y-112922538D03*
X111017540Y-112922536D03*
X111017538Y-114407462D03*
X112502464Y-114407460D03*
%TD*%
D17*
%TO.C,C12*%
X119000000Y-106794000D03*
X119000000Y-108344000D03*
%TD*%
D21*
%TO.C,R1*%
X115062000Y-126515500D03*
X115062000Y-124690500D03*
%TD*%
D19*
%TO.C,R11*%
X107211500Y-109601000D03*
X105386500Y-109601000D03*
%TD*%
D17*
%TO.C,C14*%
X119000000Y-114922000D03*
X119000000Y-116472000D03*
%TD*%
D13*
%TO.C,L7*%
X116500000Y-112483000D03*
X116500000Y-110783000D03*
%TD*%
M02*
