%TF.GenerationSoftware,KiCad,Pcbnew,(6.0.2-0)*%
%TF.CreationDate,2022-06-23T22:24:51+02:00*%
%TF.ProjectId,CapSenseDuo,43617053-656e-4736-9544-756f2e6b6963,rev?*%
%TF.SameCoordinates,Original*%
%TF.FileFunction,Legend,Top*%
%TF.FilePolarity,Positive*%
%FSLAX46Y46*%
G04 Gerber Fmt 4.6, Leading zero omitted, Abs format (unit mm)*
G04 Created by KiCad (PCBNEW (6.0.2-0)) date 2022-06-23 22:24:51*
%MOMM*%
%LPD*%
G01*
G04 APERTURE LIST*
%ADD10C,0.120000*%
%ADD11C,2.365359*%
%ADD12C,0.100000*%
%ADD13C,0.150000*%
%ADD14C,0.250000*%
%ADD15C,0.254000*%
%ADD16C,0.200000*%
G04 APERTURE END LIST*
D10*
X124779000Y-142865000D02*
X130048000Y-142865000D01*
X130048000Y-142865000D02*
X130048000Y-132715000D01*
X130048000Y-132715000D02*
X124779000Y-132715000D01*
X124779000Y-132715000D02*
X124779000Y-142865000D01*
G36*
X124779000Y-142865000D02*
G01*
X130048000Y-142865000D01*
X130048000Y-132715000D01*
X124779000Y-132715000D01*
X124779000Y-142865000D01*
G37*
D11*
X103652320Y-148717000D02*
G75*
G03*
X103652320Y-148717000I-1182679J0D01*
G01*
D12*
X100076000Y-146050000D02*
X123190000Y-146050000D01*
X123190000Y-146050000D02*
X120904000Y-151003000D01*
X120904000Y-151003000D02*
X102489000Y-151003000D01*
X102489000Y-151003000D02*
X100076000Y-146050000D01*
G36*
X120904000Y-151003000D02*
G01*
X102489000Y-151003000D01*
X100076000Y-146050000D01*
X123190000Y-146050000D01*
X120904000Y-151003000D01*
G37*
X120904000Y-151003000D02*
X102489000Y-151003000D01*
X100076000Y-146050000D01*
X123190000Y-146050000D01*
X120904000Y-151003000D01*
D10*
X124841000Y-118745000D02*
X130048000Y-118745000D01*
X130048000Y-118745000D02*
X130048000Y-108585000D01*
X130048000Y-108585000D02*
X124841000Y-108585000D01*
X124841000Y-108585000D02*
X124841000Y-118745000D01*
G36*
X124841000Y-118745000D02*
G01*
X130048000Y-118745000D01*
X130048000Y-108585000D01*
X124841000Y-108585000D01*
X124841000Y-118745000D01*
G37*
X123190000Y-146050000D02*
X100164282Y-146050000D01*
X100164282Y-146050000D02*
X100164282Y-148717000D01*
X100164282Y-148717000D02*
X123190000Y-148717000D01*
X123190000Y-148717000D02*
X123190000Y-146050000D01*
G36*
X123190000Y-146050000D02*
G01*
X100164282Y-146050000D01*
X100164282Y-148717000D01*
X123190000Y-148717000D01*
X123190000Y-146050000D01*
G37*
D11*
X122067320Y-148717000D02*
G75*
G03*
X122067320Y-148717000I-1182679J0D01*
G01*
D13*
X102806619Y-141087809D02*
X102920904Y-141125904D01*
X103111380Y-141125904D01*
X103187571Y-141087809D01*
X103225666Y-141049714D01*
X103263761Y-140973523D01*
X103263761Y-140897333D01*
X103225666Y-140821142D01*
X103187571Y-140783047D01*
X103111380Y-140744952D01*
X102959000Y-140706857D01*
X102882809Y-140668761D01*
X102844714Y-140630666D01*
X102806619Y-140554476D01*
X102806619Y-140478285D01*
X102844714Y-140402095D01*
X102882809Y-140364000D01*
X102959000Y-140325904D01*
X103149476Y-140325904D01*
X103263761Y-140364000D01*
X104063761Y-141049714D02*
X104025666Y-141087809D01*
X103911380Y-141125904D01*
X103835190Y-141125904D01*
X103720904Y-141087809D01*
X103644714Y-141011619D01*
X103606619Y-140935428D01*
X103568523Y-140783047D01*
X103568523Y-140668761D01*
X103606619Y-140516380D01*
X103644714Y-140440190D01*
X103720904Y-140364000D01*
X103835190Y-140325904D01*
X103911380Y-140325904D01*
X104025666Y-140364000D01*
X104063761Y-140402095D01*
X104787571Y-141125904D02*
X104406619Y-141125904D01*
X104406619Y-140325904D01*
X102814857Y-133770666D02*
X103291047Y-133770666D01*
X102719619Y-134056380D02*
X103052952Y-133056380D01*
X103386285Y-134056380D01*
X103719619Y-134056380D02*
X103719619Y-133056380D01*
X103957714Y-133056380D01*
X104100571Y-133104000D01*
X104195809Y-133199238D01*
X104243428Y-133294476D01*
X104291047Y-133484952D01*
X104291047Y-133627809D01*
X104243428Y-133818285D01*
X104195809Y-133913523D01*
X104100571Y-134008761D01*
X103957714Y-134056380D01*
X103719619Y-134056380D01*
X104719619Y-134056380D02*
X104719619Y-133056380D01*
X104957714Y-133056380D01*
X105100571Y-133104000D01*
X105195809Y-133199238D01*
X105243428Y-133294476D01*
X105291047Y-133484952D01*
X105291047Y-133627809D01*
X105243428Y-133818285D01*
X105195809Y-133913523D01*
X105100571Y-134008761D01*
X104957714Y-134056380D01*
X104719619Y-134056380D01*
X106291047Y-134056380D02*
X105957714Y-133580190D01*
X105719619Y-134056380D02*
X105719619Y-133056380D01*
X106100571Y-133056380D01*
X106195809Y-133104000D01*
X106243428Y-133151619D01*
X106291047Y-133246857D01*
X106291047Y-133389714D01*
X106243428Y-133484952D01*
X106195809Y-133532571D01*
X106100571Y-133580190D01*
X105719619Y-133580190D01*
X107243428Y-134056380D02*
X106672000Y-134056380D01*
X106957714Y-134056380D02*
X106957714Y-133056380D01*
X106862476Y-133199238D01*
X106767238Y-133294476D01*
X106672000Y-133342095D01*
X107672000Y-133675428D02*
X108433904Y-133675428D01*
X108910095Y-134056380D02*
X108910095Y-133056380D01*
X108910095Y-133532571D02*
X109481523Y-133532571D01*
X109481523Y-134056380D02*
X109481523Y-133056380D01*
X108037523Y-110132761D02*
X108180380Y-110180380D01*
X108418476Y-110180380D01*
X108513714Y-110132761D01*
X108561333Y-110085142D01*
X108608952Y-109989904D01*
X108608952Y-109894666D01*
X108561333Y-109799428D01*
X108513714Y-109751809D01*
X108418476Y-109704190D01*
X108228000Y-109656571D01*
X108132761Y-109608952D01*
X108085142Y-109561333D01*
X108037523Y-109466095D01*
X108037523Y-109370857D01*
X108085142Y-109275619D01*
X108132761Y-109228000D01*
X108228000Y-109180380D01*
X108466095Y-109180380D01*
X108608952Y-109228000D01*
X109037523Y-110180380D02*
X109037523Y-109180380D01*
X109275619Y-109180380D01*
X109418476Y-109228000D01*
X109513714Y-109323238D01*
X109561333Y-109418476D01*
X109608952Y-109608952D01*
X109608952Y-109751809D01*
X109561333Y-109942285D01*
X109513714Y-110037523D01*
X109418476Y-110132761D01*
X109275619Y-110180380D01*
X109037523Y-110180380D01*
X109989904Y-109894666D02*
X110466095Y-109894666D01*
X109894666Y-110180380D02*
X110228000Y-109180380D01*
X110561333Y-110180380D01*
X110847047Y-109275619D02*
X110894666Y-109228000D01*
X110989904Y-109180380D01*
X111228000Y-109180380D01*
X111323238Y-109228000D01*
X111370857Y-109275619D01*
X111418476Y-109370857D01*
X111418476Y-109466095D01*
X111370857Y-109608952D01*
X110799428Y-110180380D01*
X111418476Y-110180380D01*
X108061333Y-108354761D02*
X108204190Y-108402380D01*
X108442285Y-108402380D01*
X108537523Y-108354761D01*
X108585142Y-108307142D01*
X108632761Y-108211904D01*
X108632761Y-108116666D01*
X108585142Y-108021428D01*
X108537523Y-107973809D01*
X108442285Y-107926190D01*
X108251809Y-107878571D01*
X108156571Y-107830952D01*
X108108952Y-107783333D01*
X108061333Y-107688095D01*
X108061333Y-107592857D01*
X108108952Y-107497619D01*
X108156571Y-107450000D01*
X108251809Y-107402380D01*
X108489904Y-107402380D01*
X108632761Y-107450000D01*
X109632761Y-108307142D02*
X109585142Y-108354761D01*
X109442285Y-108402380D01*
X109347047Y-108402380D01*
X109204190Y-108354761D01*
X109108952Y-108259523D01*
X109061333Y-108164285D01*
X109013714Y-107973809D01*
X109013714Y-107830952D01*
X109061333Y-107640476D01*
X109108952Y-107545238D01*
X109204190Y-107450000D01*
X109347047Y-107402380D01*
X109442285Y-107402380D01*
X109585142Y-107450000D01*
X109632761Y-107497619D01*
X110537523Y-108402380D02*
X110061333Y-108402380D01*
X110061333Y-107402380D01*
X110823238Y-107497619D02*
X110870857Y-107450000D01*
X110966095Y-107402380D01*
X111204190Y-107402380D01*
X111299428Y-107450000D01*
X111347047Y-107497619D01*
X111394666Y-107592857D01*
X111394666Y-107688095D01*
X111347047Y-107830952D01*
X110775619Y-108402380D01*
X111394666Y-108402380D01*
X124066333Y-109362904D02*
X124599666Y-109362904D01*
X124256809Y-110162904D01*
X124485380Y-111938904D02*
X124333000Y-111938904D01*
X124256809Y-111977000D01*
X124218714Y-112015095D01*
X124142523Y-112129380D01*
X124104428Y-112281761D01*
X124104428Y-112586523D01*
X124142523Y-112662714D01*
X124180619Y-112700809D01*
X124256809Y-112738904D01*
X124409190Y-112738904D01*
X124485380Y-112700809D01*
X124523476Y-112662714D01*
X124561571Y-112586523D01*
X124561571Y-112396047D01*
X124523476Y-112319857D01*
X124485380Y-112281761D01*
X124409190Y-112243666D01*
X124256809Y-112243666D01*
X124180619Y-112281761D01*
X124142523Y-112319857D01*
X124104428Y-112396047D01*
X124523476Y-114514904D02*
X124142523Y-114514904D01*
X124104428Y-114895857D01*
X124142523Y-114857761D01*
X124218714Y-114819666D01*
X124409190Y-114819666D01*
X124485380Y-114857761D01*
X124523476Y-114895857D01*
X124561571Y-114972047D01*
X124561571Y-115162523D01*
X124523476Y-115238714D01*
X124485380Y-115276809D01*
X124409190Y-115314904D01*
X124218714Y-115314904D01*
X124142523Y-115276809D01*
X124104428Y-115238714D01*
X124485380Y-117357571D02*
X124485380Y-117890904D01*
X124294904Y-117052809D02*
X124104428Y-117624238D01*
X124599666Y-117624238D01*
X125876238Y-132086333D02*
X126257190Y-132086333D01*
X125800047Y-132314904D02*
X126066714Y-131514904D01*
X126333380Y-132314904D01*
X128695285Y-131895857D02*
X128809571Y-131933952D01*
X128847666Y-131972047D01*
X128885761Y-132048238D01*
X128885761Y-132162523D01*
X128847666Y-132238714D01*
X128809571Y-132276809D01*
X128733380Y-132314904D01*
X128428619Y-132314904D01*
X128428619Y-131514904D01*
X128695285Y-131514904D01*
X128771476Y-131553000D01*
X128809571Y-131591095D01*
X128847666Y-131667285D01*
X128847666Y-131743476D01*
X128809571Y-131819666D01*
X128771476Y-131857761D01*
X128695285Y-131895857D01*
X128428619Y-131895857D01*
X124066333Y-133492904D02*
X124561571Y-133492904D01*
X124294904Y-133797666D01*
X124409190Y-133797666D01*
X124485380Y-133835761D01*
X124523476Y-133873857D01*
X124561571Y-133950047D01*
X124561571Y-134140523D01*
X124523476Y-134216714D01*
X124485380Y-134254809D01*
X124409190Y-134292904D01*
X124180619Y-134292904D01*
X124104428Y-134254809D01*
X124066333Y-134216714D01*
X124104428Y-136145095D02*
X124142523Y-136107000D01*
X124218714Y-136068904D01*
X124409190Y-136068904D01*
X124485380Y-136107000D01*
X124523476Y-136145095D01*
X124561571Y-136221285D01*
X124561571Y-136297476D01*
X124523476Y-136411761D01*
X124066333Y-136868904D01*
X124561571Y-136868904D01*
X124561571Y-139444904D02*
X124104428Y-139444904D01*
X124333000Y-139444904D02*
X124333000Y-138644904D01*
X124256809Y-138759190D01*
X124180619Y-138835380D01*
X124104428Y-138873476D01*
X124294904Y-141220904D02*
X124371095Y-141220904D01*
X124447285Y-141259000D01*
X124485380Y-141297095D01*
X124523476Y-141373285D01*
X124561571Y-141525666D01*
X124561571Y-141716142D01*
X124523476Y-141868523D01*
X124485380Y-141944714D01*
X124447285Y-141982809D01*
X124371095Y-142020904D01*
X124294904Y-142020904D01*
X124218714Y-141982809D01*
X124180619Y-141944714D01*
X124142523Y-141868523D01*
X124104428Y-141716142D01*
X124104428Y-141525666D01*
X124142523Y-141373285D01*
X124180619Y-141297095D01*
X124218714Y-141259000D01*
X124294904Y-141220904D01*
X119151476Y-113265000D02*
X119075285Y-113226904D01*
X118961000Y-113226904D01*
X118846714Y-113265000D01*
X118770523Y-113341190D01*
X118732428Y-113417380D01*
X118694333Y-113569761D01*
X118694333Y-113684047D01*
X118732428Y-113836428D01*
X118770523Y-113912619D01*
X118846714Y-113988809D01*
X118961000Y-114026904D01*
X119037190Y-114026904D01*
X119151476Y-113988809D01*
X119189571Y-113950714D01*
X119189571Y-113684047D01*
X119037190Y-113684047D01*
X119532428Y-114026904D02*
X119532428Y-113226904D01*
X119989571Y-114026904D01*
X119989571Y-113226904D01*
X120370523Y-114026904D02*
X120370523Y-113226904D01*
X120561000Y-113226904D01*
X120675285Y-113265000D01*
X120751476Y-113341190D01*
X120789571Y-113417380D01*
X120827666Y-113569761D01*
X120827666Y-113684047D01*
X120789571Y-113836428D01*
X120751476Y-113912619D01*
X120675285Y-113988809D01*
X120561000Y-114026904D01*
X120370523Y-114026904D01*
X101671857Y-111799666D02*
X102148047Y-111799666D01*
X101576619Y-112085380D02*
X101909952Y-111085380D01*
X102243285Y-112085380D01*
X102576619Y-112085380D02*
X102576619Y-111085380D01*
X102814714Y-111085380D01*
X102957571Y-111133000D01*
X103052809Y-111228238D01*
X103100428Y-111323476D01*
X103148047Y-111513952D01*
X103148047Y-111656809D01*
X103100428Y-111847285D01*
X103052809Y-111942523D01*
X102957571Y-112037761D01*
X102814714Y-112085380D01*
X102576619Y-112085380D01*
X103576619Y-112085380D02*
X103576619Y-111085380D01*
X103814714Y-111085380D01*
X103957571Y-111133000D01*
X104052809Y-111228238D01*
X104100428Y-111323476D01*
X104148047Y-111513952D01*
X104148047Y-111656809D01*
X104100428Y-111847285D01*
X104052809Y-111942523D01*
X103957571Y-112037761D01*
X103814714Y-112085380D01*
X103576619Y-112085380D01*
X105148047Y-112085380D02*
X104814714Y-111609190D01*
X104576619Y-112085380D02*
X104576619Y-111085380D01*
X104957571Y-111085380D01*
X105052809Y-111133000D01*
X105100428Y-111180619D01*
X105148047Y-111275857D01*
X105148047Y-111418714D01*
X105100428Y-111513952D01*
X105052809Y-111561571D01*
X104957571Y-111609190D01*
X104576619Y-111609190D01*
X105529000Y-111180619D02*
X105576619Y-111133000D01*
X105671857Y-111085380D01*
X105909952Y-111085380D01*
X106005190Y-111133000D01*
X106052809Y-111180619D01*
X106100428Y-111275857D01*
X106100428Y-111371095D01*
X106052809Y-111513952D01*
X105481380Y-112085380D01*
X106100428Y-112085380D01*
X106529000Y-111704428D02*
X107290904Y-111704428D01*
X107767095Y-112085380D02*
X107767095Y-111085380D01*
X107767095Y-111561571D02*
X108338523Y-111561571D01*
X108338523Y-112085380D02*
X108338523Y-111085380D01*
X103149476Y-138459000D02*
X103073285Y-138420904D01*
X102959000Y-138420904D01*
X102844714Y-138459000D01*
X102768523Y-138535190D01*
X102730428Y-138611380D01*
X102692333Y-138763761D01*
X102692333Y-138878047D01*
X102730428Y-139030428D01*
X102768523Y-139106619D01*
X102844714Y-139182809D01*
X102959000Y-139220904D01*
X103035190Y-139220904D01*
X103149476Y-139182809D01*
X103187571Y-139144714D01*
X103187571Y-138878047D01*
X103035190Y-138878047D01*
X103530428Y-139220904D02*
X103530428Y-138420904D01*
X103987571Y-139220904D01*
X103987571Y-138420904D01*
X104368523Y-139220904D02*
X104368523Y-138420904D01*
X104559000Y-138420904D01*
X104673285Y-138459000D01*
X104749476Y-138535190D01*
X104787571Y-138611380D01*
X104825666Y-138763761D01*
X104825666Y-138878047D01*
X104787571Y-139030428D01*
X104749476Y-139106619D01*
X104673285Y-139182809D01*
X104559000Y-139220904D01*
X104368523Y-139220904D01*
X118897523Y-109162904D02*
X119392761Y-109162904D01*
X119126095Y-109467666D01*
X119240380Y-109467666D01*
X119316571Y-109505761D01*
X119354666Y-109543857D01*
X119392761Y-109620047D01*
X119392761Y-109810523D01*
X119354666Y-109886714D01*
X119316571Y-109924809D01*
X119240380Y-109962904D01*
X119011809Y-109962904D01*
X118935619Y-109924809D01*
X118897523Y-109886714D01*
X119621333Y-109162904D02*
X119888000Y-109962904D01*
X120154666Y-109162904D01*
X120345142Y-109162904D02*
X120840380Y-109162904D01*
X120573714Y-109467666D01*
X120688000Y-109467666D01*
X120764190Y-109505761D01*
X120802285Y-109543857D01*
X120840380Y-109620047D01*
X120840380Y-109810523D01*
X120802285Y-109886714D01*
X120764190Y-109924809D01*
X120688000Y-109962904D01*
X120459428Y-109962904D01*
X120383238Y-109924809D01*
X120345142Y-109886714D01*
X102768523Y-144262904D02*
X103263761Y-144262904D01*
X102997095Y-144567666D01*
X103111380Y-144567666D01*
X103187571Y-144605761D01*
X103225666Y-144643857D01*
X103263761Y-144720047D01*
X103263761Y-144910523D01*
X103225666Y-144986714D01*
X103187571Y-145024809D01*
X103111380Y-145062904D01*
X102882809Y-145062904D01*
X102806619Y-145024809D01*
X102768523Y-144986714D01*
X103492333Y-144262904D02*
X103759000Y-145062904D01*
X104025666Y-144262904D01*
X104216142Y-144262904D02*
X104711380Y-144262904D01*
X104444714Y-144567666D01*
X104559000Y-144567666D01*
X104635190Y-144605761D01*
X104673285Y-144643857D01*
X104711380Y-144720047D01*
X104711380Y-144910523D01*
X104673285Y-144986714D01*
X104635190Y-145024809D01*
X104559000Y-145062904D01*
X104330428Y-145062904D01*
X104254238Y-145024809D01*
X104216142Y-144986714D01*
X102787571Y-143119809D02*
X102901857Y-143157904D01*
X103092333Y-143157904D01*
X103168523Y-143119809D01*
X103206619Y-143081714D01*
X103244714Y-143005523D01*
X103244714Y-142929333D01*
X103206619Y-142853142D01*
X103168523Y-142815047D01*
X103092333Y-142776952D01*
X102939952Y-142738857D01*
X102863761Y-142700761D01*
X102825666Y-142662666D01*
X102787571Y-142586476D01*
X102787571Y-142510285D01*
X102825666Y-142434095D01*
X102863761Y-142396000D01*
X102939952Y-142357904D01*
X103130428Y-142357904D01*
X103244714Y-142396000D01*
X103587571Y-143157904D02*
X103587571Y-142357904D01*
X103778047Y-142357904D01*
X103892333Y-142396000D01*
X103968523Y-142472190D01*
X104006619Y-142548380D01*
X104044714Y-142700761D01*
X104044714Y-142815047D01*
X104006619Y-142967428D01*
X103968523Y-143043619D01*
X103892333Y-143119809D01*
X103778047Y-143157904D01*
X103587571Y-143157904D01*
X104349476Y-142929333D02*
X104730428Y-142929333D01*
X104273285Y-143157904D02*
X104539952Y-142357904D01*
X104806619Y-143157904D01*
X124987238Y-120275333D02*
X125368190Y-120275333D01*
X124911047Y-120503904D02*
X125177714Y-119703904D01*
X125444380Y-120503904D01*
X127806285Y-120084857D02*
X127920571Y-120122952D01*
X127958666Y-120161047D01*
X127996761Y-120237238D01*
X127996761Y-120351523D01*
X127958666Y-120427714D01*
X127920571Y-120465809D01*
X127844380Y-120503904D01*
X127539619Y-120503904D01*
X127539619Y-119703904D01*
X127806285Y-119703904D01*
X127882476Y-119742000D01*
X127920571Y-119780095D01*
X127958666Y-119856285D01*
X127958666Y-119932476D01*
X127920571Y-120008666D01*
X127882476Y-120046761D01*
X127806285Y-120084857D01*
X127539619Y-120084857D01*
X126771476Y-145396000D02*
X126695285Y-145357904D01*
X126581000Y-145357904D01*
X126466714Y-145396000D01*
X126390523Y-145472190D01*
X126352428Y-145548380D01*
X126314333Y-145700761D01*
X126314333Y-145815047D01*
X126352428Y-145967428D01*
X126390523Y-146043619D01*
X126466714Y-146119809D01*
X126581000Y-146157904D01*
X126657190Y-146157904D01*
X126771476Y-146119809D01*
X126809571Y-146081714D01*
X126809571Y-145815047D01*
X126657190Y-145815047D01*
X127152428Y-146157904D02*
X127152428Y-145357904D01*
X127609571Y-146157904D01*
X127609571Y-145357904D01*
X127990523Y-146157904D02*
X127990523Y-145357904D01*
X128181000Y-145357904D01*
X128295285Y-145396000D01*
X128371476Y-145472190D01*
X128409571Y-145548380D01*
X128447666Y-145700761D01*
X128447666Y-145815047D01*
X128409571Y-145967428D01*
X128371476Y-146043619D01*
X128295285Y-146119809D01*
X128181000Y-146157904D01*
X127990523Y-146157904D01*
D14*
%TO.C,Y1*%
X112131309Y-123166190D02*
X112131309Y-123642380D01*
X111797976Y-122642380D02*
X112131309Y-123166190D01*
X112464642Y-122642380D01*
X113321785Y-123642380D02*
X112750357Y-123642380D01*
X113036071Y-123642380D02*
X113036071Y-122642380D01*
X112940833Y-122785238D01*
X112845595Y-122880476D01*
X112750357Y-122928095D01*
D13*
%TO.C,R5*%
X103465333Y-135580380D02*
X103132000Y-135104190D01*
X102893904Y-135580380D02*
X102893904Y-134580380D01*
X103274857Y-134580380D01*
X103370095Y-134628000D01*
X103417714Y-134675619D01*
X103465333Y-134770857D01*
X103465333Y-134913714D01*
X103417714Y-135008952D01*
X103370095Y-135056571D01*
X103274857Y-135104190D01*
X102893904Y-135104190D01*
X104370095Y-134580380D02*
X103893904Y-134580380D01*
X103846285Y-135056571D01*
X103893904Y-135008952D01*
X103989142Y-134961333D01*
X104227238Y-134961333D01*
X104322476Y-135008952D01*
X104370095Y-135056571D01*
X104417714Y-135151809D01*
X104417714Y-135389904D01*
X104370095Y-135485142D01*
X104322476Y-135532761D01*
X104227238Y-135580380D01*
X103989142Y-135580380D01*
X103893904Y-135532761D01*
X103846285Y-135485142D01*
%TO.C,R4*%
X107529333Y-130119380D02*
X107196000Y-129643190D01*
X106957904Y-130119380D02*
X106957904Y-129119380D01*
X107338857Y-129119380D01*
X107434095Y-129167000D01*
X107481714Y-129214619D01*
X107529333Y-129309857D01*
X107529333Y-129452714D01*
X107481714Y-129547952D01*
X107434095Y-129595571D01*
X107338857Y-129643190D01*
X106957904Y-129643190D01*
X108386476Y-129452714D02*
X108386476Y-130119380D01*
X108148380Y-129071761D02*
X107910285Y-129786047D01*
X108529333Y-129786047D01*
%TO.C,R3*%
X107529333Y-131897380D02*
X107196000Y-131421190D01*
X106957904Y-131897380D02*
X106957904Y-130897380D01*
X107338857Y-130897380D01*
X107434095Y-130945000D01*
X107481714Y-130992619D01*
X107529333Y-131087857D01*
X107529333Y-131230714D01*
X107481714Y-131325952D01*
X107434095Y-131373571D01*
X107338857Y-131421190D01*
X106957904Y-131421190D01*
X107862666Y-130897380D02*
X108481714Y-130897380D01*
X108148380Y-131278333D01*
X108291238Y-131278333D01*
X108386476Y-131325952D01*
X108434095Y-131373571D01*
X108481714Y-131468809D01*
X108481714Y-131706904D01*
X108434095Y-131802142D01*
X108386476Y-131849761D01*
X108291238Y-131897380D01*
X108005523Y-131897380D01*
X107910285Y-131849761D01*
X107862666Y-131802142D01*
D15*
%TO.C,L1*%
X117074523Y-144356666D02*
X117074523Y-144961428D01*
X115804523Y-144961428D01*
X117074523Y-143268095D02*
X117074523Y-143993809D01*
X117074523Y-143630952D02*
X115804523Y-143630952D01*
X115985952Y-143751904D01*
X116106904Y-143872857D01*
X116167380Y-143993809D01*
%TO.C,L2*%
X117074523Y-140165666D02*
X117074523Y-140770428D01*
X115804523Y-140770428D01*
X115925476Y-139802809D02*
X115865000Y-139742333D01*
X115804523Y-139621380D01*
X115804523Y-139319000D01*
X115865000Y-139198047D01*
X115925476Y-139137571D01*
X116046428Y-139077095D01*
X116167380Y-139077095D01*
X116348809Y-139137571D01*
X117074523Y-139863285D01*
X117074523Y-139077095D01*
%TO.C,L3*%
X117074523Y-135834666D02*
X117074523Y-136439428D01*
X115804523Y-136439428D01*
X115804523Y-135532285D02*
X115804523Y-134746095D01*
X116288333Y-135169428D01*
X116288333Y-134988000D01*
X116348809Y-134867047D01*
X116409285Y-134806571D01*
X116530238Y-134746095D01*
X116832619Y-134746095D01*
X116953571Y-134806571D01*
X117014047Y-134867047D01*
X117074523Y-134988000D01*
X117074523Y-135350857D01*
X117014047Y-135471809D01*
X116953571Y-135532285D01*
%TO.C,L4*%
X117074523Y-131770666D02*
X117074523Y-132375428D01*
X115804523Y-132375428D01*
X116227857Y-130803047D02*
X117074523Y-130803047D01*
X115744047Y-131105428D02*
X116651190Y-131407809D01*
X116651190Y-130621619D01*
D13*
%TO.C,IC1*%
X112786610Y-134995152D02*
X112079503Y-134288045D01*
X113460045Y-134187030D02*
X113460045Y-134254374D01*
X113392702Y-134389061D01*
X113325358Y-134456404D01*
X113190671Y-134523748D01*
X113055984Y-134523748D01*
X112954969Y-134490076D01*
X112786610Y-134389061D01*
X112685595Y-134288045D01*
X112584580Y-134119687D01*
X112550908Y-134018671D01*
X112550908Y-133883984D01*
X112618251Y-133749297D01*
X112685595Y-133681954D01*
X112820282Y-133614610D01*
X112887625Y-133614610D01*
X114200824Y-133580938D02*
X113796763Y-133985000D01*
X113998793Y-133782969D02*
X113291687Y-133075862D01*
X113325358Y-133244221D01*
X113325358Y-133378908D01*
X113291687Y-133479923D01*
X111372774Y-138187391D02*
X111541133Y-138019032D01*
X111642148Y-138254734D02*
X111541133Y-138019032D01*
X111305431Y-137918017D01*
X111776835Y-137985360D02*
X111541133Y-138019032D01*
X111574805Y-137783330D01*
%TO.C,C8*%
X120484333Y-144502142D02*
X120436714Y-144549761D01*
X120293857Y-144597380D01*
X120198619Y-144597380D01*
X120055761Y-144549761D01*
X119960523Y-144454523D01*
X119912904Y-144359285D01*
X119865285Y-144168809D01*
X119865285Y-144025952D01*
X119912904Y-143835476D01*
X119960523Y-143740238D01*
X120055761Y-143645000D01*
X120198619Y-143597380D01*
X120293857Y-143597380D01*
X120436714Y-143645000D01*
X120484333Y-143692619D01*
X121055761Y-144025952D02*
X120960523Y-143978333D01*
X120912904Y-143930714D01*
X120865285Y-143835476D01*
X120865285Y-143787857D01*
X120912904Y-143692619D01*
X120960523Y-143645000D01*
X121055761Y-143597380D01*
X121246238Y-143597380D01*
X121341476Y-143645000D01*
X121389095Y-143692619D01*
X121436714Y-143787857D01*
X121436714Y-143835476D01*
X121389095Y-143930714D01*
X121341476Y-143978333D01*
X121246238Y-144025952D01*
X121055761Y-144025952D01*
X120960523Y-144073571D01*
X120912904Y-144121190D01*
X120865285Y-144216428D01*
X120865285Y-144406904D01*
X120912904Y-144502142D01*
X120960523Y-144549761D01*
X121055761Y-144597380D01*
X121246238Y-144597380D01*
X121341476Y-144549761D01*
X121389095Y-144502142D01*
X121436714Y-144406904D01*
X121436714Y-144216428D01*
X121389095Y-144121190D01*
X121341476Y-144073571D01*
X121246238Y-144025952D01*
%TO.C,C7*%
X120484333Y-140311142D02*
X120436714Y-140358761D01*
X120293857Y-140406380D01*
X120198619Y-140406380D01*
X120055761Y-140358761D01*
X119960523Y-140263523D01*
X119912904Y-140168285D01*
X119865285Y-139977809D01*
X119865285Y-139834952D01*
X119912904Y-139644476D01*
X119960523Y-139549238D01*
X120055761Y-139454000D01*
X120198619Y-139406380D01*
X120293857Y-139406380D01*
X120436714Y-139454000D01*
X120484333Y-139501619D01*
X120817666Y-139406380D02*
X121484333Y-139406380D01*
X121055761Y-140406380D01*
%TO.C,C6*%
X120480615Y-135993142D02*
X120432996Y-136040761D01*
X120290139Y-136088380D01*
X120194901Y-136088380D01*
X120052043Y-136040761D01*
X119956805Y-135945523D01*
X119909186Y-135850285D01*
X119861567Y-135659809D01*
X119861567Y-135516952D01*
X119909186Y-135326476D01*
X119956805Y-135231238D01*
X120052043Y-135136000D01*
X120194901Y-135088380D01*
X120290139Y-135088380D01*
X120432996Y-135136000D01*
X120480615Y-135183619D01*
X121337758Y-135088380D02*
X121147282Y-135088380D01*
X121052043Y-135136000D01*
X121004424Y-135183619D01*
X120909186Y-135326476D01*
X120861567Y-135516952D01*
X120861567Y-135897904D01*
X120909186Y-135993142D01*
X120956805Y-136040761D01*
X121052043Y-136088380D01*
X121242520Y-136088380D01*
X121337758Y-136040761D01*
X121385377Y-135993142D01*
X121432996Y-135897904D01*
X121432996Y-135659809D01*
X121385377Y-135564571D01*
X121337758Y-135516952D01*
X121242520Y-135469333D01*
X121052043Y-135469333D01*
X120956805Y-135516952D01*
X120909186Y-135564571D01*
X120861567Y-135659809D01*
%TO.C,C5*%
X120484333Y-132056142D02*
X120436714Y-132103761D01*
X120293857Y-132151380D01*
X120198619Y-132151380D01*
X120055761Y-132103761D01*
X119960523Y-132008523D01*
X119912904Y-131913285D01*
X119865285Y-131722809D01*
X119865285Y-131579952D01*
X119912904Y-131389476D01*
X119960523Y-131294238D01*
X120055761Y-131199000D01*
X120198619Y-131151380D01*
X120293857Y-131151380D01*
X120436714Y-131199000D01*
X120484333Y-131246619D01*
X121389095Y-131151380D02*
X120912904Y-131151380D01*
X120865285Y-131627571D01*
X120912904Y-131579952D01*
X121008142Y-131532333D01*
X121246238Y-131532333D01*
X121341476Y-131579952D01*
X121389095Y-131627571D01*
X121436714Y-131722809D01*
X121436714Y-131960904D01*
X121389095Y-132056142D01*
X121341476Y-132103761D01*
X121246238Y-132151380D01*
X121008142Y-132151380D01*
X120912904Y-132103761D01*
X120865285Y-132056142D01*
%TO.C,C4*%
X108164333Y-145010142D02*
X108116714Y-145057761D01*
X107973857Y-145105380D01*
X107878619Y-145105380D01*
X107735761Y-145057761D01*
X107640523Y-144962523D01*
X107592904Y-144867285D01*
X107545285Y-144676809D01*
X107545285Y-144533952D01*
X107592904Y-144343476D01*
X107640523Y-144248238D01*
X107735761Y-144153000D01*
X107878619Y-144105380D01*
X107973857Y-144105380D01*
X108116714Y-144153000D01*
X108164333Y-144200619D01*
X109021476Y-144438714D02*
X109021476Y-145105380D01*
X108783380Y-144057761D02*
X108545285Y-144772047D01*
X109164333Y-144772047D01*
%TO.C,C3*%
X108164333Y-143486142D02*
X108116714Y-143533761D01*
X107973857Y-143581380D01*
X107878619Y-143581380D01*
X107735761Y-143533761D01*
X107640523Y-143438523D01*
X107592904Y-143343285D01*
X107545285Y-143152809D01*
X107545285Y-143009952D01*
X107592904Y-142819476D01*
X107640523Y-142724238D01*
X107735761Y-142629000D01*
X107878619Y-142581380D01*
X107973857Y-142581380D01*
X108116714Y-142629000D01*
X108164333Y-142676619D01*
X108497666Y-142581380D02*
X109116714Y-142581380D01*
X108783380Y-142962333D01*
X108926238Y-142962333D01*
X109021476Y-143009952D01*
X109069095Y-143057571D01*
X109116714Y-143152809D01*
X109116714Y-143390904D01*
X109069095Y-143486142D01*
X109021476Y-143533761D01*
X108926238Y-143581380D01*
X108640523Y-143581380D01*
X108545285Y-143533761D01*
X108497666Y-143486142D01*
%TO.C,C2*%
X108164333Y-141962142D02*
X108116714Y-142009761D01*
X107973857Y-142057380D01*
X107878619Y-142057380D01*
X107735761Y-142009761D01*
X107640523Y-141914523D01*
X107592904Y-141819285D01*
X107545285Y-141628809D01*
X107545285Y-141485952D01*
X107592904Y-141295476D01*
X107640523Y-141200238D01*
X107735761Y-141105000D01*
X107878619Y-141057380D01*
X107973857Y-141057380D01*
X108116714Y-141105000D01*
X108164333Y-141152619D01*
X108545285Y-141152619D02*
X108592904Y-141105000D01*
X108688142Y-141057380D01*
X108926238Y-141057380D01*
X109021476Y-141105000D01*
X109069095Y-141152619D01*
X109116714Y-141247857D01*
X109116714Y-141343095D01*
X109069095Y-141485952D01*
X108497666Y-142057380D01*
X109116714Y-142057380D01*
%TO.C,C1*%
X110466142Y-123229666D02*
X110513761Y-123277285D01*
X110561380Y-123420142D01*
X110561380Y-123515380D01*
X110513761Y-123658238D01*
X110418523Y-123753476D01*
X110323285Y-123801095D01*
X110132809Y-123848714D01*
X109989952Y-123848714D01*
X109799476Y-123801095D01*
X109704238Y-123753476D01*
X109609000Y-123658238D01*
X109561380Y-123515380D01*
X109561380Y-123420142D01*
X109609000Y-123277285D01*
X109656619Y-123229666D01*
X110561380Y-122277285D02*
X110561380Y-122848714D01*
X110561380Y-122563000D02*
X109561380Y-122563000D01*
X109704238Y-122658238D01*
X109799476Y-122753476D01*
X109847095Y-122848714D01*
%TO.C,R6*%
X103465333Y-137104380D02*
X103132000Y-136628190D01*
X102893904Y-137104380D02*
X102893904Y-136104380D01*
X103274857Y-136104380D01*
X103370095Y-136152000D01*
X103417714Y-136199619D01*
X103465333Y-136294857D01*
X103465333Y-136437714D01*
X103417714Y-136532952D01*
X103370095Y-136580571D01*
X103274857Y-136628190D01*
X102893904Y-136628190D01*
X104322476Y-136104380D02*
X104132000Y-136104380D01*
X104036761Y-136152000D01*
X103989142Y-136199619D01*
X103893904Y-136342476D01*
X103846285Y-136532952D01*
X103846285Y-136913904D01*
X103893904Y-137009142D01*
X103941523Y-137056761D01*
X104036761Y-137104380D01*
X104227238Y-137104380D01*
X104322476Y-137056761D01*
X104370095Y-137009142D01*
X104417714Y-136913904D01*
X104417714Y-136675809D01*
X104370095Y-136580571D01*
X104322476Y-136532952D01*
X104227238Y-136485333D01*
X104036761Y-136485333D01*
X103941523Y-136532952D01*
X103893904Y-136580571D01*
X103846285Y-136675809D01*
%TO.C,R7*%
X103592333Y-113482380D02*
X103259000Y-113006190D01*
X103020904Y-113482380D02*
X103020904Y-112482380D01*
X103401857Y-112482380D01*
X103497095Y-112530000D01*
X103544714Y-112577619D01*
X103592333Y-112672857D01*
X103592333Y-112815714D01*
X103544714Y-112910952D01*
X103497095Y-112958571D01*
X103401857Y-113006190D01*
X103020904Y-113006190D01*
X103925666Y-112482380D02*
X104592333Y-112482380D01*
X104163761Y-113482380D01*
%TO.C,R8*%
X103488833Y-114879380D02*
X103155500Y-114403190D01*
X102917404Y-114879380D02*
X102917404Y-113879380D01*
X103298357Y-113879380D01*
X103393595Y-113927000D01*
X103441214Y-113974619D01*
X103488833Y-114069857D01*
X103488833Y-114212714D01*
X103441214Y-114307952D01*
X103393595Y-114355571D01*
X103298357Y-114403190D01*
X102917404Y-114403190D01*
X104060261Y-114307952D02*
X103965023Y-114260333D01*
X103917404Y-114212714D01*
X103869785Y-114117476D01*
X103869785Y-114069857D01*
X103917404Y-113974619D01*
X103965023Y-113927000D01*
X104060261Y-113879380D01*
X104250738Y-113879380D01*
X104345976Y-113927000D01*
X104393595Y-113974619D01*
X104441214Y-114069857D01*
X104441214Y-114117476D01*
X104393595Y-114212714D01*
X104345976Y-114260333D01*
X104250738Y-114307952D01*
X104060261Y-114307952D01*
X103965023Y-114355571D01*
X103917404Y-114403190D01*
X103869785Y-114498428D01*
X103869785Y-114688904D01*
X103917404Y-114784142D01*
X103965023Y-114831761D01*
X104060261Y-114879380D01*
X104250738Y-114879380D01*
X104345976Y-114831761D01*
X104393595Y-114784142D01*
X104441214Y-114688904D01*
X104441214Y-114498428D01*
X104393595Y-114403190D01*
X104345976Y-114355571D01*
X104250738Y-114307952D01*
%TO.C,C10*%
X107307142Y-119356142D02*
X107259523Y-119403761D01*
X107116666Y-119451380D01*
X107021428Y-119451380D01*
X106878571Y-119403761D01*
X106783333Y-119308523D01*
X106735714Y-119213285D01*
X106688095Y-119022809D01*
X106688095Y-118879952D01*
X106735714Y-118689476D01*
X106783333Y-118594238D01*
X106878571Y-118499000D01*
X107021428Y-118451380D01*
X107116666Y-118451380D01*
X107259523Y-118499000D01*
X107307142Y-118546619D01*
X108259523Y-119451380D02*
X107688095Y-119451380D01*
X107973809Y-119451380D02*
X107973809Y-118451380D01*
X107878571Y-118594238D01*
X107783333Y-118689476D01*
X107688095Y-118737095D01*
X108878571Y-118451380D02*
X108973809Y-118451380D01*
X109069047Y-118499000D01*
X109116666Y-118546619D01*
X109164285Y-118641857D01*
X109211904Y-118832333D01*
X109211904Y-119070428D01*
X109164285Y-119260904D01*
X109116666Y-119356142D01*
X109069047Y-119403761D01*
X108973809Y-119451380D01*
X108878571Y-119451380D01*
X108783333Y-119403761D01*
X108735714Y-119356142D01*
X108688095Y-119260904D01*
X108640476Y-119070428D01*
X108640476Y-118832333D01*
X108688095Y-118641857D01*
X108735714Y-118546619D01*
X108783333Y-118499000D01*
X108878571Y-118451380D01*
%TO.C,R9*%
X107529333Y-128468380D02*
X107196000Y-127992190D01*
X106957904Y-128468380D02*
X106957904Y-127468380D01*
X107338857Y-127468380D01*
X107434095Y-127516000D01*
X107481714Y-127563619D01*
X107529333Y-127658857D01*
X107529333Y-127801714D01*
X107481714Y-127896952D01*
X107434095Y-127944571D01*
X107338857Y-127992190D01*
X106957904Y-127992190D01*
X108005523Y-128468380D02*
X108196000Y-128468380D01*
X108291238Y-128420761D01*
X108338857Y-128373142D01*
X108434095Y-128230285D01*
X108481714Y-128039809D01*
X108481714Y-127658857D01*
X108434095Y-127563619D01*
X108386476Y-127516000D01*
X108291238Y-127468380D01*
X108100761Y-127468380D01*
X108005523Y-127516000D01*
X107957904Y-127563619D01*
X107910285Y-127658857D01*
X107910285Y-127896952D01*
X107957904Y-127992190D01*
X108005523Y-128039809D01*
X108100761Y-128087428D01*
X108291238Y-128087428D01*
X108386476Y-128039809D01*
X108434095Y-127992190D01*
X108481714Y-127896952D01*
%TO.C,R10*%
X102608142Y-108402380D02*
X102274809Y-107926190D01*
X102036714Y-108402380D02*
X102036714Y-107402380D01*
X102417666Y-107402380D01*
X102512904Y-107450000D01*
X102560523Y-107497619D01*
X102608142Y-107592857D01*
X102608142Y-107735714D01*
X102560523Y-107830952D01*
X102512904Y-107878571D01*
X102417666Y-107926190D01*
X102036714Y-107926190D01*
X103560523Y-108402380D02*
X102989095Y-108402380D01*
X103274809Y-108402380D02*
X103274809Y-107402380D01*
X103179571Y-107545238D01*
X103084333Y-107640476D01*
X102989095Y-107688095D01*
X104179571Y-107402380D02*
X104274809Y-107402380D01*
X104370047Y-107450000D01*
X104417666Y-107497619D01*
X104465285Y-107592857D01*
X104512904Y-107783333D01*
X104512904Y-108021428D01*
X104465285Y-108211904D01*
X104417666Y-108307142D01*
X104370047Y-108354761D01*
X104274809Y-108402380D01*
X104179571Y-108402380D01*
X104084333Y-108354761D01*
X104036714Y-108307142D01*
X103989095Y-108211904D01*
X103941476Y-108021428D01*
X103941476Y-107783333D01*
X103989095Y-107592857D01*
X104036714Y-107497619D01*
X104084333Y-107450000D01*
X104179571Y-107402380D01*
%TO.C,C11*%
X107307142Y-120880142D02*
X107259523Y-120927761D01*
X107116666Y-120975380D01*
X107021428Y-120975380D01*
X106878571Y-120927761D01*
X106783333Y-120832523D01*
X106735714Y-120737285D01*
X106688095Y-120546809D01*
X106688095Y-120403952D01*
X106735714Y-120213476D01*
X106783333Y-120118238D01*
X106878571Y-120023000D01*
X107021428Y-119975380D01*
X107116666Y-119975380D01*
X107259523Y-120023000D01*
X107307142Y-120070619D01*
X108259523Y-120975380D02*
X107688095Y-120975380D01*
X107973809Y-120975380D02*
X107973809Y-119975380D01*
X107878571Y-120118238D01*
X107783333Y-120213476D01*
X107688095Y-120261095D01*
X109211904Y-120975380D02*
X108640476Y-120975380D01*
X108926190Y-120975380D02*
X108926190Y-119975380D01*
X108830952Y-120118238D01*
X108735714Y-120213476D01*
X108640476Y-120261095D01*
%TO.C,C13*%
X120261142Y-111990142D02*
X120213523Y-112037761D01*
X120070666Y-112085380D01*
X119975428Y-112085380D01*
X119832571Y-112037761D01*
X119737333Y-111942523D01*
X119689714Y-111847285D01*
X119642095Y-111656809D01*
X119642095Y-111513952D01*
X119689714Y-111323476D01*
X119737333Y-111228238D01*
X119832571Y-111133000D01*
X119975428Y-111085380D01*
X120070666Y-111085380D01*
X120213523Y-111133000D01*
X120261142Y-111180619D01*
X121213523Y-112085380D02*
X120642095Y-112085380D01*
X120927809Y-112085380D02*
X120927809Y-111085380D01*
X120832571Y-111228238D01*
X120737333Y-111323476D01*
X120642095Y-111371095D01*
X121546857Y-111085380D02*
X122165904Y-111085380D01*
X121832571Y-111466333D01*
X121975428Y-111466333D01*
X122070666Y-111513952D01*
X122118285Y-111561571D01*
X122165904Y-111656809D01*
X122165904Y-111894904D01*
X122118285Y-111990142D01*
X122070666Y-112037761D01*
X121975428Y-112085380D01*
X121689714Y-112085380D01*
X121594476Y-112037761D01*
X121546857Y-111990142D01*
%TO.C,R2*%
X117123880Y-123102666D02*
X116647690Y-123436000D01*
X117123880Y-123674095D02*
X116123880Y-123674095D01*
X116123880Y-123293142D01*
X116171500Y-123197904D01*
X116219119Y-123150285D01*
X116314357Y-123102666D01*
X116457214Y-123102666D01*
X116552452Y-123150285D01*
X116600071Y-123197904D01*
X116647690Y-123293142D01*
X116647690Y-123674095D01*
X116219119Y-122721714D02*
X116171500Y-122674095D01*
X116123880Y-122578857D01*
X116123880Y-122340761D01*
X116171500Y-122245523D01*
X116219119Y-122197904D01*
X116314357Y-122150285D01*
X116409595Y-122150285D01*
X116552452Y-122197904D01*
X117123880Y-122769333D01*
X117123880Y-122150285D01*
D15*
%TO.C,L5*%
X117074523Y-119972666D02*
X117074523Y-120577428D01*
X115804523Y-120577428D01*
X115804523Y-118944571D02*
X115804523Y-119549333D01*
X116409285Y-119609809D01*
X116348809Y-119549333D01*
X116288333Y-119428380D01*
X116288333Y-119126000D01*
X116348809Y-119005047D01*
X116409285Y-118944571D01*
X116530238Y-118884095D01*
X116832619Y-118884095D01*
X116953571Y-118944571D01*
X117014047Y-119005047D01*
X117074523Y-119126000D01*
X117074523Y-119428380D01*
X117014047Y-119549333D01*
X116953571Y-119609809D01*
D13*
%TO.C,C15*%
X120388142Y-120245142D02*
X120340523Y-120292761D01*
X120197666Y-120340380D01*
X120102428Y-120340380D01*
X119959571Y-120292761D01*
X119864333Y-120197523D01*
X119816714Y-120102285D01*
X119769095Y-119911809D01*
X119769095Y-119768952D01*
X119816714Y-119578476D01*
X119864333Y-119483238D01*
X119959571Y-119388000D01*
X120102428Y-119340380D01*
X120197666Y-119340380D01*
X120340523Y-119388000D01*
X120388142Y-119435619D01*
X121340523Y-120340380D02*
X120769095Y-120340380D01*
X121054809Y-120340380D02*
X121054809Y-119340380D01*
X120959571Y-119483238D01*
X120864333Y-119578476D01*
X120769095Y-119626095D01*
X122245285Y-119340380D02*
X121769095Y-119340380D01*
X121721476Y-119816571D01*
X121769095Y-119768952D01*
X121864333Y-119721333D01*
X122102428Y-119721333D01*
X122197666Y-119768952D01*
X122245285Y-119816571D01*
X122292904Y-119911809D01*
X122292904Y-120149904D01*
X122245285Y-120245142D01*
X122197666Y-120292761D01*
X122102428Y-120340380D01*
X121864333Y-120340380D01*
X121769095Y-120292761D01*
X121721476Y-120245142D01*
%TO.C,BAT1*%
X106862714Y-104830571D02*
X107005571Y-104878190D01*
X107053190Y-104925809D01*
X107100809Y-105021047D01*
X107100809Y-105163904D01*
X107053190Y-105259142D01*
X107005571Y-105306761D01*
X106910333Y-105354380D01*
X106529380Y-105354380D01*
X106529380Y-104354380D01*
X106862714Y-104354380D01*
X106957952Y-104402000D01*
X107005571Y-104449619D01*
X107053190Y-104544857D01*
X107053190Y-104640095D01*
X107005571Y-104735333D01*
X106957952Y-104782952D01*
X106862714Y-104830571D01*
X106529380Y-104830571D01*
X107481761Y-105068666D02*
X107957952Y-105068666D01*
X107386523Y-105354380D02*
X107719857Y-104354380D01*
X108053190Y-105354380D01*
X108243666Y-104354380D02*
X108815095Y-104354380D01*
X108529380Y-105354380D02*
X108529380Y-104354380D01*
X109672238Y-105354380D02*
X109100809Y-105354380D01*
X109386523Y-105354380D02*
X109386523Y-104354380D01*
X109291285Y-104497238D01*
X109196047Y-104592476D01*
X109100809Y-104640095D01*
D15*
%TO.C,L8*%
X117074523Y-107780666D02*
X117074523Y-108385428D01*
X115804523Y-108385428D01*
X116348809Y-107175904D02*
X116288333Y-107296857D01*
X116227857Y-107357333D01*
X116106904Y-107417809D01*
X116046428Y-107417809D01*
X115925476Y-107357333D01*
X115865000Y-107296857D01*
X115804523Y-107175904D01*
X115804523Y-106934000D01*
X115865000Y-106813047D01*
X115925476Y-106752571D01*
X116046428Y-106692095D01*
X116106904Y-106692095D01*
X116227857Y-106752571D01*
X116288333Y-106813047D01*
X116348809Y-106934000D01*
X116348809Y-107175904D01*
X116409285Y-107296857D01*
X116469761Y-107357333D01*
X116590714Y-107417809D01*
X116832619Y-107417809D01*
X116953571Y-107357333D01*
X117014047Y-107296857D01*
X117074523Y-107175904D01*
X117074523Y-106934000D01*
X117014047Y-106813047D01*
X116953571Y-106752571D01*
X116832619Y-106692095D01*
X116590714Y-106692095D01*
X116469761Y-106752571D01*
X116409285Y-106813047D01*
X116348809Y-106934000D01*
D13*
%TO.C,C9*%
X108164333Y-117832142D02*
X108116714Y-117879761D01*
X107973857Y-117927380D01*
X107878619Y-117927380D01*
X107735761Y-117879761D01*
X107640523Y-117784523D01*
X107592904Y-117689285D01*
X107545285Y-117498809D01*
X107545285Y-117355952D01*
X107592904Y-117165476D01*
X107640523Y-117070238D01*
X107735761Y-116975000D01*
X107878619Y-116927380D01*
X107973857Y-116927380D01*
X108116714Y-116975000D01*
X108164333Y-117022619D01*
X108640523Y-117927380D02*
X108831000Y-117927380D01*
X108926238Y-117879761D01*
X108973857Y-117832142D01*
X109069095Y-117689285D01*
X109116714Y-117498809D01*
X109116714Y-117117857D01*
X109069095Y-117022619D01*
X109021476Y-116975000D01*
X108926238Y-116927380D01*
X108735761Y-116927380D01*
X108640523Y-116975000D01*
X108592904Y-117022619D01*
X108545285Y-117117857D01*
X108545285Y-117355952D01*
X108592904Y-117451190D01*
X108640523Y-117498809D01*
X108735761Y-117546428D01*
X108926238Y-117546428D01*
X109021476Y-117498809D01*
X109069095Y-117451190D01*
X109116714Y-117355952D01*
D15*
%TO.C,L6*%
X117074523Y-115908666D02*
X117074523Y-116513428D01*
X115804523Y-116513428D01*
X115804523Y-114941047D02*
X115804523Y-115182952D01*
X115865000Y-115303904D01*
X115925476Y-115364380D01*
X116106904Y-115485333D01*
X116348809Y-115545809D01*
X116832619Y-115545809D01*
X116953571Y-115485333D01*
X117014047Y-115424857D01*
X117074523Y-115303904D01*
X117074523Y-115062000D01*
X117014047Y-114941047D01*
X116953571Y-114880571D01*
X116832619Y-114820095D01*
X116530238Y-114820095D01*
X116409285Y-114880571D01*
X116348809Y-114941047D01*
X116288333Y-115062000D01*
X116288333Y-115303904D01*
X116348809Y-115424857D01*
X116409285Y-115485333D01*
X116530238Y-115545809D01*
D13*
%TO.C,IC2*%
X112913610Y-110865152D02*
X112206503Y-110158045D01*
X113587045Y-110057030D02*
X113587045Y-110124374D01*
X113519702Y-110259061D01*
X113452358Y-110326404D01*
X113317671Y-110393748D01*
X113182984Y-110393748D01*
X113081969Y-110360076D01*
X112913610Y-110259061D01*
X112812595Y-110158045D01*
X112711580Y-109989687D01*
X112677908Y-109888671D01*
X112677908Y-109753984D01*
X112745251Y-109619297D01*
X112812595Y-109551954D01*
X112947282Y-109484610D01*
X113014625Y-109484610D01*
X113284000Y-109215236D02*
X113284000Y-109147893D01*
X113317671Y-109046877D01*
X113486030Y-108878519D01*
X113587045Y-108844847D01*
X113654389Y-108844847D01*
X113755404Y-108878519D01*
X113822748Y-108945862D01*
X113890091Y-109080549D01*
X113890091Y-109888671D01*
X114327824Y-109450938D01*
X111372774Y-114052225D02*
X111541133Y-113883866D01*
X111642148Y-114119568D02*
X111541133Y-113883866D01*
X111305431Y-113782851D01*
X111776835Y-113850194D02*
X111541133Y-113883866D01*
X111574805Y-113648164D01*
%TO.C,C12*%
X120515142Y-107672142D02*
X120467523Y-107719761D01*
X120324666Y-107767380D01*
X120229428Y-107767380D01*
X120086571Y-107719761D01*
X119991333Y-107624523D01*
X119943714Y-107529285D01*
X119896095Y-107338809D01*
X119896095Y-107195952D01*
X119943714Y-107005476D01*
X119991333Y-106910238D01*
X120086571Y-106815000D01*
X120229428Y-106767380D01*
X120324666Y-106767380D01*
X120467523Y-106815000D01*
X120515142Y-106862619D01*
X121467523Y-107767380D02*
X120896095Y-107767380D01*
X121181809Y-107767380D02*
X121181809Y-106767380D01*
X121086571Y-106910238D01*
X120991333Y-107005476D01*
X120896095Y-107053095D01*
X121848476Y-106862619D02*
X121896095Y-106815000D01*
X121991333Y-106767380D01*
X122229428Y-106767380D01*
X122324666Y-106815000D01*
X122372285Y-106862619D01*
X122419904Y-106957857D01*
X122419904Y-107053095D01*
X122372285Y-107195952D01*
X121800857Y-107767380D01*
X122419904Y-107767380D01*
%TO.C,R1*%
X115599880Y-123102666D02*
X115123690Y-123436000D01*
X115599880Y-123674095D02*
X114599880Y-123674095D01*
X114599880Y-123293142D01*
X114647500Y-123197904D01*
X114695119Y-123150285D01*
X114790357Y-123102666D01*
X114933214Y-123102666D01*
X115028452Y-123150285D01*
X115076071Y-123197904D01*
X115123690Y-123293142D01*
X115123690Y-123674095D01*
X115599880Y-122150285D02*
X115599880Y-122721714D01*
X115599880Y-122436000D02*
X114599880Y-122436000D01*
X114742738Y-122531238D01*
X114837976Y-122626476D01*
X114885595Y-122721714D01*
%TO.C,R11*%
X102608142Y-110053380D02*
X102274809Y-109577190D01*
X102036714Y-110053380D02*
X102036714Y-109053380D01*
X102417666Y-109053380D01*
X102512904Y-109101000D01*
X102560523Y-109148619D01*
X102608142Y-109243857D01*
X102608142Y-109386714D01*
X102560523Y-109481952D01*
X102512904Y-109529571D01*
X102417666Y-109577190D01*
X102036714Y-109577190D01*
X103560523Y-110053380D02*
X102989095Y-110053380D01*
X103274809Y-110053380D02*
X103274809Y-109053380D01*
X103179571Y-109196238D01*
X103084333Y-109291476D01*
X102989095Y-109339095D01*
X104512904Y-110053380D02*
X103941476Y-110053380D01*
X104227190Y-110053380D02*
X104227190Y-109053380D01*
X104131952Y-109196238D01*
X104036714Y-109291476D01*
X103941476Y-109339095D01*
%TO.C,C14*%
X120388142Y-116054142D02*
X120340523Y-116101761D01*
X120197666Y-116149380D01*
X120102428Y-116149380D01*
X119959571Y-116101761D01*
X119864333Y-116006523D01*
X119816714Y-115911285D01*
X119769095Y-115720809D01*
X119769095Y-115577952D01*
X119816714Y-115387476D01*
X119864333Y-115292238D01*
X119959571Y-115197000D01*
X120102428Y-115149380D01*
X120197666Y-115149380D01*
X120340523Y-115197000D01*
X120388142Y-115244619D01*
X121340523Y-116149380D02*
X120769095Y-116149380D01*
X121054809Y-116149380D02*
X121054809Y-115149380D01*
X120959571Y-115292238D01*
X120864333Y-115387476D01*
X120769095Y-115435095D01*
X122197666Y-115482714D02*
X122197666Y-116149380D01*
X121959571Y-115101761D02*
X121721476Y-115816047D01*
X122340523Y-115816047D01*
D15*
%TO.C,L7*%
X117074523Y-111844666D02*
X117074523Y-112449428D01*
X115804523Y-112449428D01*
X115804523Y-111542285D02*
X115804523Y-110695619D01*
X117074523Y-111239904D01*
D16*
%TO.C,Y1*%
X111107500Y-124503000D02*
X111107500Y-124503000D01*
X111107500Y-124603000D02*
X111107500Y-124603000D01*
X111107500Y-124503000D02*
X111107500Y-124503000D01*
X111107500Y-124503000D02*
G75*
G03*
X111107500Y-124603000I0J-50000D01*
G01*
X111107500Y-124603000D02*
G75*
G03*
X111107500Y-124503000I0J50000D01*
G01*
X111107500Y-124503000D02*
G75*
G03*
X111107500Y-124603000I0J-50000D01*
G01*
D10*
%TO.C,R5*%
X106044276Y-134478500D02*
X106553724Y-134478500D01*
X106044276Y-135523500D02*
X106553724Y-135523500D01*
%TO.C,R4*%
X104647276Y-129144500D02*
X105156724Y-129144500D01*
X104647276Y-130189500D02*
X105156724Y-130189500D01*
%TO.C,R3*%
X104647276Y-131840500D02*
X105156724Y-131840500D01*
X104647276Y-130795500D02*
X105156724Y-130795500D01*
D16*
%TO.C,L1*%
X115700000Y-144145000D02*
X117300000Y-144145000D01*
%TO.C,L2*%
X115700000Y-139954000D02*
X117300000Y-139954000D01*
%TO.C,L3*%
X115700000Y-135623000D02*
X117300000Y-135623000D01*
%TO.C,L4*%
X115700000Y-131559000D02*
X117300000Y-131559000D01*
D10*
%TO.C,IC1*%
X114694492Y-137941587D02*
X114835913Y-137800166D01*
X111760000Y-140876079D02*
X111901421Y-140734658D01*
X111070572Y-135413681D02*
X111760000Y-134724253D01*
X108684087Y-137800166D02*
X108825508Y-137941587D01*
X108684087Y-137800166D02*
X108825508Y-137658745D01*
X114694492Y-137658745D02*
X114835913Y-137800166D01*
X111618579Y-140734658D02*
X111760000Y-140876079D01*
X111760000Y-134724253D02*
X112449428Y-135413681D01*
%TO.C,C8*%
X118490000Y-144004420D02*
X118490000Y-144285580D01*
X119510000Y-144004420D02*
X119510000Y-144285580D01*
%TO.C,C7*%
X119510000Y-139813420D02*
X119510000Y-140094580D01*
X118490000Y-139813420D02*
X118490000Y-140094580D01*
%TO.C,C6*%
X119510000Y-135495420D02*
X119510000Y-135776580D01*
X118490000Y-135495420D02*
X118490000Y-135776580D01*
%TO.C,C5*%
X119510000Y-131431420D02*
X119510000Y-131712580D01*
X118490000Y-131431420D02*
X118490000Y-131712580D01*
%TO.C,C4*%
X110603420Y-144143000D02*
X110884580Y-144143000D01*
X110603420Y-145163000D02*
X110884580Y-145163000D01*
%TO.C,C3*%
X110603420Y-142619000D02*
X110884580Y-142619000D01*
X110603420Y-143639000D02*
X110884580Y-143639000D01*
%TO.C,C2*%
X110603420Y-141095000D02*
X110884580Y-141095000D01*
X110603420Y-142115000D02*
X110884580Y-142115000D01*
%TO.C,C1*%
X109599000Y-125462420D02*
X109599000Y-125743580D01*
X110619000Y-125462420D02*
X110619000Y-125743580D01*
%TO.C,R6*%
X106553724Y-137174500D02*
X106044276Y-137174500D01*
X106553724Y-136129500D02*
X106044276Y-136129500D01*
%TO.C,R7*%
X106044276Y-112253500D02*
X106553724Y-112253500D01*
X106044276Y-113298500D02*
X106553724Y-113298500D01*
%TO.C,R8*%
X106553724Y-113904500D02*
X106044276Y-113904500D01*
X106553724Y-114949500D02*
X106044276Y-114949500D01*
%TO.C,C10*%
X110730420Y-118489000D02*
X111011580Y-118489000D01*
X110730420Y-119509000D02*
X111011580Y-119509000D01*
%TO.C,R9*%
X104647276Y-128538500D02*
X105156724Y-128538500D01*
X104647276Y-127493500D02*
X105156724Y-127493500D01*
%TO.C,R10*%
X106553724Y-108472500D02*
X106044276Y-108472500D01*
X106553724Y-107427500D02*
X106044276Y-107427500D01*
%TO.C,C11*%
X110730420Y-121033000D02*
X111011580Y-121033000D01*
X110730420Y-120013000D02*
X111011580Y-120013000D01*
%TO.C,C13*%
X118490000Y-111492420D02*
X118490000Y-111773580D01*
X119510000Y-111492420D02*
X119510000Y-111773580D01*
%TO.C,R2*%
X117108500Y-125348276D02*
X117108500Y-125857724D01*
X116063500Y-125348276D02*
X116063500Y-125857724D01*
D16*
%TO.C,L5*%
X115700000Y-119761000D02*
X117300000Y-119761000D01*
D10*
%TO.C,C15*%
X119510000Y-119620420D02*
X119510000Y-119901580D01*
X118490000Y-119620420D02*
X118490000Y-119901580D01*
%TO.C,BAT1*%
X108077000Y-101159000D02*
X110677000Y-101159000D01*
X110677000Y-103819000D02*
X110677000Y-101159000D01*
X108077000Y-103819000D02*
X108077000Y-101159000D01*
X108077000Y-103819000D02*
X110677000Y-103819000D01*
X105477000Y-103819000D02*
X105477000Y-102489000D01*
X106807000Y-103819000D02*
X105477000Y-103819000D01*
D16*
%TO.C,L8*%
X115700000Y-107569000D02*
X117300000Y-107569000D01*
D10*
%TO.C,C9*%
X110730420Y-116965000D02*
X111011580Y-116965000D01*
X110730420Y-117985000D02*
X111011580Y-117985000D01*
D16*
%TO.C,L6*%
X115700000Y-115697000D02*
X117300000Y-115697000D01*
D10*
%TO.C,IC2*%
X111618579Y-116599492D02*
X111760000Y-116740913D01*
X114694492Y-113806421D02*
X114835913Y-113665000D01*
X111070572Y-111278515D02*
X111760000Y-110589087D01*
X114694492Y-113523579D02*
X114835913Y-113665000D01*
X108684087Y-113665000D02*
X108825508Y-113523579D01*
X111760000Y-116740913D02*
X111901421Y-116599492D01*
X108684087Y-113665000D02*
X108825508Y-113806421D01*
X111760000Y-110589087D02*
X112449428Y-111278515D01*
%TO.C,C12*%
X119510000Y-107428420D02*
X119510000Y-107709580D01*
X118490000Y-107428420D02*
X118490000Y-107709580D01*
%TO.C,R1*%
X114539500Y-125857724D02*
X114539500Y-125348276D01*
X115584500Y-125857724D02*
X115584500Y-125348276D01*
%TO.C,test1*%
X107105000Y-145840000D02*
X106045000Y-145840000D01*
X107105000Y-144780000D02*
X107105000Y-145840000D01*
X104985000Y-143780000D02*
X104985000Y-137720000D01*
X107105000Y-137720000D02*
X104985000Y-137720000D01*
X107105000Y-143780000D02*
X107105000Y-137720000D01*
X107105000Y-143780000D02*
X104985000Y-143780000D01*
%TO.C,R11*%
X106553724Y-109078500D02*
X106044276Y-109078500D01*
X106553724Y-110123500D02*
X106044276Y-110123500D01*
%TO.C,C14*%
X118490000Y-115556420D02*
X118490000Y-115837580D01*
X119510000Y-115556420D02*
X119510000Y-115837580D01*
D16*
%TO.C,L7*%
X115700000Y-111633000D02*
X117300000Y-111633000D01*
%TD*%
M02*
