%TF.GenerationSoftware,KiCad,Pcbnew,(6.0.2-0)*%
%TF.CreationDate,2022-06-23T22:24:51+02:00*%
%TF.ProjectId,CapSenseDuo,43617053-656e-4736-9544-756f2e6b6963,rev?*%
%TF.SameCoordinates,Original*%
%TF.FileFunction,Copper,L1,Top*%
%TF.FilePolarity,Positive*%
%FSLAX46Y46*%
G04 Gerber Fmt 4.6, Leading zero omitted, Abs format (unit mm)*
G04 Created by KiCad (PCBNEW (6.0.2-0)) date 2022-06-23 22:24:51*
%MOMM*%
%LPD*%
G01*
G04 APERTURE LIST*
G04 Aperture macros list*
%AMRoundRect*
0 Rectangle with rounded corners*
0 $1 Rounding radius*
0 $2 $3 $4 $5 $6 $7 $8 $9 X,Y pos of 4 corners*
0 Add a 4 corners polygon primitive as box body*
4,1,4,$2,$3,$4,$5,$6,$7,$8,$9,$2,$3,0*
0 Add four circle primitives for the rounded corners*
1,1,$1+$1,$2,$3*
1,1,$1+$1,$4,$5*
1,1,$1+$1,$6,$7*
1,1,$1+$1,$8,$9*
0 Add four rect primitives between the rounded corners*
20,1,$1+$1,$2,$3,$4,$5,0*
20,1,$1+$1,$4,$5,$6,$7,0*
20,1,$1+$1,$6,$7,$8,$9,0*
20,1,$1+$1,$8,$9,$2,$3,0*%
%AMRotRect*
0 Rectangle, with rotation*
0 The origin of the aperture is its center*
0 $1 length*
0 $2 width*
0 $3 Rotation angle, in degrees counterclockwise*
0 Add horizontal line*
21,1,$1,$2,0,0,$3*%
G04 Aperture macros list end*
%ADD10C,0.200000*%
%TA.AperFunction,NonConductor*%
%ADD11C,0.200000*%
%TD*%
%TA.AperFunction,SMDPad,CuDef*%
%ADD12R,0.800000X0.900000*%
%TD*%
%TA.AperFunction,SMDPad,CuDef*%
%ADD13RoundRect,0.237500X-0.250000X-0.237500X0.250000X-0.237500X0.250000X0.237500X-0.250000X0.237500X0*%
%TD*%
%TA.AperFunction,SMDPad,CuDef*%
%ADD14R,2.000000X1.250000*%
%TD*%
%TA.AperFunction,SMDPad,CuDef*%
%ADD15RotRect,0.249999X0.599999X45.000000*%
%TD*%
%TA.AperFunction,SMDPad,CuDef*%
%ADD16RotRect,0.249999X0.599999X315.000000*%
%TD*%
%TA.AperFunction,SMDPad,CuDef*%
%ADD17RotRect,2.600000X2.600000X315.000000*%
%TD*%
%TA.AperFunction,SMDPad,CuDef*%
%ADD18C,0.499999*%
%TD*%
%TA.AperFunction,ComponentPad*%
%ADD19C,2.500000*%
%TD*%
%TA.AperFunction,SMDPad,CuDef*%
%ADD20RoundRect,0.225000X-0.250000X0.225000X-0.250000X-0.225000X0.250000X-0.225000X0.250000X0.225000X0*%
%TD*%
%TA.AperFunction,SMDPad,CuDef*%
%ADD21RoundRect,0.225000X-0.225000X-0.250000X0.225000X-0.250000X0.225000X0.250000X-0.225000X0.250000X0*%
%TD*%
%TA.AperFunction,SMDPad,CuDef*%
%ADD22RoundRect,0.237500X0.250000X0.237500X-0.250000X0.237500X-0.250000X-0.237500X0.250000X-0.237500X0*%
%TD*%
%TA.AperFunction,SMDPad,CuDef*%
%ADD23RoundRect,0.237500X-0.237500X0.250000X-0.237500X-0.250000X0.237500X-0.250000X0.237500X0.250000X0*%
%TD*%
%TA.AperFunction,ComponentPad*%
%ADD24R,1.700000X1.700000*%
%TD*%
%TA.AperFunction,ComponentPad*%
%ADD25O,1.700000X1.700000*%
%TD*%
%TA.AperFunction,ComponentPad*%
%ADD26C,2.400000*%
%TD*%
%TA.AperFunction,SMDPad,CuDef*%
%ADD27RoundRect,0.237500X0.237500X-0.250000X0.237500X0.250000X-0.237500X0.250000X-0.237500X-0.250000X0*%
%TD*%
%TA.AperFunction,ComponentPad*%
%ADD28R,1.350000X1.350000*%
%TD*%
%TA.AperFunction,ComponentPad*%
%ADD29O,1.350000X1.350000*%
%TD*%
%TA.AperFunction,ComponentPad*%
%ADD30C,1.600000*%
%TD*%
%TA.AperFunction,ComponentPad*%
%ADD31C,1.524000*%
%TD*%
%TA.AperFunction,ViaPad*%
%ADD32C,0.800000*%
%TD*%
%TA.AperFunction,Conductor*%
%ADD33C,0.250000*%
%TD*%
%TA.AperFunction,Conductor*%
%ADD34C,0.400000*%
%TD*%
%TA.AperFunction,Conductor*%
%ADD35C,0.500000*%
%TD*%
G04 APERTURE END LIST*
D10*
D11*
X124415809Y-102422857D02*
X124530095Y-102460952D01*
X124568190Y-102499047D01*
X124606285Y-102575238D01*
X124606285Y-102689523D01*
X124568190Y-102765714D01*
X124530095Y-102803809D01*
X124453904Y-102841904D01*
X124149142Y-102841904D01*
X124149142Y-102041904D01*
X124415809Y-102041904D01*
X124492000Y-102080000D01*
X124530095Y-102118095D01*
X124568190Y-102194285D01*
X124568190Y-102270476D01*
X124530095Y-102346666D01*
X124492000Y-102384761D01*
X124415809Y-102422857D01*
X124149142Y-102422857D01*
X125063428Y-102841904D02*
X124987238Y-102803809D01*
X124949142Y-102765714D01*
X124911047Y-102689523D01*
X124911047Y-102460952D01*
X124949142Y-102384761D01*
X124987238Y-102346666D01*
X125063428Y-102308571D01*
X125177714Y-102308571D01*
X125253904Y-102346666D01*
X125292000Y-102384761D01*
X125330095Y-102460952D01*
X125330095Y-102689523D01*
X125292000Y-102765714D01*
X125253904Y-102803809D01*
X125177714Y-102841904D01*
X125063428Y-102841904D01*
X126206285Y-102041904D02*
X126739619Y-102041904D01*
X126206285Y-102841904D01*
X126739619Y-102841904D01*
X127044380Y-102841904D02*
X127044380Y-102041904D01*
X127387238Y-102841904D02*
X127387238Y-102422857D01*
X127349142Y-102346666D01*
X127272952Y-102308571D01*
X127158666Y-102308571D01*
X127082476Y-102346666D01*
X127044380Y-102384761D01*
X127882476Y-102841904D02*
X127806285Y-102803809D01*
X127768190Y-102765714D01*
X127730095Y-102689523D01*
X127730095Y-102460952D01*
X127768190Y-102384761D01*
X127806285Y-102346666D01*
X127882476Y-102308571D01*
X127996761Y-102308571D01*
X128072952Y-102346666D01*
X128111047Y-102384761D01*
X128149142Y-102460952D01*
X128149142Y-102689523D01*
X128111047Y-102765714D01*
X128072952Y-102803809D01*
X127996761Y-102841904D01*
X127882476Y-102841904D01*
X128834857Y-102308571D02*
X128834857Y-102841904D01*
X128492000Y-102308571D02*
X128492000Y-102727619D01*
X128530095Y-102803809D01*
X128606285Y-102841904D01*
X128720571Y-102841904D01*
X128796761Y-102803809D01*
X128834857Y-102765714D01*
X124301523Y-104129904D02*
X124301523Y-103329904D01*
X124492000Y-103329904D01*
X124606285Y-103368000D01*
X124682476Y-103444190D01*
X124720571Y-103520380D01*
X124758666Y-103672761D01*
X124758666Y-103787047D01*
X124720571Y-103939428D01*
X124682476Y-104015619D01*
X124606285Y-104091809D01*
X124492000Y-104129904D01*
X124301523Y-104129904D01*
X125368190Y-103710857D02*
X125101523Y-103710857D01*
X125101523Y-104129904D02*
X125101523Y-103329904D01*
X125482476Y-103329904D01*
X125787238Y-104129904D02*
X125787238Y-103329904D01*
X126244380Y-104129904D02*
X125901523Y-103672761D01*
X126244380Y-103329904D02*
X125787238Y-103787047D01*
X126587238Y-104129904D02*
X126587238Y-103329904D01*
X126968190Y-103825142D02*
X127577714Y-103825142D01*
X127958666Y-103710857D02*
X128225333Y-103710857D01*
X128339619Y-104129904D02*
X127958666Y-104129904D01*
X127958666Y-103329904D01*
X128339619Y-103329904D01*
X128682476Y-104129904D02*
X128682476Y-103329904D01*
D12*
%TO.P,Y1,1,TRI-STATE*%
%TO.N,unconnected-(Y1-Pad1)*%
X111882500Y-124678000D03*
%TO.P,Y1,2,GROUND*%
%TO.N,GND*%
X111882500Y-126528000D03*
%TO.P,Y1,3,OUTPUT*%
%TO.N,Net-(R1-Pad1)*%
X113332500Y-126528000D03*
%TO.P,Y1,4,VDD*%
%TO.N,+3V3*%
X113332500Y-124678000D03*
%TD*%
D13*
%TO.P,R5,1*%
%TO.N,+3V3*%
X105386500Y-135001000D03*
%TO.P,R5,2*%
%TO.N,ADDR1*%
X107211500Y-135001000D03*
%TD*%
%TO.P,R4,1*%
%TO.N,+3V3*%
X103989500Y-129667000D03*
%TO.P,R4,2*%
%TO.N,SCL*%
X105814500Y-129667000D03*
%TD*%
%TO.P,R3,1*%
%TO.N,+3V3*%
X103989500Y-131318000D03*
%TO.P,R3,2*%
%TO.N,SDA*%
X105814500Y-131318000D03*
%TD*%
D14*
%TO.P,L1,1*%
%TO.N,IN0A*%
X116500000Y-144995000D03*
%TO.P,L1,2*%
%TO.N,IN0B*%
X116500000Y-143295000D03*
%TD*%
%TO.P,L2,1*%
%TO.N,IN1A*%
X116500000Y-140804000D03*
%TO.P,L2,2*%
%TO.N,IN1B*%
X116500000Y-139104000D03*
%TD*%
%TO.P,L3,1*%
%TO.N,IN2A*%
X116500000Y-136473000D03*
%TO.P,L3,2*%
%TO.N,IN2B*%
X116500000Y-134773000D03*
%TD*%
%TO.P,L4,1*%
%TO.N,IN3A*%
X116500000Y-132409000D03*
%TO.P,L4,2*%
%TO.N,IN3B*%
X116500000Y-130709000D03*
%TD*%
D15*
%TO.P,IC1,1,SCL*%
%TO.N,SCL*%
X110946829Y-135926333D03*
%TO.P,IC1,2,SDA*%
%TO.N,SDA*%
X110593276Y-136279886D03*
%TO.P,IC1,3,CLKIN*%
%TO.N,clk*%
X110239721Y-136633441D03*
%TO.P,IC1,4,ADDR*%
%TO.N,ADDR1*%
X109886169Y-136986992D03*
D16*
%TO.P,IC1,5,INTB*%
%TO.N,INTB1*%
X109886169Y-138613340D03*
%TO.P,IC1,6,SD*%
%TO.N,SD*%
X110239721Y-138966891D03*
%TO.P,IC1,7,VDD*%
%TO.N,+3V3*%
X110593276Y-139320446D03*
%TO.P,IC1,8,GND*%
%TO.N,GND*%
X110946829Y-139673999D03*
D15*
%TO.P,IC1,9,IN0A*%
%TO.N,IN0A*%
X112573175Y-139673998D03*
%TO.P,IC1,10,IN0B*%
%TO.N,IN0B*%
X112926727Y-139320446D03*
%TO.P,IC1,11,IN1A*%
%TO.N,IN1A*%
X113280282Y-138966891D03*
%TO.P,IC1,12,IN1B*%
%TO.N,IN1B*%
X113633834Y-138613339D03*
D16*
%TO.P,IC1,13,IN2A*%
%TO.N,IN2A*%
X113633834Y-136986993D03*
%TO.P,IC1,14,IN2B*%
%TO.N,IN2B*%
X113280282Y-136633441D03*
%TO.P,IC1,15,IN3A*%
%TO.N,IN3A*%
X112926727Y-136279886D03*
%TO.P,IC1,16,IN3B*%
%TO.N,IN3B*%
X112573175Y-135926334D03*
D17*
%TO.P,IC1,17,DAP*%
%TO.N,GND*%
X111760002Y-137800164D03*
D18*
%TO.P,IC1,V*%
X111017538Y-138542628D03*
X112502462Y-137057704D03*
D19*
X111760002Y-137800164D03*
D18*
X111017540Y-137057702D03*
X112502464Y-138542626D03*
%TD*%
D20*
%TO.P,C8,1*%
%TO.N,IN0B*%
X119000000Y-143370000D03*
%TO.P,C8,2*%
%TO.N,IN0A*%
X119000000Y-144920000D03*
%TD*%
%TO.P,C7,1*%
%TO.N,IN1B*%
X119000000Y-139179000D03*
%TO.P,C7,2*%
%TO.N,IN1A*%
X119000000Y-140729000D03*
%TD*%
%TO.P,C6,1*%
%TO.N,IN2B*%
X119000000Y-134861000D03*
%TO.P,C6,2*%
%TO.N,IN2A*%
X119000000Y-136411000D03*
%TD*%
%TO.P,C5,1*%
%TO.N,IN3B*%
X119000000Y-130797000D03*
%TO.P,C5,2*%
%TO.N,IN3A*%
X119000000Y-132347000D03*
%TD*%
D21*
%TO.P,C4,1*%
%TO.N,+3V3*%
X109969000Y-144653000D03*
%TO.P,C4,2*%
%TO.N,GND*%
X111519000Y-144653000D03*
%TD*%
%TO.P,C3,1*%
%TO.N,+3V3*%
X109969000Y-143129000D03*
%TO.P,C3,2*%
%TO.N,GND*%
X111519000Y-143129000D03*
%TD*%
%TO.P,C2,1*%
%TO.N,+3V3*%
X109969000Y-141605000D03*
%TO.P,C2,2*%
%TO.N,GND*%
X111519000Y-141605000D03*
%TD*%
D20*
%TO.P,C1,1*%
%TO.N,+3V3*%
X110109000Y-124828000D03*
%TO.P,C1,2*%
%TO.N,GND*%
X110109000Y-126378000D03*
%TD*%
D22*
%TO.P,R6,1*%
%TO.N,ADDR1*%
X107211500Y-136652000D03*
%TO.P,R6,2*%
%TO.N,GND*%
X105386500Y-136652000D03*
%TD*%
D13*
%TO.P,R7,1*%
%TO.N,+3V3*%
X105386500Y-112776000D03*
%TO.P,R7,2*%
%TO.N,ADDR2*%
X107211500Y-112776000D03*
%TD*%
D22*
%TO.P,R8,1*%
%TO.N,ADDR2*%
X107211500Y-114427000D03*
%TO.P,R8,2*%
%TO.N,GND*%
X105386500Y-114427000D03*
%TD*%
D21*
%TO.P,C10,1*%
%TO.N,+3V3*%
X110096000Y-118999000D03*
%TO.P,C10,2*%
%TO.N,GND*%
X111646000Y-118999000D03*
%TD*%
D13*
%TO.P,R9,1*%
%TO.N,SD*%
X103989500Y-128016000D03*
%TO.P,R9,2*%
%TO.N,GND*%
X105814500Y-128016000D03*
%TD*%
D22*
%TO.P,R10,1*%
%TO.N,SCL2*%
X107211500Y-107950000D03*
%TO.P,R10,2*%
%TO.N,SCL*%
X105386500Y-107950000D03*
%TD*%
D21*
%TO.P,C11,1*%
%TO.N,+3V3*%
X110096000Y-120523000D03*
%TO.P,C11,2*%
%TO.N,GND*%
X111646000Y-120523000D03*
%TD*%
D20*
%TO.P,C13,1*%
%TO.N,IN6B*%
X119000000Y-110858000D03*
%TO.P,C13,2*%
%TO.N,IN6A*%
X119000000Y-112408000D03*
%TD*%
D23*
%TO.P,R2,1*%
%TO.N,clk*%
X116586000Y-124690500D03*
%TO.P,R2,2*%
%TO.N,GND*%
X116586000Y-126515500D03*
%TD*%
D14*
%TO.P,L5,1*%
%TO.N,IN4A*%
X116500000Y-120611000D03*
%TO.P,L5,2*%
%TO.N,IN4B*%
X116500000Y-118911000D03*
%TD*%
D20*
%TO.P,C15,1*%
%TO.N,IN4B*%
X119000000Y-118986000D03*
%TO.P,C15,2*%
%TO.N,IN4A*%
X119000000Y-120536000D03*
%TD*%
D24*
%TO.P,BAT1,1,Pin_1*%
%TO.N,VBAT*%
X106807000Y-102489000D03*
D25*
%TO.P,BAT1,2,Pin_2*%
%TO.N,GND*%
X109347000Y-102489000D03*
%TD*%
D14*
%TO.P,L8,1*%
%TO.N,IN7A*%
X116500000Y-108419000D03*
%TO.P,L8,2*%
%TO.N,IN7B*%
X116500000Y-106719000D03*
%TD*%
D21*
%TO.P,C9,1*%
%TO.N,+3V3*%
X110096000Y-117475000D03*
%TO.P,C9,2*%
%TO.N,GND*%
X111646000Y-117475000D03*
%TD*%
D14*
%TO.P,L6,1*%
%TO.N,IN5A*%
X116500000Y-116547000D03*
%TO.P,L6,2*%
%TO.N,IN5B*%
X116500000Y-114847000D03*
%TD*%
D15*
%TO.P,IC2,1,SCL*%
%TO.N,SCL2*%
X110946829Y-111791167D03*
%TO.P,IC2,2,SDA*%
%TO.N,SDA2*%
X110593276Y-112144720D03*
%TO.P,IC2,3,CLKIN*%
%TO.N,clk*%
X110239721Y-112498275D03*
%TO.P,IC2,4,ADDR*%
%TO.N,ADDR2*%
X109886169Y-112851826D03*
D16*
%TO.P,IC2,5,INTB*%
%TO.N,INTB2*%
X109886169Y-114478174D03*
%TO.P,IC2,6,SD*%
%TO.N,SD*%
X110239721Y-114831725D03*
%TO.P,IC2,7,VDD*%
%TO.N,+3V3*%
X110593276Y-115185280D03*
%TO.P,IC2,8,GND*%
%TO.N,GND*%
X110946829Y-115538833D03*
D15*
%TO.P,IC2,9,IN0A*%
%TO.N,IN4A*%
X112573175Y-115538832D03*
%TO.P,IC2,10,IN0B*%
%TO.N,IN4B*%
X112926727Y-115185280D03*
%TO.P,IC2,11,IN1A*%
%TO.N,IN5A*%
X113280282Y-114831725D03*
%TO.P,IC2,12,IN1B*%
%TO.N,IN5B*%
X113633834Y-114478173D03*
D16*
%TO.P,IC2,13,IN2A*%
%TO.N,IN6A*%
X113633834Y-112851827D03*
%TO.P,IC2,14,IN2B*%
%TO.N,IN6B*%
X113280282Y-112498275D03*
%TO.P,IC2,15,IN3A*%
%TO.N,IN7A*%
X112926727Y-112144720D03*
%TO.P,IC2,16,IN3B*%
%TO.N,IN7B*%
X112573175Y-111791168D03*
D17*
%TO.P,IC2,17,DAP*%
%TO.N,GND*%
X111760002Y-113664998D03*
D18*
%TO.P,IC2,V*%
X112502462Y-112922538D03*
D26*
X111760002Y-113664998D03*
D18*
X111017540Y-112922536D03*
X111017538Y-114407462D03*
X112502464Y-114407460D03*
%TD*%
D20*
%TO.P,C12,1*%
%TO.N,IN7B*%
X119000000Y-106794000D03*
%TO.P,C12,2*%
%TO.N,IN7A*%
X119000000Y-108344000D03*
%TD*%
D27*
%TO.P,R1,1*%
%TO.N,Net-(R1-Pad1)*%
X115062000Y-126515500D03*
%TO.P,R1,2*%
%TO.N,clk*%
X115062000Y-124690500D03*
%TD*%
D28*
%TO.P,test1,1,Pin_1*%
%TO.N,+3V3*%
X106045000Y-144780000D03*
D29*
%TO.P,test1,2,Pin_2*%
%TO.N,SDA*%
X106045000Y-142780000D03*
%TO.P,test1,3,Pin_3*%
%TO.N,SCL*%
X106045000Y-140780000D03*
%TO.P,test1,4,Pin_4*%
%TO.N,GND*%
X106045000Y-138780000D03*
%TD*%
D22*
%TO.P,R11,1*%
%TO.N,SDA2*%
X107211500Y-109601000D03*
%TO.P,R11,2*%
%TO.N,SDA*%
X105386500Y-109601000D03*
%TD*%
D20*
%TO.P,C14,1*%
%TO.N,IN5B*%
X119000000Y-114922000D03*
%TO.P,C14,2*%
%TO.N,IN5A*%
X119000000Y-116472000D03*
%TD*%
D14*
%TO.P,L7,1*%
%TO.N,IN6A*%
X116500000Y-112483000D03*
%TO.P,L7,2*%
%TO.N,IN6B*%
X116500000Y-110783000D03*
%TD*%
D24*
%TO.P,J3,1,Pin_1*%
%TO.N,GND*%
X126049000Y-144135000D03*
D25*
%TO.P,J3,2,Pin_2*%
X128589000Y-144135000D03*
%TD*%
D24*
%TO.P,J2,1,Pin_1*%
%TO.N,IN4A*%
X126049000Y-117465000D03*
D25*
%TO.P,J2,2,Pin_2*%
%TO.N,IN4B*%
X128589000Y-117465000D03*
%TO.P,J2,3,Pin_3*%
%TO.N,IN5A*%
X126049000Y-114925000D03*
%TO.P,J2,4,Pin_4*%
%TO.N,IN5B*%
X128589000Y-114925000D03*
%TO.P,J2,5,Pin_5*%
%TO.N,IN6A*%
X126049000Y-112385000D03*
%TO.P,J2,6,Pin_6*%
%TO.N,IN6B*%
X128589000Y-112385000D03*
%TO.P,J2,7,Pin_7*%
%TO.N,IN7A*%
X126049000Y-109845000D03*
%TO.P,J2,8,Pin_8*%
%TO.N,IN7B*%
X128589000Y-109845000D03*
%TD*%
D24*
%TO.P,J1,1,Pin_1*%
%TO.N,IN0A*%
X126049000Y-141595000D03*
D25*
%TO.P,J1,2,Pin_2*%
%TO.N,IN0B*%
X128589000Y-141595000D03*
%TO.P,J1,3,Pin_3*%
%TO.N,IN1A*%
X126049000Y-139055000D03*
%TO.P,J1,4,Pin_4*%
%TO.N,IN1B*%
X128589000Y-139055000D03*
%TO.P,J1,5,Pin_5*%
%TO.N,IN2A*%
X126049000Y-136515000D03*
%TO.P,J1,6,Pin_6*%
%TO.N,IN2B*%
X128589000Y-136515000D03*
%TO.P,J1,7,Pin_7*%
%TO.N,IN3A*%
X126049000Y-133975000D03*
%TO.P,J1,8,Pin_8*%
%TO.N,IN3B*%
X128589000Y-133975000D03*
%TD*%
D30*
%TO.P,A1,2,3V3*%
%TO.N,+3V3*%
X121779797Y-108960834D03*
%TO.P,A1,4,GND*%
%TO.N,GND*%
X121779797Y-114040834D03*
%TO.P,A1,17,SDA*%
%TO.N,SDA*%
X101459797Y-144520834D03*
%TO.P,A1,18,SCL*%
%TO.N,SCL*%
X101459797Y-141980834D03*
%TO.P,A1,19,D0*%
%TO.N,ADDR1*%
X101459797Y-139440834D03*
%TO.P,A1,20,D1*%
%TO.N,ADDR2*%
X101459797Y-136900834D03*
%TO.P,A1,21,D2*%
%TO.N,SD*%
X101459797Y-134360834D03*
%TO.P,A1,22,D3*%
%TO.N,unconnected-(A1-Pad22)*%
X101459797Y-131820834D03*
%TO.P,A1,23,D4*%
%TO.N,unconnected-(A1-Pad23)*%
X101459797Y-129280834D03*
%TO.P,A1,24,D5*%
%TO.N,unconnected-(A1-Pad24)*%
X101459797Y-126740834D03*
%TO.P,A1,25,D6*%
%TO.N,unconnected-(A1-Pad25)*%
X101459797Y-124200834D03*
%TO.P,A1,26,USB*%
%TO.N,unconnected-(A1-Pad26)*%
X101459797Y-121660834D03*
%TO.P,A1,27,EN*%
%TO.N,Net-(A1-Pad27)*%
X101459797Y-119120834D03*
%TO.P,A1,28,VBAT*%
%TO.N,VBAT*%
X101459797Y-116580834D03*
%TD*%
D31*
%TO.P,SW1,1,A*%
%TO.N,unconnected-(SW1-Pad1)*%
X124746000Y-127853000D03*
%TO.P,SW1,2,B*%
%TO.N,Net-(A1-Pad27)*%
X126746000Y-127853000D03*
%TO.P,SW1,3,C*%
%TO.N,GND*%
X128746000Y-127853000D03*
%TO.P,SW1,4,A*%
%TO.N,unconnected-(SW1-Pad4)*%
X124746000Y-123353000D03*
%TO.P,SW1,5,B*%
%TO.N,unconnected-(SW1-Pad5)*%
X126746000Y-123353000D03*
%TO.P,SW1,6,C*%
%TO.N,unconnected-(SW1-Pad6)*%
X128746000Y-123353000D03*
%TD*%
D32*
%TO.N,GND*%
X111646000Y-118986000D03*
%TO.N,+3V3*%
X105410000Y-135001000D03*
X110096000Y-117475000D03*
X113411000Y-124587000D03*
X110109000Y-124828000D03*
X105664000Y-112776000D03*
X109969000Y-141605000D03*
%TO.N,SCL*%
X105359200Y-107950000D03*
X105814500Y-129667000D03*
%TO.N,SDA*%
X105410000Y-109626400D03*
X105814500Y-131318000D03*
%TO.N,ADDR2*%
X103632000Y-125984000D03*
%TO.N,clk*%
X109067600Y-111797500D03*
X115062000Y-124714000D03*
X108712000Y-135128000D03*
%TO.N,Net-(A1-Pad27)*%
X105664000Y-123444000D03*
X108966000Y-128016000D03*
%TO.N,SD*%
X106273600Y-134112000D03*
X108458000Y-137718800D03*
%TD*%
D33*
%TO.N,GND*%
X105386500Y-138121500D02*
X106045000Y-138780000D01*
D34*
X111646000Y-120523000D02*
X111646000Y-118986000D01*
D33*
X110693200Y-116522200D02*
X111646000Y-117475000D01*
X111760002Y-114725660D02*
X111760002Y-114239508D01*
X110063629Y-113664998D02*
X108712000Y-113664998D01*
X110946829Y-139673999D02*
X111760002Y-138860826D01*
X111760002Y-138860826D02*
X111760002Y-138374674D01*
X110946829Y-139673999D02*
X110693200Y-139927628D01*
D34*
X111646000Y-118986000D02*
X111646000Y-117475000D01*
D33*
X111760002Y-137800164D02*
X111760002Y-134112002D01*
D34*
X111646000Y-117475000D02*
X111760002Y-117360998D01*
D33*
X110946829Y-115538833D02*
X111760002Y-114725660D01*
X110946829Y-115538833D02*
X110693200Y-115792462D01*
X110693200Y-139927628D02*
X110693200Y-140779200D01*
X110693200Y-115792462D02*
X110693200Y-116522200D01*
X111760002Y-134112002D02*
X111760000Y-134112000D01*
X105386500Y-136652000D02*
X105386500Y-138121500D01*
X111760000Y-113665000D02*
X111760002Y-113664998D01*
X111760002Y-113664998D02*
X111760002Y-109728002D01*
X110693200Y-140779200D02*
X111519000Y-141605000D01*
%TO.N,+3V3*%
X109969000Y-139944722D02*
X110593276Y-139320446D01*
X103989500Y-131318000D02*
X103989500Y-129667000D01*
X109969000Y-141605000D02*
X109969000Y-144653000D01*
X110096000Y-115682556D02*
X110593276Y-115185280D01*
X103989500Y-129667000D02*
X104952800Y-128703700D01*
X104952800Y-128703700D02*
X104952800Y-127595384D01*
X110096000Y-117475000D02*
X110096000Y-115682556D01*
X109969000Y-141605000D02*
X109969000Y-139944722D01*
X104952800Y-127595384D02*
X107720184Y-124828000D01*
X110096000Y-117475000D02*
X110096000Y-120523000D01*
X107720184Y-124828000D02*
X110109000Y-124828000D01*
%TO.N,IN3B*%
X128589000Y-133975000D02*
X125411000Y-130797000D01*
X113665000Y-132969978D02*
X115925978Y-130709000D01*
X118912000Y-130709000D02*
X116500000Y-130709000D01*
X113665000Y-134834509D02*
X113665000Y-132969978D01*
X112573175Y-135926334D02*
X113665000Y-134834509D01*
X125411000Y-130797000D02*
X119000000Y-130797000D01*
X115925978Y-130709000D02*
X116500000Y-130709000D01*
X119000000Y-130797000D02*
X118912000Y-130709000D01*
%TO.N,IN3A*%
X124662000Y-132588000D02*
X119241000Y-132588000D01*
X119241000Y-132588000D02*
X119000000Y-132347000D01*
X112926727Y-136279886D02*
X114427000Y-134779613D01*
X118938000Y-132409000D02*
X116500000Y-132409000D01*
X126049000Y-133975000D02*
X124662000Y-132588000D01*
X119000000Y-132347000D02*
X118938000Y-132409000D01*
X115749000Y-132409000D02*
X116500000Y-132409000D01*
X114427000Y-134779613D02*
X114427000Y-133731000D01*
X114427000Y-133731000D02*
X115749000Y-132409000D01*
%TO.N,IN2A*%
X118938000Y-136473000D02*
X116500000Y-136473000D01*
X125424000Y-135890000D02*
X120523000Y-135890000D01*
X113633834Y-136986993D02*
X114147827Y-136473000D01*
X126049000Y-136515000D02*
X125424000Y-135890000D01*
X120002000Y-136411000D02*
X119000000Y-136411000D01*
X114147827Y-136473000D02*
X116500000Y-136473000D01*
X120523000Y-135890000D02*
X120002000Y-136411000D01*
X119000000Y-136411000D02*
X118938000Y-136473000D01*
%TO.N,IN2B*%
X115140723Y-134773000D02*
X116500000Y-134773000D01*
X113280282Y-136633441D02*
X115140723Y-134773000D01*
X127414489Y-135340489D02*
X120481489Y-135340489D01*
X118912000Y-134773000D02*
X116500000Y-134773000D01*
X120002000Y-134861000D02*
X119000000Y-134861000D01*
X119000000Y-134861000D02*
X118912000Y-134773000D01*
X128589000Y-136515000D02*
X127414489Y-135340489D01*
X120481489Y-135340489D02*
X120002000Y-134861000D01*
%TO.N,IN1B*%
X125562501Y-137880489D02*
X127414489Y-137880489D01*
X114124495Y-139104000D02*
X116500000Y-139104000D01*
X113633834Y-138613339D02*
X114124495Y-139104000D01*
X124837510Y-138605480D02*
X125562501Y-137880489D01*
X119573520Y-138605480D02*
X124837510Y-138605480D01*
X118925000Y-139104000D02*
X116500000Y-139104000D01*
X119000000Y-139179000D02*
X119573520Y-138605480D01*
X127414489Y-137880489D02*
X128589000Y-139055000D01*
X119000000Y-139179000D02*
X118925000Y-139104000D01*
%TO.N,IN1A*%
X118925000Y-140804000D02*
X116500000Y-140804000D01*
X120674000Y-139055000D02*
X126049000Y-139055000D01*
X115117391Y-140804000D02*
X116500000Y-140804000D01*
X113280282Y-138966891D02*
X115117391Y-140804000D01*
X119000000Y-140729000D02*
X118925000Y-140804000D01*
X119000000Y-140729000D02*
X120674000Y-139055000D01*
%TO.N,IN0A*%
X113665000Y-140765823D02*
X113665000Y-143002000D01*
X113665000Y-143002000D02*
X115658000Y-144995000D01*
X118925000Y-144995000D02*
X116500000Y-144995000D01*
X122325000Y-141595000D02*
X126049000Y-141595000D01*
X115658000Y-144995000D02*
X116500000Y-144995000D01*
X119000000Y-144920000D02*
X122325000Y-141595000D01*
X119000000Y-144920000D02*
X118925000Y-144995000D01*
X112573175Y-139673998D02*
X113665000Y-140765823D01*
%TO.N,IN0B*%
X127414489Y-140420489D02*
X128589000Y-141595000D01*
X114114520Y-142181520D02*
X115228000Y-143295000D01*
X118925000Y-143295000D02*
X116500000Y-143295000D01*
X119000000Y-143370000D02*
X121949511Y-140420489D01*
X115228000Y-143295000D02*
X116500000Y-143295000D01*
X112926727Y-139320446D02*
X114114520Y-140508239D01*
X121949511Y-140420489D02*
X127414489Y-140420489D01*
X114114520Y-140508239D02*
X114114520Y-142181520D01*
X119000000Y-143370000D02*
X118925000Y-143295000D01*
%TO.N,SCL*%
X109923520Y-133776020D02*
X105814500Y-129667000D01*
X104844166Y-141980834D02*
X106045000Y-140780000D01*
X101459797Y-141980834D02*
X104844166Y-141980834D01*
X110946829Y-135926333D02*
X109923520Y-134903024D01*
X109923520Y-134903024D02*
X109923520Y-133776020D01*
%TO.N,SDA*%
X110593276Y-136279886D02*
X109474000Y-135160610D01*
X105926614Y-131318000D02*
X105814500Y-131318000D01*
X104304166Y-144520834D02*
X106045000Y-142780000D01*
X109474000Y-134865386D02*
X105926614Y-131318000D01*
X109474000Y-135160610D02*
X109474000Y-134865386D01*
X101459797Y-144520834D02*
X104304166Y-144520834D01*
%TO.N,ADDR2*%
X104648000Y-125984000D02*
X107211500Y-123420500D01*
X107465500Y-112522000D02*
X107211500Y-112776000D01*
X107211500Y-114427000D02*
X107211500Y-112776000D01*
X107211500Y-123420500D02*
X107211500Y-114427000D01*
X109556343Y-112522000D02*
X107465500Y-112522000D01*
X109886169Y-112851826D02*
X109556343Y-112522000D01*
X103632000Y-125984000D02*
X104648000Y-125984000D01*
%TO.N,clk*%
X115062000Y-124714000D02*
X115085500Y-124690500D01*
X110239721Y-136633441D02*
X108734280Y-135128000D01*
X109538946Y-111797500D02*
X110239721Y-112498275D01*
X109067600Y-111797500D02*
X109538946Y-111797500D01*
X108734280Y-135128000D02*
X108712000Y-135128000D01*
X115085500Y-124690500D02*
X116332000Y-124690500D01*
%TO.N,ADDR1*%
X104903704Y-135852480D02*
X101459797Y-139296387D01*
X109886169Y-136986992D02*
X109551177Y-136652000D01*
X107211500Y-135913500D02*
X107150480Y-135852480D01*
X101459797Y-139296387D02*
X101459797Y-139440834D01*
X107211500Y-135001000D02*
X107211500Y-136652000D01*
X107211500Y-136652000D02*
X107211500Y-135913500D01*
X107150480Y-135852480D02*
X104903704Y-135852480D01*
X109551177Y-136652000D02*
X107211500Y-136652000D01*
%TO.N,IN7B*%
X113919000Y-110445343D02*
X113919000Y-108204000D01*
X112573175Y-111791168D02*
X113919000Y-110445343D01*
X118925000Y-106719000D02*
X116500000Y-106719000D01*
X119000000Y-106794000D02*
X118925000Y-106719000D01*
X113919000Y-108204000D02*
X115404000Y-106719000D01*
X115404000Y-106719000D02*
X116500000Y-106719000D01*
X119000000Y-106794000D02*
X125538000Y-106794000D01*
X125538000Y-106794000D02*
X128589000Y-109845000D01*
%TO.N,IN7A*%
X112926727Y-112144720D02*
X116500000Y-108571447D01*
X119000000Y-108344000D02*
X118925000Y-108419000D01*
X118925000Y-108419000D02*
X116500000Y-108419000D01*
X124040323Y-107836323D02*
X126049000Y-109845000D01*
X119000000Y-108344000D02*
X119507677Y-107836323D01*
X119507677Y-107836323D02*
X124040323Y-107836323D01*
X116500000Y-108571447D02*
X116500000Y-108419000D01*
%TO.N,IN6B*%
X113280282Y-112498275D02*
X114995557Y-110783000D01*
X119000000Y-110858000D02*
X119579480Y-111437480D01*
X125562501Y-111210489D02*
X127414489Y-111210489D01*
X114995557Y-110783000D02*
X116500000Y-110783000D01*
X125335510Y-111437480D02*
X125562501Y-111210489D01*
X119579480Y-111437480D02*
X125335510Y-111437480D01*
X119000000Y-110858000D02*
X118925000Y-110783000D01*
X118925000Y-110783000D02*
X116500000Y-110783000D01*
X127414489Y-111210489D02*
X128589000Y-112385000D01*
%TO.N,IN6A*%
X113633834Y-112851827D02*
X114002661Y-112483000D01*
X119000000Y-112408000D02*
X118925000Y-112483000D01*
X114002661Y-112483000D02*
X116500000Y-112483000D01*
X119000000Y-112408000D02*
X119521000Y-111887000D01*
X118925000Y-112483000D02*
X116500000Y-112483000D01*
X119521000Y-111887000D02*
X125551000Y-111887000D01*
X125551000Y-111887000D02*
X126049000Y-112385000D01*
%TO.N,IN5B*%
X127414489Y-113750489D02*
X128589000Y-114925000D01*
X113633834Y-114478173D02*
X114002661Y-114847000D01*
X124147645Y-115165345D02*
X125562501Y-113750489D01*
X119000000Y-114922000D02*
X119243345Y-115165345D01*
X114002661Y-114847000D02*
X116500000Y-114847000D01*
X125562501Y-113750489D02*
X127414489Y-113750489D01*
X119243345Y-115165345D02*
X124147645Y-115165345D01*
X118925000Y-114847000D02*
X116500000Y-114847000D01*
X119000000Y-114922000D02*
X118925000Y-114847000D01*
%TO.N,IN5A*%
X118925000Y-116547000D02*
X116500000Y-116547000D01*
X119000000Y-116472000D02*
X119000000Y-116174138D01*
X119559273Y-115614865D02*
X125359135Y-115614865D01*
X114995557Y-116547000D02*
X116500000Y-116547000D01*
X125359135Y-115614865D02*
X126049000Y-114925000D01*
X119000000Y-116174138D02*
X119559273Y-115614865D01*
X113280282Y-114831725D02*
X114995557Y-116547000D01*
X119000000Y-116472000D02*
X118925000Y-116547000D01*
%TO.N,IN4B*%
X123584000Y-118986000D02*
X124460000Y-118110000D01*
X119000000Y-118986000D02*
X123584000Y-118986000D01*
X124460000Y-118110000D02*
X124460000Y-116704978D01*
X114046000Y-116304553D02*
X114046000Y-117856000D01*
X118925000Y-118911000D02*
X116500000Y-118911000D01*
X115101000Y-118911000D02*
X116500000Y-118911000D01*
X112926727Y-115185280D02*
X114046000Y-116304553D01*
X124460000Y-116704978D02*
X124874489Y-116290489D01*
X124874489Y-116290489D02*
X127414489Y-116290489D01*
X114046000Y-117856000D02*
X115101000Y-118911000D01*
X127414489Y-116290489D02*
X128589000Y-117465000D01*
X119000000Y-118986000D02*
X118925000Y-118911000D01*
%TO.N,IN4A*%
X126049000Y-118553000D02*
X126049000Y-117465000D01*
X116461000Y-120650000D02*
X116500000Y-120611000D01*
X118925000Y-120611000D02*
X116500000Y-120611000D01*
X112573175Y-115538832D02*
X113538000Y-116503657D01*
X124066000Y-120536000D02*
X126049000Y-118553000D01*
X119000000Y-120536000D02*
X124066000Y-120536000D01*
X113538000Y-116503657D02*
X113538000Y-118872000D01*
X119000000Y-120536000D02*
X118925000Y-120611000D01*
X115316000Y-120650000D02*
X116461000Y-120650000D01*
X113538000Y-118872000D02*
X115316000Y-120650000D01*
%TO.N,Net-(A1-Pad27)*%
X125659489Y-128939511D02*
X109889511Y-128939511D01*
X109889511Y-128939511D02*
X108966000Y-128016000D01*
X126746000Y-127853000D02*
X125659489Y-128939511D01*
X105664000Y-123444000D02*
X105664000Y-123325037D01*
X105664000Y-123325037D02*
X101459797Y-119120834D01*
%TO.N,Net-(R1-Pad1)*%
X114795500Y-126528000D02*
X114808000Y-126515500D01*
X113332500Y-126528000D02*
X114795500Y-126528000D01*
%TO.N,SD*%
X103116969Y-132791200D02*
X103073200Y-132747431D01*
X109012379Y-139238379D02*
X108458000Y-138684000D01*
X103073200Y-132689600D02*
X103073200Y-132747431D01*
X103989500Y-128016000D02*
X103989500Y-127658500D01*
X103073200Y-132747431D02*
X101459797Y-134360834D01*
X109968233Y-139238379D02*
X109012379Y-139238379D01*
X103073200Y-128932300D02*
X103073200Y-132747431D01*
X106273600Y-134112000D02*
X104952800Y-132791200D01*
X103989500Y-128016000D02*
X103073200Y-128932300D01*
X108458000Y-138684000D02*
X108458000Y-137718800D01*
X109220000Y-122428000D02*
X109220000Y-115851446D01*
X110239721Y-138966891D02*
X109968233Y-139238379D01*
X104952800Y-132791200D02*
X103116969Y-132791200D01*
X109220000Y-115851446D02*
X110239721Y-114831725D01*
X103989500Y-127658500D02*
X109220000Y-122428000D01*
%TO.N,SCL2*%
X107211500Y-108055838D02*
X107211500Y-107950000D01*
X110946829Y-111791167D02*
X107211500Y-108055838D01*
D34*
%TO.N,SDA2*%
X107211500Y-109601000D02*
X107264200Y-109601000D01*
D33*
X108049556Y-109601000D02*
X110593276Y-112144720D01*
X107211500Y-109601000D02*
X108049556Y-109601000D01*
D35*
%TO.N,VBAT*%
X101459797Y-107836203D02*
X106807000Y-102489000D01*
X101459797Y-116580834D02*
X101459797Y-107836203D01*
%TD*%
%TA.AperFunction,Conductor*%
%TO.N,GND*%
G36*
X104472600Y-137283656D02*
G01*
X104529435Y-137326203D01*
X104535711Y-137335409D01*
X104544425Y-137349490D01*
X104553460Y-137360890D01*
X104666129Y-137473363D01*
X104677540Y-137482375D01*
X104813063Y-137565912D01*
X104826241Y-137572056D01*
X104977766Y-137622315D01*
X104991132Y-137625181D01*
X105083770Y-137634672D01*
X105090185Y-137635000D01*
X105221518Y-137635000D01*
X105289639Y-137655002D01*
X105336132Y-137708658D01*
X105346236Y-137778932D01*
X105316742Y-137843512D01*
X105304595Y-137855732D01*
X105187552Y-137958376D01*
X105179630Y-137966724D01*
X105052180Y-138128394D01*
X105045909Y-138138050D01*
X104950060Y-138320229D01*
X104945655Y-138330863D01*
X104890436Y-138508700D01*
X104890218Y-138522799D01*
X104896950Y-138526000D01*
X107184485Y-138526000D01*
X107198016Y-138522027D01*
X107199185Y-138513892D01*
X107155725Y-138359794D01*
X107151603Y-138349055D01*
X107060549Y-138164417D01*
X107054538Y-138154608D01*
X106931360Y-137989651D01*
X106923671Y-137981111D01*
X106781980Y-137850134D01*
X106745535Y-137789206D01*
X106747816Y-137718246D01*
X106788098Y-137659783D01*
X106853593Y-137632380D01*
X106880350Y-137632265D01*
X106908726Y-137635172D01*
X106908727Y-137635172D01*
X106911928Y-137635500D01*
X107422290Y-137635500D01*
X107490411Y-137655502D01*
X107536904Y-137709158D01*
X107547599Y-137748328D01*
X107550991Y-137780592D01*
X107561442Y-137880028D01*
X107564458Y-137908728D01*
X107623473Y-138090356D01*
X107626776Y-138096078D01*
X107626777Y-138096079D01*
X107631094Y-138103556D01*
X107718960Y-138255744D01*
X107792137Y-138337015D01*
X107822853Y-138401021D01*
X107824500Y-138421324D01*
X107824500Y-138605233D01*
X107823973Y-138616416D01*
X107822298Y-138623909D01*
X107822547Y-138631835D01*
X107822547Y-138631836D01*
X107824438Y-138691986D01*
X107824500Y-138695945D01*
X107824500Y-138723856D01*
X107824997Y-138727790D01*
X107824997Y-138727791D01*
X107825005Y-138727856D01*
X107825938Y-138739693D01*
X107827327Y-138783889D01*
X107832978Y-138803339D01*
X107836987Y-138822700D01*
X107839526Y-138842797D01*
X107842445Y-138850168D01*
X107842445Y-138850170D01*
X107855804Y-138883912D01*
X107859649Y-138895142D01*
X107869771Y-138929983D01*
X107871982Y-138937593D01*
X107876015Y-138944412D01*
X107876017Y-138944417D01*
X107882293Y-138955028D01*
X107890988Y-138972776D01*
X107898448Y-138991617D01*
X107903110Y-138998033D01*
X107903110Y-138998034D01*
X107924436Y-139027387D01*
X107930952Y-139037307D01*
X107946039Y-139062817D01*
X107953458Y-139075362D01*
X107967779Y-139089683D01*
X107980619Y-139104716D01*
X107992528Y-139121107D01*
X107998634Y-139126158D01*
X108026605Y-139149298D01*
X108035384Y-139157288D01*
X108508722Y-139630626D01*
X108516266Y-139638916D01*
X108520379Y-139645397D01*
X108526156Y-139650822D01*
X108570046Y-139692037D01*
X108572888Y-139694792D01*
X108592609Y-139714513D01*
X108595804Y-139716991D01*
X108604826Y-139724697D01*
X108637058Y-139754965D01*
X108644007Y-139758785D01*
X108654811Y-139764725D01*
X108671335Y-139775578D01*
X108687338Y-139787992D01*
X108727922Y-139805555D01*
X108738552Y-139810762D01*
X108777319Y-139832074D01*
X108784996Y-139834045D01*
X108785001Y-139834047D01*
X108796937Y-139837111D01*
X108815645Y-139843516D01*
X108834234Y-139851560D01*
X108842062Y-139852800D01*
X108842069Y-139852802D01*
X108877903Y-139858478D01*
X108889523Y-139860884D01*
X108924668Y-139869907D01*
X108932349Y-139871879D01*
X108952603Y-139871879D01*
X108972313Y-139873430D01*
X108992322Y-139876599D01*
X109000214Y-139875853D01*
X109036340Y-139872438D01*
X109048198Y-139871879D01*
X109209500Y-139871879D01*
X109277621Y-139891881D01*
X109324114Y-139945537D01*
X109335500Y-139997879D01*
X109335500Y-140676621D01*
X109315498Y-140744742D01*
X109289106Y-140773884D01*
X109285287Y-140776248D01*
X109280112Y-140781432D01*
X109275182Y-140786371D01*
X109164448Y-140897298D01*
X109160608Y-140903528D01*
X109160607Y-140903529D01*
X109122141Y-140965933D01*
X109074698Y-141042899D01*
X109020851Y-141205243D01*
X109010500Y-141306268D01*
X109010500Y-141903732D01*
X109021113Y-142006019D01*
X109023295Y-142012559D01*
X109070600Y-142154347D01*
X109075244Y-142168268D01*
X109157121Y-142300581D01*
X109175958Y-142369031D01*
X109157236Y-142432998D01*
X109080285Y-142557836D01*
X109074698Y-142566899D01*
X109020851Y-142729243D01*
X109020151Y-142736080D01*
X109020150Y-142736082D01*
X109016029Y-142776305D01*
X109010500Y-142830268D01*
X109010500Y-143427732D01*
X109021113Y-143530019D01*
X109023295Y-143536559D01*
X109071500Y-143681045D01*
X109075244Y-143692268D01*
X109157121Y-143824581D01*
X109175958Y-143893031D01*
X109157236Y-143956998D01*
X109074698Y-144090899D01*
X109020851Y-144253243D01*
X109010500Y-144354268D01*
X109010500Y-144951732D01*
X109010837Y-144954978D01*
X109010837Y-144954982D01*
X109020149Y-145044725D01*
X109021113Y-145054019D01*
X109023295Y-145060559D01*
X109072507Y-145208063D01*
X109075244Y-145216268D01*
X109079096Y-145222492D01*
X109079096Y-145222493D01*
X109131848Y-145307739D01*
X109165248Y-145361713D01*
X109286298Y-145482552D01*
X109292528Y-145486392D01*
X109292529Y-145486393D01*
X109424020Y-145567445D01*
X109431899Y-145572302D01*
X109594243Y-145626149D01*
X109601080Y-145626849D01*
X109601082Y-145626850D01*
X109642401Y-145631083D01*
X109695268Y-145636500D01*
X110242732Y-145636500D01*
X110245978Y-145636163D01*
X110245982Y-145636163D01*
X110282170Y-145632408D01*
X110345019Y-145625887D01*
X110379737Y-145614304D01*
X110500324Y-145574073D01*
X110500326Y-145574072D01*
X110507268Y-145571756D01*
X110652713Y-145481752D01*
X110657886Y-145476570D01*
X110663623Y-145472023D01*
X110665055Y-145473830D01*
X110717575Y-145445098D01*
X110788395Y-145450108D01*
X110824853Y-145473499D01*
X110825683Y-145472448D01*
X110842840Y-145485998D01*
X110975880Y-145568004D01*
X110989061Y-145574151D01*
X111137814Y-145623491D01*
X111151190Y-145626358D01*
X111242097Y-145635672D01*
X111247126Y-145635929D01*
X111262124Y-145631525D01*
X111263329Y-145630135D01*
X111265000Y-145622452D01*
X111265000Y-145617885D01*
X111773000Y-145617885D01*
X111777475Y-145633124D01*
X111778865Y-145634329D01*
X111786548Y-145636000D01*
X111789438Y-145636000D01*
X111795953Y-145635663D01*
X111888057Y-145626106D01*
X111901456Y-145623212D01*
X112050107Y-145573619D01*
X112063286Y-145567445D01*
X112196173Y-145485212D01*
X112207574Y-145476176D01*
X112317986Y-145365571D01*
X112326998Y-145354160D01*
X112409004Y-145221120D01*
X112415151Y-145207939D01*
X112464491Y-145059186D01*
X112467358Y-145045810D01*
X112476672Y-144954903D01*
X112477000Y-144948487D01*
X112477000Y-144925115D01*
X112472525Y-144909876D01*
X112471135Y-144908671D01*
X112463452Y-144907000D01*
X111791115Y-144907000D01*
X111775876Y-144911475D01*
X111774671Y-144912865D01*
X111773000Y-144920548D01*
X111773000Y-145617885D01*
X111265000Y-145617885D01*
X111265000Y-144380885D01*
X111773000Y-144380885D01*
X111777475Y-144396124D01*
X111778865Y-144397329D01*
X111786548Y-144399000D01*
X112458885Y-144399000D01*
X112474124Y-144394525D01*
X112475329Y-144393135D01*
X112477000Y-144385452D01*
X112477000Y-144357562D01*
X112476663Y-144351047D01*
X112467106Y-144258943D01*
X112464212Y-144245544D01*
X112414619Y-144096893D01*
X112408445Y-144083715D01*
X112330293Y-143957422D01*
X112311455Y-143888970D01*
X112330177Y-143825003D01*
X112409004Y-143697120D01*
X112415151Y-143683939D01*
X112464491Y-143535186D01*
X112467358Y-143521810D01*
X112476672Y-143430903D01*
X112477000Y-143424487D01*
X112477000Y-143401115D01*
X112472525Y-143385876D01*
X112471135Y-143384671D01*
X112463452Y-143383000D01*
X111791115Y-143383000D01*
X111775876Y-143387475D01*
X111774671Y-143388865D01*
X111773000Y-143396548D01*
X111773000Y-144380885D01*
X111265000Y-144380885D01*
X111265000Y-142856885D01*
X111773000Y-142856885D01*
X111777475Y-142872124D01*
X111778865Y-142873329D01*
X111786548Y-142875000D01*
X112458885Y-142875000D01*
X112474124Y-142870525D01*
X112475329Y-142869135D01*
X112477000Y-142861452D01*
X112477000Y-142833562D01*
X112476663Y-142827047D01*
X112467106Y-142734943D01*
X112464212Y-142721544D01*
X112414619Y-142572893D01*
X112408445Y-142559715D01*
X112330293Y-142433422D01*
X112311455Y-142364970D01*
X112330177Y-142301003D01*
X112409004Y-142173120D01*
X112415151Y-142159939D01*
X112464491Y-142011186D01*
X112467358Y-141997810D01*
X112476672Y-141906903D01*
X112477000Y-141900487D01*
X112477000Y-141877115D01*
X112472525Y-141861876D01*
X112471135Y-141860671D01*
X112463452Y-141859000D01*
X111791115Y-141859000D01*
X111775876Y-141863475D01*
X111774671Y-141864865D01*
X111773000Y-141872548D01*
X111773000Y-142856885D01*
X111265000Y-142856885D01*
X111265000Y-140640115D01*
X111260525Y-140624876D01*
X111259135Y-140623671D01*
X111251452Y-140622000D01*
X111248562Y-140622000D01*
X111242047Y-140622337D01*
X111195597Y-140627157D01*
X111125775Y-140614293D01*
X111073993Y-140565722D01*
X111056690Y-140496866D01*
X111079360Y-140429586D01*
X111103640Y-140403633D01*
X111145634Y-140369869D01*
X111150711Y-140365313D01*
X111395291Y-140120733D01*
X111457603Y-140086707D01*
X111528418Y-140091772D01*
X111536536Y-140095127D01*
X111607783Y-140127520D01*
X111624837Y-140132507D01*
X111668139Y-140138708D01*
X111732736Y-140168165D01*
X111751586Y-140197478D01*
X111752108Y-140197057D01*
X111760000Y-140206850D01*
X111760000Y-140208000D01*
X111966972Y-140414972D01*
X112000998Y-140477284D01*
X111995933Y-140548099D01*
X111953386Y-140604935D01*
X111886866Y-140629746D01*
X111865034Y-140629411D01*
X111795901Y-140622328D01*
X111790874Y-140622071D01*
X111775876Y-140626475D01*
X111774671Y-140627865D01*
X111773000Y-140635548D01*
X111773000Y-141332885D01*
X111777475Y-141348124D01*
X111778865Y-141349329D01*
X111786548Y-141351000D01*
X112458885Y-141351000D01*
X112474124Y-141346525D01*
X112475329Y-141345135D01*
X112477000Y-141337452D01*
X112477000Y-141309562D01*
X112476663Y-141303045D01*
X112469501Y-141234022D01*
X112482366Y-141164201D01*
X112530936Y-141112418D01*
X112599792Y-141095116D01*
X112667072Y-141117786D01*
X112683923Y-141131923D01*
X112739095Y-141187095D01*
X112773121Y-141249407D01*
X112776000Y-141276190D01*
X112776000Y-143764000D01*
X112784006Y-143770405D01*
X112784007Y-143770406D01*
X114944212Y-145498570D01*
X114984910Y-145556743D01*
X114991500Y-145596959D01*
X114991500Y-145668134D01*
X114998255Y-145730316D01*
X115049385Y-145866705D01*
X115136739Y-145983261D01*
X115253295Y-146070615D01*
X115389684Y-146121745D01*
X115451866Y-146128500D01*
X117548134Y-146128500D01*
X117610316Y-146121745D01*
X117746705Y-146070615D01*
X117863261Y-145983261D01*
X117950615Y-145866705D01*
X117952899Y-145860613D01*
X118002279Y-145811344D01*
X118062539Y-145796000D01*
X118372722Y-145796000D01*
X118425970Y-145807804D01*
X118431667Y-145810461D01*
X118437899Y-145814302D01*
X118444847Y-145816606D01*
X118444850Y-145816608D01*
X118568303Y-145857555D01*
X118600243Y-145868149D01*
X118607080Y-145868849D01*
X118607082Y-145868850D01*
X118648401Y-145873083D01*
X118701268Y-145878500D01*
X119298732Y-145878500D01*
X119301978Y-145878163D01*
X119301982Y-145878163D01*
X119343201Y-145873886D01*
X119401019Y-145867887D01*
X119563268Y-145813756D01*
X119569488Y-145809907D01*
X119573777Y-145807898D01*
X119627224Y-145796000D01*
X122428000Y-145796000D01*
X123194331Y-145029669D01*
X124691001Y-145029669D01*
X124691371Y-145036490D01*
X124696895Y-145087352D01*
X124700521Y-145102604D01*
X124745676Y-145223054D01*
X124754214Y-145238649D01*
X124830715Y-145340724D01*
X124843276Y-145353285D01*
X124945351Y-145429786D01*
X124960946Y-145438324D01*
X125081394Y-145483478D01*
X125096649Y-145487105D01*
X125147514Y-145492631D01*
X125154328Y-145493000D01*
X125776885Y-145493000D01*
X125792124Y-145488525D01*
X125793329Y-145487135D01*
X125795000Y-145479452D01*
X125795000Y-145474884D01*
X126303000Y-145474884D01*
X126307475Y-145490123D01*
X126308865Y-145491328D01*
X126316548Y-145492999D01*
X126943669Y-145492999D01*
X126950490Y-145492629D01*
X127001352Y-145487105D01*
X127016604Y-145483479D01*
X127137054Y-145438324D01*
X127152649Y-145429786D01*
X127254724Y-145353285D01*
X127267285Y-145340724D01*
X127343786Y-145238649D01*
X127352325Y-145223052D01*
X127393425Y-145113418D01*
X127436066Y-145056653D01*
X127502628Y-145031953D01*
X127571977Y-145047160D01*
X127606645Y-145075150D01*
X127632219Y-145104674D01*
X127639580Y-145111883D01*
X127803434Y-145247916D01*
X127811881Y-145253831D01*
X127995756Y-145361279D01*
X128005042Y-145365729D01*
X128204001Y-145441703D01*
X128213899Y-145444579D01*
X128317250Y-145465606D01*
X128331299Y-145464410D01*
X128335000Y-145454065D01*
X128335000Y-144407115D01*
X128330525Y-144391876D01*
X128329135Y-144390671D01*
X128321452Y-144389000D01*
X126321115Y-144389000D01*
X126305876Y-144393475D01*
X126304671Y-144394865D01*
X126303000Y-144402548D01*
X126303000Y-145474884D01*
X125795000Y-145474884D01*
X125795000Y-144407115D01*
X125790525Y-144391876D01*
X125789135Y-144390671D01*
X125781452Y-144389000D01*
X124709116Y-144389000D01*
X124693877Y-144393475D01*
X124692672Y-144394865D01*
X124691001Y-144402548D01*
X124691001Y-145029669D01*
X123194331Y-145029669D01*
X124475905Y-143748095D01*
X124538217Y-143714069D01*
X124609032Y-143719134D01*
X124665868Y-143761681D01*
X124690679Y-143828201D01*
X124691000Y-143837190D01*
X124691000Y-143862885D01*
X124695475Y-143878124D01*
X124696865Y-143879329D01*
X124704548Y-143881000D01*
X128717000Y-143881000D01*
X128785121Y-143901002D01*
X128831614Y-143954658D01*
X128843000Y-144007000D01*
X128843000Y-145453517D01*
X128847064Y-145467359D01*
X128860478Y-145469393D01*
X128867184Y-145468534D01*
X128877262Y-145466392D01*
X129081255Y-145405191D01*
X129090842Y-145401433D01*
X129282095Y-145307739D01*
X129290938Y-145302467D01*
X129325204Y-145278026D01*
X129392278Y-145254753D01*
X129461286Y-145271436D01*
X129510320Y-145322780D01*
X129524373Y-145380605D01*
X129524373Y-149272957D01*
X129520256Y-149304901D01*
X129505168Y-149362469D01*
X129472380Y-149419620D01*
X128560905Y-150331095D01*
X128498593Y-150365121D01*
X128471810Y-150368000D01*
X121216085Y-150368000D01*
X121147964Y-150347998D01*
X121101471Y-150294342D01*
X121091367Y-150224068D01*
X121120861Y-150159488D01*
X121171445Y-150124173D01*
X121230314Y-150101870D01*
X121230323Y-150101866D01*
X121234588Y-150100250D01*
X121470368Y-149969286D01*
X121684773Y-149805657D01*
X121873312Y-149612792D01*
X122032034Y-149394730D01*
X122115190Y-149236676D01*
X122155490Y-149160079D01*
X122155493Y-149160073D01*
X122157615Y-149156039D01*
X122220378Y-148978312D01*
X122245902Y-148906033D01*
X122245902Y-148906032D01*
X122247425Y-148901720D01*
X122299581Y-148637100D01*
X122308782Y-148452277D01*
X122312764Y-148372292D01*
X122312764Y-148372286D01*
X122312991Y-148367723D01*
X122287375Y-148099231D01*
X122242042Y-147913967D01*
X122224355Y-147841688D01*
X122223269Y-147837250D01*
X122122015Y-147587267D01*
X121985735Y-147354518D01*
X121867928Y-147207208D01*
X121820136Y-147147447D01*
X121820135Y-147147445D01*
X121817284Y-147143881D01*
X121620191Y-146959766D01*
X121398584Y-146806032D01*
X121394501Y-146804001D01*
X121394498Y-146803999D01*
X121229606Y-146721967D01*
X121157106Y-146685899D01*
X121152772Y-146684478D01*
X121152769Y-146684477D01*
X120905147Y-146603302D01*
X120905141Y-146603301D01*
X120900814Y-146601882D01*
X120896322Y-146601102D01*
X120638860Y-146556399D01*
X120638852Y-146556398D01*
X120635079Y-146555743D01*
X120623817Y-146555182D01*
X120551422Y-146551578D01*
X120551414Y-146551578D01*
X120549851Y-146551500D01*
X120381488Y-146551500D01*
X120379220Y-146551665D01*
X120379208Y-146551665D01*
X120248116Y-146561177D01*
X120180996Y-146566047D01*
X120176541Y-146567031D01*
X120176538Y-146567031D01*
X119922088Y-146623209D01*
X119922084Y-146623210D01*
X119917628Y-146624194D01*
X119791520Y-146671972D01*
X119669682Y-146718132D01*
X119669679Y-146718133D01*
X119665412Y-146719750D01*
X119429632Y-146850714D01*
X119215227Y-147014343D01*
X119026688Y-147207208D01*
X118867966Y-147425270D01*
X118865844Y-147429304D01*
X118744510Y-147659921D01*
X118744507Y-147659927D01*
X118742385Y-147663961D01*
X118740865Y-147668266D01*
X118740863Y-147668270D01*
X118654098Y-147913967D01*
X118652575Y-147918280D01*
X118600419Y-148182900D01*
X118600192Y-148187453D01*
X118600192Y-148187456D01*
X118590410Y-148383967D01*
X118587009Y-148452277D01*
X118612625Y-148720769D01*
X118613710Y-148725203D01*
X118613711Y-148725209D01*
X118658163Y-148906868D01*
X118676731Y-148982750D01*
X118777985Y-149232733D01*
X118914265Y-149465482D01*
X118945492Y-149504529D01*
X119034686Y-149616060D01*
X119082716Y-149676119D01*
X119279809Y-149860234D01*
X119501416Y-150013968D01*
X119505499Y-150015999D01*
X119505502Y-150016001D01*
X119733020Y-150129189D01*
X119785101Y-150177440D01*
X119802828Y-150246187D01*
X119780573Y-150313606D01*
X119725402Y-150358290D01*
X119676898Y-150368000D01*
X104266000Y-150368000D01*
X104197879Y-150347998D01*
X104151386Y-150294342D01*
X104140000Y-150242000D01*
X104140000Y-149562173D01*
X104160002Y-149494052D01*
X104164129Y-149488023D01*
X104229347Y-149398423D01*
X104229353Y-149398413D01*
X104232034Y-149394730D01*
X104315190Y-149236676D01*
X104355490Y-149160079D01*
X104355493Y-149160073D01*
X104357615Y-149156039D01*
X104420378Y-148978312D01*
X104445902Y-148906033D01*
X104445902Y-148906032D01*
X104447425Y-148901720D01*
X104499581Y-148637100D01*
X104508782Y-148452277D01*
X104512764Y-148372292D01*
X104512764Y-148372286D01*
X104512991Y-148367723D01*
X104487375Y-148099231D01*
X104442042Y-147913967D01*
X104424355Y-147841688D01*
X104423269Y-147837250D01*
X104322015Y-147587267D01*
X104185735Y-147354518D01*
X104167596Y-147331836D01*
X104140672Y-147266142D01*
X104140000Y-147253142D01*
X104140000Y-146304000D01*
X100710000Y-146304000D01*
X100641879Y-146283998D01*
X100595386Y-146230342D01*
X100584000Y-146178000D01*
X100584000Y-145747022D01*
X100604002Y-145678901D01*
X100657658Y-145632408D01*
X100727932Y-145622304D01*
X100782270Y-145643808D01*
X100803048Y-145658357D01*
X100808030Y-145660680D01*
X100808035Y-145660683D01*
X100993192Y-145747022D01*
X101010554Y-145755118D01*
X101015862Y-145756540D01*
X101015864Y-145756541D01*
X101226395Y-145812953D01*
X101226397Y-145812953D01*
X101231710Y-145814377D01*
X101459797Y-145834332D01*
X101687884Y-145814377D01*
X101693197Y-145812953D01*
X101693199Y-145812953D01*
X101903730Y-145756541D01*
X101903732Y-145756540D01*
X101909040Y-145755118D01*
X101926402Y-145747022D01*
X102111559Y-145660683D01*
X102111564Y-145660680D01*
X102116546Y-145658357D01*
X102221408Y-145584932D01*
X102299586Y-145530191D01*
X102299589Y-145530189D01*
X102304097Y-145527032D01*
X102465995Y-145365134D01*
X102469154Y-145360623D01*
X102575978Y-145208063D01*
X102631435Y-145163735D01*
X102679191Y-145154334D01*
X104225399Y-145154334D01*
X104236582Y-145154861D01*
X104244075Y-145156536D01*
X104252001Y-145156287D01*
X104252002Y-145156287D01*
X104312152Y-145154396D01*
X104316111Y-145154334D01*
X104344022Y-145154334D01*
X104347957Y-145153837D01*
X104348022Y-145153829D01*
X104359859Y-145152896D01*
X104392117Y-145151882D01*
X104396136Y-145151756D01*
X104404055Y-145151507D01*
X104423509Y-145145855D01*
X104442866Y-145141847D01*
X104455096Y-145140302D01*
X104455097Y-145140302D01*
X104462963Y-145139308D01*
X104470334Y-145136389D01*
X104470336Y-145136389D01*
X104504078Y-145123030D01*
X104515308Y-145119185D01*
X104550149Y-145109063D01*
X104550150Y-145109063D01*
X104557759Y-145106852D01*
X104564578Y-145102819D01*
X104564583Y-145102817D01*
X104575194Y-145096541D01*
X104592942Y-145087846D01*
X104611783Y-145080386D01*
X104647553Y-145054398D01*
X104657464Y-145047888D01*
X104671361Y-145039668D01*
X104740175Y-145022209D01*
X104807507Y-145044725D01*
X104851977Y-145100069D01*
X104861500Y-145148122D01*
X104861500Y-145503134D01*
X104868255Y-145565316D01*
X104919385Y-145701705D01*
X105006739Y-145818261D01*
X105123295Y-145905615D01*
X105259684Y-145956745D01*
X105321866Y-145963500D01*
X106768134Y-145963500D01*
X106830316Y-145956745D01*
X106966705Y-145905615D01*
X107083261Y-145818261D01*
X107170615Y-145701705D01*
X107221745Y-145565316D01*
X107228500Y-145503134D01*
X107228500Y-144056866D01*
X107221745Y-143994684D01*
X107170615Y-143858295D01*
X107083261Y-143741739D01*
X107005322Y-143683327D01*
X106962807Y-143626468D01*
X106957781Y-143555649D01*
X106984013Y-143501932D01*
X107020834Y-143457659D01*
X107024532Y-143453213D01*
X107130813Y-143263435D01*
X107132669Y-143257968D01*
X107132671Y-143257963D01*
X107198874Y-143062935D01*
X107198875Y-143062930D01*
X107200730Y-143057466D01*
X107231941Y-142842205D01*
X107233570Y-142780000D01*
X107213667Y-142563400D01*
X107154626Y-142354055D01*
X107058423Y-142158974D01*
X106938077Y-141997810D01*
X106931733Y-141989315D01*
X106931732Y-141989314D01*
X106928280Y-141984691D01*
X106869922Y-141930745D01*
X106806078Y-141871729D01*
X106769633Y-141810800D01*
X106771914Y-141739840D01*
X106811038Y-141682330D01*
X106881008Y-141624137D01*
X106885446Y-141620446D01*
X107024532Y-141453213D01*
X107130813Y-141263435D01*
X107132669Y-141257968D01*
X107132671Y-141257963D01*
X107198874Y-141062935D01*
X107198875Y-141062930D01*
X107200730Y-141057466D01*
X107231941Y-140842205D01*
X107233570Y-140780000D01*
X107213667Y-140563400D01*
X107207718Y-140542304D01*
X107156195Y-140359619D01*
X107154626Y-140354055D01*
X107064107Y-140170500D01*
X107060978Y-140164155D01*
X107058423Y-140158974D01*
X106991001Y-140068684D01*
X106931733Y-139989315D01*
X106931732Y-139989314D01*
X106928280Y-139984691D01*
X106917361Y-139974597D01*
X106825927Y-139890077D01*
X106805708Y-139871387D01*
X106769263Y-139810458D01*
X106771544Y-139739499D01*
X106810668Y-139681988D01*
X106880653Y-139623782D01*
X106888782Y-139615653D01*
X107020420Y-139457375D01*
X107026944Y-139447882D01*
X107127531Y-139268272D01*
X107132210Y-139257763D01*
X107198386Y-139062817D01*
X107201017Y-139051857D01*
X107199040Y-139037992D01*
X107185474Y-139034000D01*
X104906981Y-139034000D01*
X104893450Y-139037973D01*
X104892158Y-139046962D01*
X104923656Y-139170985D01*
X104927497Y-139181832D01*
X105013685Y-139368789D01*
X105019436Y-139378750D01*
X105138254Y-139546873D01*
X105145725Y-139555621D01*
X105285118Y-139691411D01*
X105319956Y-139753272D01*
X105315819Y-139824148D01*
X105280274Y-139876396D01*
X105182842Y-139961842D01*
X105179270Y-139966373D01*
X105076944Y-140096173D01*
X105048181Y-140132658D01*
X104946905Y-140325154D01*
X104945192Y-140330671D01*
X104905159Y-140459598D01*
X104882403Y-140532882D01*
X104856837Y-140748887D01*
X104871063Y-140965933D01*
X104872486Y-140971535D01*
X104873389Y-140977238D01*
X104871801Y-140977490D01*
X104869459Y-141040885D01*
X104839051Y-141090044D01*
X104618666Y-141310429D01*
X104556354Y-141344455D01*
X104529571Y-141347334D01*
X102679191Y-141347334D01*
X102611070Y-141327332D01*
X102575978Y-141293605D01*
X102469154Y-141141045D01*
X102469152Y-141141042D01*
X102465995Y-141136534D01*
X102304097Y-140974636D01*
X102299589Y-140971479D01*
X102299586Y-140971477D01*
X102169724Y-140880547D01*
X102116546Y-140843311D01*
X102111564Y-140840988D01*
X102111559Y-140840985D01*
X102077340Y-140825029D01*
X102024055Y-140778112D01*
X102004594Y-140709835D01*
X102025136Y-140641875D01*
X102077340Y-140596639D01*
X102111559Y-140580683D01*
X102111564Y-140580680D01*
X102116546Y-140578357D01*
X102286151Y-140459598D01*
X102299586Y-140450191D01*
X102299589Y-140450189D01*
X102304097Y-140447032D01*
X102465995Y-140285134D01*
X102597320Y-140097583D01*
X102599643Y-140092601D01*
X102599646Y-140092596D01*
X102691758Y-139895059D01*
X102691758Y-139895058D01*
X102694081Y-139890077D01*
X102697693Y-139876599D01*
X102751916Y-139674236D01*
X102751916Y-139674234D01*
X102753340Y-139668921D01*
X102773295Y-139440834D01*
X102753340Y-139212747D01*
X102738480Y-139157288D01*
X102705812Y-139035370D01*
X102707502Y-138964394D01*
X102738424Y-138913664D01*
X104339472Y-137312617D01*
X104401784Y-137278591D01*
X104472600Y-137283656D01*
G37*
%TD.AperFunction*%
%TA.AperFunction,Conductor*%
G36*
X110814196Y-140486469D02*
G01*
X110831967Y-140486469D01*
X110849767Y-140483920D01*
X110920036Y-140494064D01*
X110973665Y-140540587D01*
X110993629Y-140608719D01*
X110973589Y-140676828D01*
X110933932Y-140715793D01*
X110841821Y-140772793D01*
X110824689Y-140786371D01*
X110823159Y-140784441D01*
X110771120Y-140812903D01*
X110700301Y-140807887D01*
X110663382Y-140784201D01*
X110662627Y-140785156D01*
X110656881Y-140780618D01*
X110651702Y-140775448D01*
X110649330Y-140773986D01*
X110609345Y-140717588D01*
X110602500Y-140676624D01*
X110602500Y-140601481D01*
X110622502Y-140533360D01*
X110676158Y-140486867D01*
X110746363Y-140476754D01*
X110814196Y-140486469D01*
G37*
%TD.AperFunction*%
%TA.AperFunction,Conductor*%
G36*
X111211833Y-136908887D02*
G01*
X111256896Y-136937848D01*
X111747190Y-137428142D01*
X111760000Y-137435137D01*
X111760000Y-138165189D01*
X111758870Y-138164572D01*
X111757037Y-138164703D01*
X111750420Y-138168955D01*
X111256893Y-138662482D01*
X111194581Y-138696508D01*
X111123766Y-138691443D01*
X111078703Y-138662482D01*
X111042548Y-138626327D01*
X110993802Y-138587135D01*
X110995326Y-138585240D01*
X110974927Y-138564841D01*
X110973032Y-138566365D01*
X110940578Y-138526000D01*
X110933840Y-138517619D01*
X110897684Y-138481463D01*
X110863658Y-138419151D01*
X110868723Y-138348336D01*
X110897684Y-138303273D01*
X111387983Y-137812974D01*
X111395595Y-137799034D01*
X111395463Y-137797198D01*
X111391214Y-137790586D01*
X110897686Y-137297058D01*
X110863660Y-137234746D01*
X110868725Y-137163931D01*
X110897686Y-137118868D01*
X110931427Y-137085127D01*
X110931436Y-137085117D01*
X110933840Y-137082713D01*
X110973032Y-137033967D01*
X110974927Y-137035491D01*
X110995326Y-137015092D01*
X110993802Y-137013197D01*
X111039895Y-136976138D01*
X111042548Y-136974005D01*
X111044952Y-136971601D01*
X111044962Y-136971592D01*
X111078706Y-136937848D01*
X111141018Y-136903822D01*
X111211833Y-136908887D01*
G37*
%TD.AperFunction*%
%TA.AperFunction,Conductor*%
G36*
X111528418Y-115956606D02*
G01*
X111536536Y-115959961D01*
X111607783Y-115992354D01*
X111624837Y-115997341D01*
X111651862Y-116001211D01*
X111716459Y-116030668D01*
X111754876Y-116090373D01*
X111760000Y-116125939D01*
X111760000Y-116332000D01*
X111863095Y-116435095D01*
X111897121Y-116497407D01*
X111900000Y-116524190D01*
X111900000Y-121487885D01*
X111904475Y-121503124D01*
X111905865Y-121504329D01*
X111913548Y-121506000D01*
X111916438Y-121506000D01*
X111922953Y-121505663D01*
X112015057Y-121496106D01*
X112028456Y-121493212D01*
X112177107Y-121443619D01*
X112190286Y-121437445D01*
X112323173Y-121355212D01*
X112334574Y-121346176D01*
X112444986Y-121235571D01*
X112453998Y-121224160D01*
X112536004Y-121091120D01*
X112542151Y-121077939D01*
X112579431Y-120965546D01*
X112619862Y-120907186D01*
X112685427Y-120879950D01*
X112755308Y-120892484D01*
X112788119Y-120916119D01*
X114300000Y-122428000D01*
X123600654Y-122428000D01*
X123668775Y-122448002D01*
X123715268Y-122501658D01*
X123725372Y-122571932D01*
X123703867Y-122626270D01*
X123644672Y-122710810D01*
X123644669Y-122710816D01*
X123641512Y-122715324D01*
X123639189Y-122720306D01*
X123639186Y-122720311D01*
X123552087Y-122907096D01*
X123547560Y-122916804D01*
X123546138Y-122922112D01*
X123546137Y-122922114D01*
X123543581Y-122931652D01*
X123490022Y-123131537D01*
X123470647Y-123353000D01*
X123490022Y-123574463D01*
X123528147Y-123716747D01*
X123543551Y-123774233D01*
X123547560Y-123789196D01*
X123549882Y-123794177D01*
X123549883Y-123794178D01*
X123639186Y-123985689D01*
X123639189Y-123985694D01*
X123641512Y-123990676D01*
X123644668Y-123995183D01*
X123644669Y-123995185D01*
X123730634Y-124117955D01*
X123769023Y-124172781D01*
X123926219Y-124329977D01*
X123930727Y-124333134D01*
X123930730Y-124333136D01*
X123976158Y-124364945D01*
X124108323Y-124457488D01*
X124113305Y-124459811D01*
X124113310Y-124459814D01*
X124304822Y-124549117D01*
X124309804Y-124551440D01*
X124315112Y-124552862D01*
X124315114Y-124552863D01*
X124380949Y-124570503D01*
X124524537Y-124608978D01*
X124746000Y-124628353D01*
X124967463Y-124608978D01*
X125111051Y-124570503D01*
X125176886Y-124552863D01*
X125176888Y-124552862D01*
X125182196Y-124551440D01*
X125187178Y-124549117D01*
X125378690Y-124459814D01*
X125378695Y-124459811D01*
X125383677Y-124457488D01*
X125515842Y-124364945D01*
X125561270Y-124333136D01*
X125561273Y-124333134D01*
X125565781Y-124329977D01*
X125656905Y-124238853D01*
X125719217Y-124204827D01*
X125790032Y-124209892D01*
X125835095Y-124238853D01*
X125926219Y-124329977D01*
X125930727Y-124333134D01*
X125930730Y-124333136D01*
X125976158Y-124364945D01*
X126108323Y-124457488D01*
X126113305Y-124459811D01*
X126113310Y-124459814D01*
X126304822Y-124549117D01*
X126309804Y-124551440D01*
X126315112Y-124552862D01*
X126315114Y-124552863D01*
X126380949Y-124570503D01*
X126524537Y-124608978D01*
X126746000Y-124628353D01*
X126967463Y-124608978D01*
X127111051Y-124570503D01*
X127176886Y-124552863D01*
X127176888Y-124552862D01*
X127182196Y-124551440D01*
X127187178Y-124549117D01*
X127378690Y-124459814D01*
X127378695Y-124459811D01*
X127383677Y-124457488D01*
X127515842Y-124364945D01*
X127561270Y-124333136D01*
X127561273Y-124333134D01*
X127565781Y-124329977D01*
X127656905Y-124238853D01*
X127719217Y-124204827D01*
X127790032Y-124209892D01*
X127835095Y-124238853D01*
X127926219Y-124329977D01*
X127930727Y-124333134D01*
X127930730Y-124333136D01*
X127976158Y-124364945D01*
X128108323Y-124457488D01*
X128113305Y-124459811D01*
X128113310Y-124459814D01*
X128304822Y-124549117D01*
X128309804Y-124551440D01*
X128315112Y-124552862D01*
X128315114Y-124552863D01*
X128380949Y-124570503D01*
X128524537Y-124608978D01*
X128746000Y-124628353D01*
X128967463Y-124608978D01*
X129111051Y-124570503D01*
X129176886Y-124552863D01*
X129176888Y-124552862D01*
X129182196Y-124551440D01*
X129345123Y-124475466D01*
X129415315Y-124464805D01*
X129480127Y-124493785D01*
X129518984Y-124553205D01*
X129524373Y-124589661D01*
X129524373Y-126616891D01*
X129504371Y-126685012D01*
X129450715Y-126731505D01*
X129380441Y-126741609D01*
X129345123Y-126731086D01*
X129187007Y-126657355D01*
X129176715Y-126653609D01*
X128972691Y-126598941D01*
X128961896Y-126597038D01*
X128751475Y-126578628D01*
X128740525Y-126578628D01*
X128530104Y-126597038D01*
X128519309Y-126598941D01*
X128315285Y-126653609D01*
X128304993Y-126657355D01*
X128113559Y-126746623D01*
X128104068Y-126752103D01*
X128060235Y-126782794D01*
X128051860Y-126793271D01*
X128058928Y-126806718D01*
X129016115Y-127763905D01*
X129050141Y-127826217D01*
X129045076Y-127897032D01*
X129016115Y-127942095D01*
X128058207Y-128900003D01*
X128042455Y-128928850D01*
X128034289Y-128966386D01*
X127984087Y-129016588D01*
X127923702Y-129032000D01*
X127667948Y-129032000D01*
X127599827Y-129011998D01*
X127553334Y-128958342D01*
X127543230Y-128888068D01*
X127572724Y-128823488D01*
X127578853Y-128816905D01*
X127722977Y-128672781D01*
X127804063Y-128556979D01*
X127847331Y-128495185D01*
X127847332Y-128495183D01*
X127850488Y-128490676D01*
X127852811Y-128485694D01*
X127852814Y-128485689D01*
X127929675Y-128320860D01*
X127954775Y-128285015D01*
X128373978Y-127865812D01*
X128381592Y-127851868D01*
X128381461Y-127850035D01*
X128377210Y-127843420D01*
X127954775Y-127420985D01*
X127929675Y-127385140D01*
X127852814Y-127220311D01*
X127852811Y-127220306D01*
X127850488Y-127215324D01*
X127836303Y-127195066D01*
X127726136Y-127037730D01*
X127726134Y-127037727D01*
X127722977Y-127033219D01*
X127565781Y-126876023D01*
X127561273Y-126872866D01*
X127561270Y-126872864D01*
X127474083Y-126811815D01*
X127383677Y-126748512D01*
X127378695Y-126746189D01*
X127378690Y-126746186D01*
X127187178Y-126656883D01*
X127187177Y-126656882D01*
X127182196Y-126654560D01*
X127176888Y-126653138D01*
X127176886Y-126653137D01*
X127104238Y-126633671D01*
X126967463Y-126597022D01*
X126746000Y-126577647D01*
X126524537Y-126597022D01*
X126387762Y-126633671D01*
X126315114Y-126653137D01*
X126315112Y-126653138D01*
X126309804Y-126654560D01*
X126304823Y-126656882D01*
X126304822Y-126656883D01*
X126113311Y-126746186D01*
X126113306Y-126746189D01*
X126108324Y-126748512D01*
X126103817Y-126751668D01*
X126103815Y-126751669D01*
X125930730Y-126872864D01*
X125930727Y-126872866D01*
X125926219Y-126876023D01*
X125835095Y-126967147D01*
X125772783Y-127001173D01*
X125701968Y-126996108D01*
X125656905Y-126967147D01*
X125565781Y-126876023D01*
X125561273Y-126872866D01*
X125561270Y-126872864D01*
X125474083Y-126811815D01*
X125383677Y-126748512D01*
X125378695Y-126746189D01*
X125378690Y-126746186D01*
X125187178Y-126656883D01*
X125187177Y-126656882D01*
X125182196Y-126654560D01*
X125176888Y-126653138D01*
X125176886Y-126653137D01*
X125104238Y-126633671D01*
X124967463Y-126597022D01*
X124746000Y-126577647D01*
X124524537Y-126597022D01*
X124387762Y-126633671D01*
X124315114Y-126653137D01*
X124315112Y-126653138D01*
X124309804Y-126654560D01*
X124304823Y-126656882D01*
X124304822Y-126656883D01*
X124113311Y-126746186D01*
X124113306Y-126746189D01*
X124108324Y-126748512D01*
X124103817Y-126751668D01*
X124103815Y-126751669D01*
X123930730Y-126872864D01*
X123930727Y-126872866D01*
X123926219Y-126876023D01*
X123769023Y-127033219D01*
X123765866Y-127037727D01*
X123765864Y-127037730D01*
X123655697Y-127195066D01*
X123641512Y-127215324D01*
X123639189Y-127220306D01*
X123639186Y-127220311D01*
X123574622Y-127358770D01*
X123547560Y-127416804D01*
X123546138Y-127422112D01*
X123546137Y-127422114D01*
X123537056Y-127456005D01*
X123490022Y-127631537D01*
X123470647Y-127853000D01*
X123490022Y-128074463D01*
X123491446Y-128079776D01*
X123491447Y-128079784D01*
X123509565Y-128147399D01*
X123507876Y-128218375D01*
X123468083Y-128277171D01*
X123402819Y-128305120D01*
X123387859Y-128306011D01*
X110204105Y-128306011D01*
X110135984Y-128286009D01*
X110115010Y-128269106D01*
X109913122Y-128067218D01*
X109879096Y-128004906D01*
X109876907Y-127991293D01*
X109860232Y-127832635D01*
X109860232Y-127832633D01*
X109859542Y-127826072D01*
X109800527Y-127644444D01*
X109796239Y-127637016D01*
X109731566Y-127525000D01*
X109714828Y-127456005D01*
X109738048Y-127388913D01*
X109793856Y-127345026D01*
X109829624Y-127338132D01*
X109852124Y-127331525D01*
X109853329Y-127330135D01*
X109855000Y-127322452D01*
X109855000Y-127317885D01*
X110363000Y-127317885D01*
X110367475Y-127333124D01*
X110368865Y-127334329D01*
X110376548Y-127336000D01*
X110404438Y-127336000D01*
X110410953Y-127335663D01*
X110503057Y-127326106D01*
X110516456Y-127323212D01*
X110665107Y-127273619D01*
X110678286Y-127267445D01*
X110811173Y-127185212D01*
X110822573Y-127176177D01*
X110823507Y-127175241D01*
X110824304Y-127174805D01*
X110828311Y-127171629D01*
X110828855Y-127172315D01*
X110885789Y-127141160D01*
X110956609Y-127146161D01*
X111013483Y-127188656D01*
X111024337Y-127208472D01*
X111024866Y-127208182D01*
X111037714Y-127231649D01*
X111114215Y-127333724D01*
X111126776Y-127346285D01*
X111228851Y-127422786D01*
X111244446Y-127431324D01*
X111364894Y-127476478D01*
X111380149Y-127480105D01*
X111431014Y-127485631D01*
X111437828Y-127486000D01*
X111610385Y-127486000D01*
X111625624Y-127481525D01*
X111626829Y-127480135D01*
X111628500Y-127472452D01*
X111628500Y-126800115D01*
X111624025Y-126784876D01*
X111622635Y-126783671D01*
X111614952Y-126782000D01*
X111060500Y-126782000D01*
X110992379Y-126761998D01*
X110945886Y-126708342D01*
X110934500Y-126656000D01*
X110934500Y-126650115D01*
X110930025Y-126634876D01*
X110928635Y-126633671D01*
X110920952Y-126632000D01*
X110381115Y-126632000D01*
X110365876Y-126636475D01*
X110364671Y-126637865D01*
X110363000Y-126645548D01*
X110363000Y-127317885D01*
X109855000Y-127317885D01*
X109855000Y-126650115D01*
X109850525Y-126634876D01*
X109849135Y-126633671D01*
X109841452Y-126632000D01*
X109144115Y-126632000D01*
X109128876Y-126636475D01*
X109127671Y-126637865D01*
X109126000Y-126645548D01*
X109126000Y-126648438D01*
X109126337Y-126654953D01*
X109135894Y-126747057D01*
X109138788Y-126760456D01*
X109188381Y-126909107D01*
X109197656Y-126928906D01*
X109195104Y-126930102D01*
X109210503Y-126986082D01*
X109189336Y-127053850D01*
X109134890Y-127099416D01*
X109071352Y-127109231D01*
X109067947Y-127108873D01*
X109061487Y-127107500D01*
X108870513Y-127107500D01*
X108864061Y-127108872D01*
X108864056Y-127108872D01*
X108777113Y-127127353D01*
X108683712Y-127147206D01*
X108677682Y-127149891D01*
X108677681Y-127149891D01*
X108515278Y-127222197D01*
X108515276Y-127222198D01*
X108509248Y-127224882D01*
X108354747Y-127337134D01*
X108350326Y-127342044D01*
X108350325Y-127342045D01*
X108236890Y-127468028D01*
X108226960Y-127479056D01*
X108200434Y-127525000D01*
X108135762Y-127637016D01*
X108131473Y-127644444D01*
X108072458Y-127826072D01*
X108071768Y-127832633D01*
X108071768Y-127832635D01*
X108067294Y-127875201D01*
X108052496Y-128016000D01*
X108053186Y-128022565D01*
X108066209Y-128146468D01*
X108072458Y-128205928D01*
X108131473Y-128387556D01*
X108134776Y-128393278D01*
X108134777Y-128393279D01*
X108159810Y-128436637D01*
X108226960Y-128552944D01*
X108231378Y-128557851D01*
X108231379Y-128557852D01*
X108338370Y-128676678D01*
X108354747Y-128694866D01*
X108509248Y-128807118D01*
X108515276Y-128809802D01*
X108515278Y-128809803D01*
X108645967Y-128867989D01*
X108683712Y-128884794D01*
X108777112Y-128904647D01*
X108864056Y-128923128D01*
X108864061Y-128923128D01*
X108870513Y-128924500D01*
X108926405Y-128924500D01*
X108994526Y-128944502D01*
X109015500Y-128961405D01*
X109385859Y-129331764D01*
X109393399Y-129340050D01*
X109397511Y-129346529D01*
X109403288Y-129351954D01*
X109447162Y-129393154D01*
X109450004Y-129395909D01*
X109469741Y-129415646D01*
X109472938Y-129418126D01*
X109481958Y-129425829D01*
X109514190Y-129456097D01*
X109521136Y-129459916D01*
X109521139Y-129459918D01*
X109531945Y-129465859D01*
X109548464Y-129476710D01*
X109564470Y-129489125D01*
X109571739Y-129492270D01*
X109571743Y-129492273D01*
X109605048Y-129506685D01*
X109615698Y-129511902D01*
X109654451Y-129533206D01*
X109662126Y-129535177D01*
X109662127Y-129535177D01*
X109674073Y-129538244D01*
X109692778Y-129544648D01*
X109711366Y-129552692D01*
X109719189Y-129553931D01*
X109719199Y-129553934D01*
X109755035Y-129559610D01*
X109766655Y-129562016D01*
X109798470Y-129570184D01*
X109809481Y-129573011D01*
X109829735Y-129573011D01*
X109849445Y-129574562D01*
X109869454Y-129577731D01*
X109877346Y-129576985D01*
X109913472Y-129573570D01*
X109925330Y-129573011D01*
X113962799Y-129573011D01*
X114030920Y-129593013D01*
X114077413Y-129646669D01*
X114087517Y-129716943D01*
X114058023Y-129781523D01*
X114051894Y-129788106D01*
X112776000Y-131064000D01*
X112776000Y-134567810D01*
X112755998Y-134635931D01*
X112739095Y-134656905D01*
X111968611Y-135427389D01*
X111906299Y-135461415D01*
X111861653Y-135463021D01*
X111768890Y-135449736D01*
X111751113Y-135449736D01*
X111624843Y-135467819D01*
X111607787Y-135472806D01*
X111537022Y-135504981D01*
X111466731Y-135514967D01*
X111402199Y-135485366D01*
X111395776Y-135479375D01*
X110593925Y-134677524D01*
X110559899Y-134615212D01*
X110557020Y-134588429D01*
X110557020Y-133854787D01*
X110557547Y-133843604D01*
X110559222Y-133836111D01*
X110557082Y-133768020D01*
X110557020Y-133764063D01*
X110557020Y-133736164D01*
X110556516Y-133732173D01*
X110555583Y-133720331D01*
X110554443Y-133684056D01*
X110554194Y-133676131D01*
X110551982Y-133668517D01*
X110551981Y-133668512D01*
X110548543Y-133656679D01*
X110544532Y-133637315D01*
X110542987Y-133625084D01*
X110541994Y-133617223D01*
X110539077Y-133609856D01*
X110539076Y-133609851D01*
X110525718Y-133576112D01*
X110521874Y-133564885D01*
X110511750Y-133530042D01*
X110509538Y-133522427D01*
X110499227Y-133504992D01*
X110490532Y-133487244D01*
X110483072Y-133468403D01*
X110465853Y-133444702D01*
X110457084Y-133432633D01*
X110450568Y-133422713D01*
X110432100Y-133391485D01*
X110432098Y-133391482D01*
X110428062Y-133384658D01*
X110413741Y-133370337D01*
X110400900Y-133355303D01*
X110393651Y-133345326D01*
X110388992Y-133338913D01*
X110354915Y-133310722D01*
X110346136Y-133302732D01*
X106847405Y-129804000D01*
X106813379Y-129741688D01*
X106810500Y-129714905D01*
X106810500Y-129379928D01*
X106809090Y-129366338D01*
X106800419Y-129282765D01*
X106800418Y-129282761D01*
X106799707Y-129275907D01*
X106744654Y-129110893D01*
X106653116Y-128962969D01*
X106647935Y-128957797D01*
X106647931Y-128957792D01*
X106620361Y-128930271D01*
X106586280Y-128867989D01*
X106591282Y-128797169D01*
X106620204Y-128752079D01*
X106648363Y-128723871D01*
X106657375Y-128712460D01*
X106740912Y-128576937D01*
X106747056Y-128563759D01*
X106797315Y-128412234D01*
X106800181Y-128398868D01*
X106809672Y-128306230D01*
X106810000Y-128299815D01*
X106810000Y-128288115D01*
X106805525Y-128272876D01*
X106804135Y-128271671D01*
X106796452Y-128270000D01*
X105712300Y-128270000D01*
X105644179Y-128249998D01*
X105597686Y-128196342D01*
X105586300Y-128144000D01*
X105586300Y-127909978D01*
X105606302Y-127841857D01*
X105623205Y-127820883D01*
X105645183Y-127798905D01*
X105707495Y-127764879D01*
X105734278Y-127762000D01*
X106791885Y-127762000D01*
X106807124Y-127757525D01*
X106808329Y-127756135D01*
X106810000Y-127748452D01*
X106810000Y-127732234D01*
X106809663Y-127725718D01*
X106799925Y-127631868D01*
X106797032Y-127618472D01*
X106746512Y-127467047D01*
X106740347Y-127453885D01*
X106656574Y-127318508D01*
X106647540Y-127307110D01*
X106534871Y-127194637D01*
X106523460Y-127185625D01*
X106495211Y-127168212D01*
X106447717Y-127115439D01*
X106436294Y-127045368D01*
X106464569Y-126980244D01*
X106472232Y-126971857D01*
X107945684Y-125498405D01*
X108007996Y-125464379D01*
X108034779Y-125461500D01*
X109180621Y-125461500D01*
X109248742Y-125481502D01*
X109277884Y-125507894D01*
X109280248Y-125511713D01*
X109285432Y-125516888D01*
X109289978Y-125522624D01*
X109288171Y-125524056D01*
X109316902Y-125576575D01*
X109311892Y-125647395D01*
X109288501Y-125683853D01*
X109289552Y-125684683D01*
X109276002Y-125701840D01*
X109193996Y-125834880D01*
X109187849Y-125848061D01*
X109138509Y-125996814D01*
X109135642Y-126010190D01*
X109126328Y-126101097D01*
X109126071Y-126106126D01*
X109130475Y-126121124D01*
X109131865Y-126122329D01*
X109139548Y-126124000D01*
X111006000Y-126124000D01*
X111074121Y-126144002D01*
X111120614Y-126197658D01*
X111132000Y-126250000D01*
X111132000Y-126255885D01*
X111136475Y-126271124D01*
X111137865Y-126272329D01*
X111145548Y-126274000D01*
X112010500Y-126274000D01*
X112078621Y-126294002D01*
X112125114Y-126347658D01*
X112136500Y-126400000D01*
X112136500Y-127467884D01*
X112140975Y-127483123D01*
X112142365Y-127484328D01*
X112150048Y-127485999D01*
X112327169Y-127485999D01*
X112333990Y-127485629D01*
X112384852Y-127480105D01*
X112400104Y-127476479D01*
X112520554Y-127431324D01*
X112544017Y-127418478D01*
X112545431Y-127421060D01*
X112598012Y-127401409D01*
X112667396Y-127416455D01*
X112674069Y-127420744D01*
X112678608Y-127423229D01*
X112685795Y-127428615D01*
X112822184Y-127479745D01*
X112884366Y-127486500D01*
X113780634Y-127486500D01*
X113842816Y-127479745D01*
X113979205Y-127428615D01*
X114095761Y-127341261D01*
X114115477Y-127314954D01*
X114172336Y-127272439D01*
X114243155Y-127267413D01*
X114305319Y-127301345D01*
X114358997Y-127354929D01*
X114365227Y-127358769D01*
X114365228Y-127358770D01*
X114483651Y-127431767D01*
X114507080Y-127446209D01*
X114672191Y-127500974D01*
X114679027Y-127501674D01*
X114679030Y-127501675D01*
X114726370Y-127506525D01*
X114774928Y-127511500D01*
X115349072Y-127511500D01*
X115352318Y-127511163D01*
X115352322Y-127511163D01*
X115446235Y-127501419D01*
X115446239Y-127501418D01*
X115453093Y-127500707D01*
X115459629Y-127498526D01*
X115459631Y-127498526D01*
X115593436Y-127453885D01*
X115618107Y-127445654D01*
X115758043Y-127359059D01*
X115826495Y-127340221D01*
X115890462Y-127358943D01*
X116025063Y-127441912D01*
X116038241Y-127448056D01*
X116189766Y-127498315D01*
X116203132Y-127501181D01*
X116295770Y-127510672D01*
X116302185Y-127511000D01*
X116313885Y-127511000D01*
X116329124Y-127506525D01*
X116330329Y-127505135D01*
X116332000Y-127497452D01*
X116332000Y-127492885D01*
X116840000Y-127492885D01*
X116844475Y-127508124D01*
X116845865Y-127509329D01*
X116853548Y-127511000D01*
X116869766Y-127511000D01*
X116876282Y-127510663D01*
X116970132Y-127500925D01*
X116983528Y-127498032D01*
X117134953Y-127447512D01*
X117148115Y-127441347D01*
X117283492Y-127357574D01*
X117294890Y-127348540D01*
X117407363Y-127235871D01*
X117416375Y-127224460D01*
X117499912Y-127088937D01*
X117506056Y-127075759D01*
X117556315Y-126924234D01*
X117559181Y-126910868D01*
X117568672Y-126818230D01*
X117569000Y-126811815D01*
X117569000Y-126787615D01*
X117564525Y-126772376D01*
X117563135Y-126771171D01*
X117555452Y-126769500D01*
X116858115Y-126769500D01*
X116842876Y-126773975D01*
X116841671Y-126775365D01*
X116840000Y-126783048D01*
X116840000Y-127492885D01*
X116332000Y-127492885D01*
X116332000Y-126387500D01*
X116352002Y-126319379D01*
X116405658Y-126272886D01*
X116458000Y-126261500D01*
X117550885Y-126261500D01*
X117566124Y-126257025D01*
X117567329Y-126255635D01*
X117569000Y-126247952D01*
X117569000Y-126219234D01*
X117568663Y-126212718D01*
X117558925Y-126118868D01*
X117556032Y-126105472D01*
X117505512Y-125954047D01*
X117499347Y-125940885D01*
X117415574Y-125805508D01*
X117406540Y-125794110D01*
X117304860Y-125692607D01*
X117270781Y-125630324D01*
X117275784Y-125559504D01*
X117304705Y-125514416D01*
X117307404Y-125511713D01*
X117412929Y-125406003D01*
X117416770Y-125399772D01*
X117500369Y-125264150D01*
X117500370Y-125264148D01*
X117504209Y-125257920D01*
X117558974Y-125092809D01*
X117560748Y-125075500D01*
X117569172Y-124993271D01*
X117569500Y-124990072D01*
X117569500Y-124390928D01*
X117562772Y-124326080D01*
X117559419Y-124293765D01*
X117559418Y-124293761D01*
X117558707Y-124286907D01*
X117546741Y-124251039D01*
X117505972Y-124128841D01*
X117503654Y-124121893D01*
X117412116Y-123973969D01*
X117376646Y-123938561D01*
X117294184Y-123856242D01*
X117294179Y-123856238D01*
X117289003Y-123851071D01*
X117240672Y-123821279D01*
X117147150Y-123763631D01*
X117147148Y-123763630D01*
X117140920Y-123759791D01*
X116975809Y-123705026D01*
X116968973Y-123704326D01*
X116968970Y-123704325D01*
X116917474Y-123699049D01*
X116873072Y-123694500D01*
X116298928Y-123694500D01*
X116295682Y-123694837D01*
X116295678Y-123694837D01*
X116201765Y-123704581D01*
X116201761Y-123704582D01*
X116194907Y-123705293D01*
X116188371Y-123707474D01*
X116188369Y-123707474D01*
X116071068Y-123746609D01*
X116029893Y-123760346D01*
X115890431Y-123846648D01*
X115821981Y-123865485D01*
X115758014Y-123846763D01*
X115623150Y-123763631D01*
X115623148Y-123763630D01*
X115616920Y-123759791D01*
X115451809Y-123705026D01*
X115444973Y-123704326D01*
X115444970Y-123704325D01*
X115393474Y-123699049D01*
X115349072Y-123694500D01*
X114774928Y-123694500D01*
X114771682Y-123694837D01*
X114771678Y-123694837D01*
X114677765Y-123704581D01*
X114677761Y-123704582D01*
X114670907Y-123705293D01*
X114664371Y-123707474D01*
X114664369Y-123707474D01*
X114547068Y-123746609D01*
X114505893Y-123760346D01*
X114357969Y-123851884D01*
X114352796Y-123857066D01*
X114352791Y-123857070D01*
X114305463Y-123904481D01*
X114243181Y-123938561D01*
X114172361Y-123933558D01*
X114115464Y-123891029D01*
X114095761Y-123864739D01*
X113979205Y-123777385D01*
X113842816Y-123726255D01*
X113780634Y-123719500D01*
X113712621Y-123719500D01*
X113686424Y-123716747D01*
X113512944Y-123679872D01*
X113512939Y-123679872D01*
X113506487Y-123678500D01*
X113315513Y-123678500D01*
X113309061Y-123679872D01*
X113309056Y-123679872D01*
X113135576Y-123716747D01*
X113109379Y-123719500D01*
X112884366Y-123719500D01*
X112822184Y-123726255D01*
X112685795Y-123777385D01*
X112678609Y-123782771D01*
X112670740Y-123787079D01*
X112669357Y-123784553D01*
X112616558Y-123804279D01*
X112547176Y-123789226D01*
X112541388Y-123785507D01*
X112536393Y-123782772D01*
X112529205Y-123777385D01*
X112392816Y-123726255D01*
X112330634Y-123719500D01*
X111434366Y-123719500D01*
X111372184Y-123726255D01*
X111235795Y-123777385D01*
X111119239Y-123864739D01*
X111031885Y-123981295D01*
X111028733Y-123989703D01*
X111024423Y-123997575D01*
X111022087Y-123996296D01*
X110987783Y-124041968D01*
X110921223Y-124066672D01*
X110851873Y-124051470D01*
X110823420Y-124030154D01*
X110821883Y-124028620D01*
X110816702Y-124023448D01*
X110810471Y-124019607D01*
X110677331Y-123937538D01*
X110677329Y-123937537D01*
X110671101Y-123933698D01*
X110508757Y-123879851D01*
X110501920Y-123879151D01*
X110501918Y-123879150D01*
X110460599Y-123874917D01*
X110407732Y-123869500D01*
X109810268Y-123869500D01*
X109807022Y-123869837D01*
X109807018Y-123869837D01*
X109772917Y-123873375D01*
X109707981Y-123880113D01*
X109701440Y-123882295D01*
X109701441Y-123882295D01*
X109552676Y-123931927D01*
X109552674Y-123931928D01*
X109545732Y-123934244D01*
X109539508Y-123938096D01*
X109539507Y-123938096D01*
X109454539Y-123990676D01*
X109400287Y-124024248D01*
X109279448Y-124145298D01*
X109277986Y-124147670D01*
X109221588Y-124187655D01*
X109180624Y-124194500D01*
X108653595Y-124194500D01*
X108585474Y-124174498D01*
X108538981Y-124120842D01*
X108528877Y-124050568D01*
X108558371Y-123985988D01*
X108564500Y-123979405D01*
X109612253Y-122931652D01*
X109620539Y-122924112D01*
X109627018Y-122920000D01*
X109673644Y-122870348D01*
X109676398Y-122867507D01*
X109696135Y-122847770D01*
X109698615Y-122844573D01*
X109706320Y-122835551D01*
X109721955Y-122818901D01*
X109736586Y-122803321D01*
X109740405Y-122796375D01*
X109740407Y-122796372D01*
X109746348Y-122785566D01*
X109757199Y-122769047D01*
X109764758Y-122759301D01*
X109769614Y-122753041D01*
X109772759Y-122745772D01*
X109772762Y-122745768D01*
X109787174Y-122712463D01*
X109792391Y-122701813D01*
X109813695Y-122663060D01*
X109818733Y-122643437D01*
X109825137Y-122624734D01*
X109830033Y-122613420D01*
X109830033Y-122613419D01*
X109833181Y-122606145D01*
X109834420Y-122598322D01*
X109834423Y-122598312D01*
X109840099Y-122562476D01*
X109842505Y-122550856D01*
X109851528Y-122515711D01*
X109851528Y-122515710D01*
X109853500Y-122508030D01*
X109853500Y-122487776D01*
X109855051Y-122468065D01*
X109856980Y-122455886D01*
X109858220Y-122448057D01*
X109854059Y-122404038D01*
X109853500Y-122392181D01*
X109853500Y-121632500D01*
X109873502Y-121564379D01*
X109927158Y-121517886D01*
X109979500Y-121506500D01*
X110369732Y-121506500D01*
X110372978Y-121506163D01*
X110372982Y-121506163D01*
X110407083Y-121502625D01*
X110472019Y-121495887D01*
X110511530Y-121482705D01*
X110627324Y-121444073D01*
X110627326Y-121444072D01*
X110634268Y-121441756D01*
X110648827Y-121432747D01*
X110773485Y-121355606D01*
X110779713Y-121351752D01*
X110784886Y-121346570D01*
X110790623Y-121342023D01*
X110792055Y-121343830D01*
X110844575Y-121315098D01*
X110915395Y-121320108D01*
X110951853Y-121343499D01*
X110952683Y-121342448D01*
X110969840Y-121355998D01*
X111102880Y-121438004D01*
X111116061Y-121444151D01*
X111264814Y-121493491D01*
X111278190Y-121496358D01*
X111369097Y-121505672D01*
X111374126Y-121505929D01*
X111389124Y-121501525D01*
X111390329Y-121500135D01*
X111392000Y-121492452D01*
X111392000Y-116510115D01*
X111387525Y-116494876D01*
X111386135Y-116493671D01*
X111378452Y-116492000D01*
X111375562Y-116492000D01*
X111369047Y-116492337D01*
X111276943Y-116501894D01*
X111263544Y-116504788D01*
X111114893Y-116554381D01*
X111101714Y-116560555D01*
X110968827Y-116642788D01*
X110951689Y-116656371D01*
X110950159Y-116654441D01*
X110898120Y-116682903D01*
X110827301Y-116677887D01*
X110790382Y-116654201D01*
X110789627Y-116655156D01*
X110783881Y-116650618D01*
X110778702Y-116645448D01*
X110776330Y-116643986D01*
X110736345Y-116587588D01*
X110729500Y-116546624D01*
X110729500Y-116475219D01*
X110749502Y-116407098D01*
X110803158Y-116360605D01*
X110837637Y-116350492D01*
X110958245Y-116333219D01*
X110975299Y-116328233D01*
X111092407Y-116274988D01*
X111105751Y-116266770D01*
X111145632Y-116234705D01*
X111150711Y-116230147D01*
X111395291Y-115985567D01*
X111457603Y-115951541D01*
X111528418Y-115956606D01*
G37*
%TD.AperFunction*%
%TA.AperFunction,Conductor*%
G36*
X117798121Y-100604002D02*
G01*
X117844614Y-100657658D01*
X117856000Y-100710000D01*
X117856000Y-105030000D01*
X117835998Y-105098121D01*
X117782342Y-105144614D01*
X117730000Y-105156000D01*
X114808000Y-105156000D01*
X112776000Y-107188000D01*
X112776000Y-110183810D01*
X112755998Y-110251931D01*
X112739095Y-110272905D01*
X111760000Y-111252000D01*
X111760000Y-111262446D01*
X111710041Y-111312403D01*
X111667521Y-111326541D01*
X111624844Y-111332653D01*
X111607783Y-111337642D01*
X111537020Y-111369815D01*
X111466729Y-111379801D01*
X111402198Y-111350200D01*
X111395775Y-111344209D01*
X108244405Y-108192838D01*
X108210379Y-108130526D01*
X108207500Y-108103743D01*
X108207500Y-107662928D01*
X108200468Y-107595153D01*
X108197419Y-107565765D01*
X108197418Y-107565761D01*
X108196707Y-107558907D01*
X108141654Y-107393893D01*
X108050116Y-107245969D01*
X108035062Y-107230941D01*
X107932184Y-107128242D01*
X107932179Y-107128238D01*
X107927003Y-107123071D01*
X107778920Y-107031791D01*
X107613809Y-106977026D01*
X107606973Y-106976326D01*
X107606970Y-106976325D01*
X107555474Y-106971049D01*
X107511072Y-106966500D01*
X106911928Y-106966500D01*
X106908682Y-106966837D01*
X106908678Y-106966837D01*
X106814765Y-106976581D01*
X106814761Y-106976582D01*
X106807907Y-106977293D01*
X106801371Y-106979474D01*
X106801369Y-106979474D01*
X106668605Y-107023768D01*
X106642893Y-107032346D01*
X106494969Y-107123884D01*
X106489796Y-107129066D01*
X106388253Y-107230786D01*
X106325970Y-107264865D01*
X106255150Y-107259862D01*
X106210063Y-107230941D01*
X106107188Y-107128246D01*
X106107183Y-107128242D01*
X106102003Y-107123071D01*
X105953920Y-107031791D01*
X105788809Y-106977026D01*
X105781973Y-106976326D01*
X105781970Y-106976325D01*
X105730474Y-106971049D01*
X105686072Y-106966500D01*
X105086928Y-106966500D01*
X105083682Y-106966837D01*
X105083678Y-106966837D01*
X104989765Y-106976581D01*
X104989761Y-106976582D01*
X104982907Y-106977293D01*
X104976371Y-106979474D01*
X104976369Y-106979474D01*
X104843605Y-107023768D01*
X104817893Y-107032346D01*
X104669969Y-107123884D01*
X104664796Y-107129066D01*
X104552242Y-107241816D01*
X104552238Y-107241821D01*
X104547071Y-107246997D01*
X104543231Y-107253227D01*
X104543230Y-107253228D01*
X104460364Y-107387662D01*
X104455791Y-107395080D01*
X104401026Y-107560191D01*
X104400326Y-107567027D01*
X104400325Y-107567030D01*
X104397444Y-107595153D01*
X104390500Y-107662928D01*
X104390500Y-108237072D01*
X104401293Y-108341093D01*
X104456346Y-108506107D01*
X104547884Y-108654031D01*
X104563093Y-108669213D01*
X104580286Y-108686376D01*
X104614366Y-108748658D01*
X104609363Y-108819479D01*
X104580443Y-108864567D01*
X104547071Y-108897997D01*
X104543231Y-108904227D01*
X104543230Y-108904228D01*
X104508338Y-108960834D01*
X104455791Y-109046080D01*
X104401026Y-109211191D01*
X104390500Y-109313928D01*
X104390500Y-109888072D01*
X104390837Y-109891318D01*
X104390837Y-109891322D01*
X104398693Y-109967032D01*
X104401293Y-109992093D01*
X104403474Y-109998629D01*
X104403474Y-109998631D01*
X104436745Y-110098357D01*
X104456346Y-110157107D01*
X104547884Y-110305031D01*
X104553066Y-110310204D01*
X104665816Y-110422758D01*
X104665821Y-110422762D01*
X104670997Y-110427929D01*
X104677227Y-110431769D01*
X104677228Y-110431770D01*
X104722403Y-110459616D01*
X104819080Y-110519209D01*
X104984191Y-110573974D01*
X104991027Y-110574674D01*
X104991030Y-110574675D01*
X105042526Y-110579951D01*
X105086928Y-110584500D01*
X105686072Y-110584500D01*
X105689318Y-110584163D01*
X105689322Y-110584163D01*
X105783235Y-110574419D01*
X105783239Y-110574418D01*
X105790093Y-110573707D01*
X105796629Y-110571526D01*
X105796631Y-110571526D01*
X105929395Y-110527232D01*
X105955107Y-110518654D01*
X106103031Y-110427116D01*
X106183196Y-110346811D01*
X106209747Y-110320214D01*
X106272030Y-110286135D01*
X106342850Y-110291138D01*
X106387937Y-110320059D01*
X106490812Y-110422754D01*
X106490817Y-110422758D01*
X106495997Y-110427929D01*
X106502227Y-110431769D01*
X106502228Y-110431770D01*
X106547403Y-110459616D01*
X106644080Y-110519209D01*
X106809191Y-110573974D01*
X106816027Y-110574674D01*
X106816030Y-110574675D01*
X106867526Y-110579951D01*
X106911928Y-110584500D01*
X107511072Y-110584500D01*
X107514318Y-110584163D01*
X107514322Y-110584163D01*
X107608235Y-110574419D01*
X107608239Y-110574418D01*
X107615093Y-110573707D01*
X107621629Y-110571526D01*
X107621631Y-110571526D01*
X107754395Y-110527232D01*
X107780107Y-110518654D01*
X107875148Y-110459841D01*
X107943596Y-110441004D01*
X108011366Y-110462165D01*
X108030543Y-110477891D01*
X108476521Y-110923869D01*
X108510547Y-110986181D01*
X108505482Y-111056996D01*
X108465707Y-111109343D01*
X108466598Y-111110333D01*
X108461691Y-111114751D01*
X108456347Y-111118634D01*
X108451926Y-111123544D01*
X108451925Y-111123545D01*
X108338427Y-111249598D01*
X108328560Y-111260556D01*
X108286935Y-111332653D01*
X108238526Y-111416500D01*
X108233073Y-111425944D01*
X108174058Y-111607572D01*
X108173368Y-111614133D01*
X108173368Y-111614135D01*
X108156390Y-111775671D01*
X108129377Y-111841327D01*
X108071155Y-111881957D01*
X108031080Y-111888500D01*
X107864453Y-111888500D01*
X107798336Y-111869759D01*
X107785152Y-111861632D01*
X107785149Y-111861631D01*
X107778920Y-111857791D01*
X107613809Y-111803026D01*
X107606973Y-111802326D01*
X107606970Y-111802325D01*
X107555474Y-111797049D01*
X107511072Y-111792500D01*
X106911928Y-111792500D01*
X106908682Y-111792837D01*
X106908678Y-111792837D01*
X106814765Y-111802581D01*
X106814761Y-111802582D01*
X106807907Y-111803293D01*
X106801371Y-111805474D01*
X106801369Y-111805474D01*
X106788205Y-111809866D01*
X106642893Y-111858346D01*
X106494969Y-111949884D01*
X106489796Y-111955066D01*
X106489791Y-111955070D01*
X106393500Y-112051530D01*
X106331218Y-112085610D01*
X106260398Y-112080607D01*
X106230265Y-112064448D01*
X106191642Y-112036386D01*
X106176692Y-112023630D01*
X106102003Y-111949071D01*
X106003739Y-111888500D01*
X105960150Y-111861631D01*
X105960148Y-111861630D01*
X105953920Y-111857791D01*
X105788809Y-111803026D01*
X105781973Y-111802326D01*
X105781970Y-111802325D01*
X105730474Y-111797049D01*
X105686072Y-111792500D01*
X105086928Y-111792500D01*
X105083682Y-111792837D01*
X105083678Y-111792837D01*
X104989765Y-111802581D01*
X104989761Y-111802582D01*
X104982907Y-111803293D01*
X104976371Y-111805474D01*
X104976369Y-111805474D01*
X104963205Y-111809866D01*
X104817893Y-111858346D01*
X104669969Y-111949884D01*
X104664796Y-111955066D01*
X104552242Y-112067816D01*
X104552238Y-112067821D01*
X104547071Y-112072997D01*
X104543231Y-112079227D01*
X104543230Y-112079228D01*
X104498894Y-112151155D01*
X104455791Y-112221080D01*
X104401026Y-112386191D01*
X104390500Y-112488928D01*
X104390500Y-113063072D01*
X104390837Y-113066318D01*
X104390837Y-113066322D01*
X104400167Y-113156236D01*
X104401293Y-113167093D01*
X104403474Y-113173629D01*
X104403474Y-113173631D01*
X104424975Y-113238077D01*
X104456346Y-113332107D01*
X104547884Y-113480031D01*
X104553065Y-113485203D01*
X104553069Y-113485208D01*
X104580639Y-113512729D01*
X104614720Y-113575011D01*
X104609718Y-113645831D01*
X104580796Y-113690921D01*
X104552637Y-113719129D01*
X104543625Y-113730540D01*
X104460088Y-113866063D01*
X104453944Y-113879241D01*
X104403685Y-114030766D01*
X104400819Y-114044132D01*
X104391328Y-114136770D01*
X104391000Y-114143185D01*
X104391000Y-114154885D01*
X104395475Y-114170124D01*
X104396865Y-114171329D01*
X104404548Y-114173000D01*
X105514500Y-114173000D01*
X105582621Y-114193002D01*
X105629114Y-114246658D01*
X105640500Y-114299000D01*
X105640500Y-115391885D01*
X105644975Y-115407124D01*
X105646365Y-115408329D01*
X105654048Y-115410000D01*
X105682766Y-115410000D01*
X105689282Y-115409663D01*
X105783132Y-115399925D01*
X105796528Y-115397032D01*
X105947953Y-115346512D01*
X105961115Y-115340347D01*
X106096492Y-115256574D01*
X106107890Y-115247540D01*
X106209393Y-115145860D01*
X106271676Y-115111781D01*
X106342496Y-115116784D01*
X106387583Y-115145704D01*
X106495997Y-115253929D01*
X106502224Y-115257767D01*
X106502226Y-115257769D01*
X106518116Y-115267564D01*
X106565609Y-115320336D01*
X106578000Y-115374824D01*
X106578000Y-122773128D01*
X106557998Y-122841249D01*
X106504342Y-122887742D01*
X106434068Y-122897846D01*
X106369488Y-122868352D01*
X106358370Y-122857445D01*
X106275253Y-122765134D01*
X106120752Y-122652882D01*
X106114724Y-122650198D01*
X106114722Y-122650197D01*
X105952319Y-122577891D01*
X105952318Y-122577891D01*
X105946288Y-122575206D01*
X105809809Y-122546196D01*
X105746912Y-122512045D01*
X102768949Y-119534082D01*
X102734923Y-119471770D01*
X102736338Y-119412375D01*
X102751915Y-119354243D01*
X102751917Y-119354232D01*
X102753340Y-119348921D01*
X102773295Y-119120834D01*
X102753340Y-118892747D01*
X102734785Y-118823500D01*
X102695504Y-118676901D01*
X102695503Y-118676899D01*
X102694081Y-118671591D01*
X102677436Y-118635896D01*
X102599646Y-118469072D01*
X102599643Y-118469067D01*
X102597320Y-118464085D01*
X102484822Y-118303422D01*
X102469154Y-118281045D01*
X102469152Y-118281042D01*
X102465995Y-118276534D01*
X102304097Y-118114636D01*
X102299589Y-118111479D01*
X102299586Y-118111477D01*
X102193366Y-118037101D01*
X102116546Y-117983311D01*
X102111564Y-117980988D01*
X102111559Y-117980985D01*
X102077340Y-117965029D01*
X102024055Y-117918112D01*
X102004594Y-117849835D01*
X102025136Y-117781875D01*
X102077340Y-117736639D01*
X102111559Y-117720683D01*
X102111564Y-117720680D01*
X102116546Y-117718357D01*
X102221408Y-117644932D01*
X102299586Y-117590191D01*
X102299589Y-117590189D01*
X102304097Y-117587032D01*
X102465995Y-117425134D01*
X102597320Y-117237583D01*
X102599643Y-117232601D01*
X102599646Y-117232596D01*
X102691758Y-117035059D01*
X102691758Y-117035058D01*
X102694081Y-117030077D01*
X102753340Y-116808921D01*
X102773295Y-116580834D01*
X102753340Y-116352747D01*
X102751916Y-116347432D01*
X102695504Y-116136901D01*
X102695503Y-116136899D01*
X102694081Y-116131591D01*
X102691758Y-116126609D01*
X102599646Y-115929072D01*
X102599643Y-115929067D01*
X102597320Y-115924085D01*
X102518404Y-115811381D01*
X102469154Y-115741045D01*
X102469152Y-115741042D01*
X102465995Y-115736534D01*
X102304097Y-115574636D01*
X102272026Y-115552179D01*
X102227698Y-115496724D01*
X102218297Y-115448967D01*
X102218297Y-114710766D01*
X104391000Y-114710766D01*
X104391337Y-114717282D01*
X104401075Y-114811132D01*
X104403968Y-114824528D01*
X104454488Y-114975953D01*
X104460653Y-114989115D01*
X104544426Y-115124492D01*
X104553460Y-115135890D01*
X104666129Y-115248363D01*
X104677540Y-115257375D01*
X104813063Y-115340912D01*
X104826241Y-115347056D01*
X104977766Y-115397315D01*
X104991132Y-115400181D01*
X105083770Y-115409672D01*
X105090185Y-115410000D01*
X105114385Y-115410000D01*
X105129624Y-115405525D01*
X105130829Y-115404135D01*
X105132500Y-115396452D01*
X105132500Y-114699115D01*
X105128025Y-114683876D01*
X105126635Y-114682671D01*
X105118952Y-114681000D01*
X104409115Y-114681000D01*
X104393876Y-114685475D01*
X104392671Y-114686865D01*
X104391000Y-114694548D01*
X104391000Y-114710766D01*
X102218297Y-114710766D01*
X102218297Y-108202574D01*
X102238299Y-108134453D01*
X102255202Y-108113479D01*
X106484276Y-103884405D01*
X106546588Y-103850379D01*
X106573371Y-103847500D01*
X107705134Y-103847500D01*
X107767316Y-103840745D01*
X107903705Y-103789615D01*
X108020261Y-103702261D01*
X108107615Y-103585705D01*
X108142339Y-103493079D01*
X108151798Y-103467848D01*
X108194440Y-103411084D01*
X108261001Y-103386384D01*
X108330350Y-103401592D01*
X108365017Y-103429580D01*
X108390218Y-103458673D01*
X108397580Y-103465883D01*
X108561434Y-103601916D01*
X108569881Y-103607831D01*
X108753756Y-103715279D01*
X108763042Y-103719729D01*
X108962001Y-103795703D01*
X108971899Y-103798579D01*
X109075250Y-103819606D01*
X109089299Y-103818410D01*
X109093000Y-103808065D01*
X109093000Y-103807517D01*
X109601000Y-103807517D01*
X109605064Y-103821359D01*
X109618478Y-103823393D01*
X109625184Y-103822534D01*
X109635262Y-103820392D01*
X109839255Y-103759191D01*
X109848842Y-103755433D01*
X110040095Y-103661739D01*
X110048945Y-103656464D01*
X110222328Y-103532792D01*
X110230200Y-103526139D01*
X110381052Y-103375812D01*
X110387730Y-103367965D01*
X110512003Y-103195020D01*
X110517313Y-103186183D01*
X110611670Y-102995267D01*
X110615469Y-102985672D01*
X110677377Y-102781910D01*
X110679555Y-102771837D01*
X110680986Y-102760962D01*
X110678775Y-102746778D01*
X110665617Y-102743000D01*
X109619115Y-102743000D01*
X109603876Y-102747475D01*
X109602671Y-102748865D01*
X109601000Y-102756548D01*
X109601000Y-103807517D01*
X109093000Y-103807517D01*
X109093000Y-102216885D01*
X109601000Y-102216885D01*
X109605475Y-102232124D01*
X109606865Y-102233329D01*
X109614548Y-102235000D01*
X110665344Y-102235000D01*
X110678875Y-102231027D01*
X110680180Y-102221947D01*
X110638214Y-102054875D01*
X110634894Y-102045124D01*
X110549972Y-101849814D01*
X110545105Y-101840739D01*
X110429426Y-101661926D01*
X110423136Y-101653757D01*
X110279806Y-101496240D01*
X110272273Y-101489215D01*
X110105139Y-101357222D01*
X110096552Y-101351517D01*
X109910117Y-101248599D01*
X109900705Y-101244369D01*
X109699959Y-101173280D01*
X109689988Y-101170646D01*
X109618837Y-101157972D01*
X109605540Y-101159432D01*
X109601000Y-101173989D01*
X109601000Y-102216885D01*
X109093000Y-102216885D01*
X109093000Y-101172102D01*
X109089082Y-101158758D01*
X109074806Y-101156771D01*
X109036324Y-101162660D01*
X109026288Y-101165051D01*
X108823868Y-101231212D01*
X108814359Y-101235209D01*
X108625463Y-101333542D01*
X108616738Y-101339036D01*
X108446433Y-101466905D01*
X108438726Y-101473748D01*
X108361478Y-101554584D01*
X108299954Y-101590014D01*
X108229042Y-101586557D01*
X108171255Y-101545311D01*
X108152402Y-101511763D01*
X108110767Y-101400703D01*
X108107615Y-101392295D01*
X108020261Y-101275739D01*
X107903705Y-101188385D01*
X107767316Y-101137255D01*
X107705134Y-101130500D01*
X105908866Y-101130500D01*
X105846684Y-101137255D01*
X105710295Y-101188385D01*
X105593739Y-101275739D01*
X105506385Y-101392295D01*
X105455255Y-101528684D01*
X105448500Y-101590866D01*
X105448500Y-102722629D01*
X105428498Y-102790750D01*
X105411595Y-102811724D01*
X104526800Y-103696519D01*
X104464488Y-103730545D01*
X104393673Y-103725480D01*
X104336837Y-103682933D01*
X104312026Y-103616413D01*
X104326196Y-103548757D01*
X104355490Y-103493079D01*
X104355493Y-103493073D01*
X104357615Y-103489039D01*
X104365099Y-103467848D01*
X104445902Y-103239033D01*
X104445902Y-103239032D01*
X104447425Y-103234720D01*
X104483090Y-103053769D01*
X104498700Y-102974572D01*
X104498701Y-102974566D01*
X104499581Y-102970100D01*
X104499808Y-102965544D01*
X104512764Y-102705292D01*
X104512764Y-102705286D01*
X104512991Y-102700723D01*
X104487375Y-102432231D01*
X104438410Y-102232124D01*
X104424355Y-102174688D01*
X104423269Y-102170250D01*
X104322015Y-101920267D01*
X104185735Y-101687518D01*
X104167596Y-101664836D01*
X104140672Y-101599142D01*
X104140000Y-101586142D01*
X104140000Y-100710000D01*
X104160002Y-100641879D01*
X104213658Y-100595386D01*
X104266000Y-100584000D01*
X117730000Y-100584000D01*
X117798121Y-100604002D01*
G37*
%TD.AperFunction*%
%TA.AperFunction,Conductor*%
G36*
X109309870Y-113175502D02*
G01*
X109330844Y-113192405D01*
X109439213Y-113300774D01*
X109473239Y-113363086D01*
X109468174Y-113433901D01*
X109464819Y-113442021D01*
X109432643Y-113512787D01*
X109427657Y-113529839D01*
X109409574Y-113656109D01*
X109409574Y-113673887D01*
X109427657Y-113800157D01*
X109432644Y-113817212D01*
X109464820Y-113887980D01*
X109474806Y-113958271D01*
X109445205Y-114022802D01*
X109439214Y-114029226D01*
X109192050Y-114276390D01*
X109152858Y-114325136D01*
X109149589Y-114332326D01*
X109125588Y-114385114D01*
X109092570Y-114457732D01*
X109091298Y-114466615D01*
X109091297Y-114466618D01*
X109082605Y-114527316D01*
X109071921Y-114601918D01*
X109073194Y-114610807D01*
X109088441Y-114717271D01*
X109092570Y-114746104D01*
X109096284Y-114754272D01*
X109096284Y-114754273D01*
X109124718Y-114816809D01*
X109152858Y-114878700D01*
X109156492Y-114883220D01*
X109174936Y-114950815D01*
X109153627Y-115018539D01*
X109138054Y-115037488D01*
X108827742Y-115347799D01*
X108819463Y-115355333D01*
X108812982Y-115359446D01*
X108777687Y-115397032D01*
X108766357Y-115409097D01*
X108763602Y-115411939D01*
X108743865Y-115431676D01*
X108741385Y-115434873D01*
X108733682Y-115443893D01*
X108703414Y-115476125D01*
X108699595Y-115483071D01*
X108699593Y-115483074D01*
X108693652Y-115493880D01*
X108682801Y-115510399D01*
X108670386Y-115526405D01*
X108667241Y-115533674D01*
X108667238Y-115533678D01*
X108652826Y-115566983D01*
X108647609Y-115577633D01*
X108626305Y-115616386D01*
X108624334Y-115624061D01*
X108624334Y-115624062D01*
X108621267Y-115636008D01*
X108614863Y-115654712D01*
X108606819Y-115673301D01*
X108605580Y-115681124D01*
X108605577Y-115681134D01*
X108599901Y-115716970D01*
X108597495Y-115728590D01*
X108588472Y-115763735D01*
X108586500Y-115771416D01*
X108586500Y-115791670D01*
X108584949Y-115811380D01*
X108581780Y-115831389D01*
X108582526Y-115839281D01*
X108585941Y-115875407D01*
X108586500Y-115887265D01*
X108586500Y-122113406D01*
X108566498Y-122181527D01*
X108549595Y-122202501D01*
X108060095Y-122692001D01*
X107997783Y-122726027D01*
X107926968Y-122720962D01*
X107870132Y-122678415D01*
X107845321Y-122611895D01*
X107845000Y-122602906D01*
X107845000Y-115374699D01*
X107865002Y-115306578D01*
X107904699Y-115267554D01*
X107928031Y-115253116D01*
X107933597Y-115247540D01*
X108045758Y-115135184D01*
X108045762Y-115135179D01*
X108050929Y-115130003D01*
X108142209Y-114981920D01*
X108196974Y-114816809D01*
X108207500Y-114714072D01*
X108207500Y-114139928D01*
X108205168Y-114117448D01*
X108197419Y-114042765D01*
X108197418Y-114042761D01*
X108196707Y-114035907D01*
X108194151Y-114028244D01*
X108143972Y-113877841D01*
X108141654Y-113870893D01*
X108050116Y-113722969D01*
X108017714Y-113690623D01*
X107983634Y-113628342D01*
X107988637Y-113557521D01*
X108017558Y-113512432D01*
X108045758Y-113484183D01*
X108050929Y-113479003D01*
X108073725Y-113442021D01*
X108138369Y-113337150D01*
X108138370Y-113337148D01*
X108142209Y-113330920D01*
X108171758Y-113241833D01*
X108212189Y-113183473D01*
X108277753Y-113156236D01*
X108291351Y-113155500D01*
X109241749Y-113155500D01*
X109309870Y-113175502D01*
G37*
%TD.AperFunction*%
%TA.AperFunction,Conductor*%
G36*
X111211833Y-112773721D02*
G01*
X111256896Y-112802682D01*
X111747190Y-113292976D01*
X111760000Y-113299971D01*
X111760000Y-114030023D01*
X111758870Y-114029406D01*
X111757037Y-114029537D01*
X111750420Y-114033789D01*
X111256893Y-114527316D01*
X111194581Y-114561342D01*
X111123766Y-114556277D01*
X111078703Y-114527316D01*
X111042548Y-114491161D01*
X110993802Y-114451969D01*
X110995326Y-114450074D01*
X110974927Y-114429675D01*
X110973032Y-114431199D01*
X110935979Y-114385114D01*
X110933840Y-114382453D01*
X110897684Y-114346297D01*
X110863658Y-114283985D01*
X110868723Y-114213170D01*
X110897684Y-114168107D01*
X111387983Y-113677808D01*
X111395595Y-113663868D01*
X111395463Y-113662032D01*
X111391214Y-113655420D01*
X110897686Y-113161892D01*
X110863660Y-113099580D01*
X110868725Y-113028765D01*
X110897686Y-112983702D01*
X110931427Y-112949961D01*
X110931436Y-112949951D01*
X110933840Y-112947547D01*
X110973032Y-112898801D01*
X110974927Y-112900325D01*
X110995326Y-112879926D01*
X110993802Y-112878031D01*
X111039895Y-112840972D01*
X111042548Y-112838839D01*
X111044952Y-112836435D01*
X111044962Y-112836426D01*
X111078706Y-112802682D01*
X111141018Y-112768656D01*
X111211833Y-112773721D01*
G37*
%TD.AperFunction*%
%TD*%
M02*
