%TF.GenerationSoftware,KiCad,Pcbnew,(6.0.2-0)*%
%TF.CreationDate,2022-06-23T22:24:51+02:00*%
%TF.ProjectId,CapSenseDuo,43617053-656e-4736-9544-756f2e6b6963,rev?*%
%TF.SameCoordinates,Original*%
%TF.FileFunction,Copper,L2,Bot*%
%TF.FilePolarity,Positive*%
%FSLAX46Y46*%
G04 Gerber Fmt 4.6, Leading zero omitted, Abs format (unit mm)*
G04 Created by KiCad (PCBNEW (6.0.2-0)) date 2022-06-23 22:24:51*
%MOMM*%
%LPD*%
G01*
G04 APERTURE LIST*
%TA.AperFunction,ComponentPad*%
%ADD10C,2.500000*%
%TD*%
%TA.AperFunction,ComponentPad*%
%ADD11R,1.700000X1.700000*%
%TD*%
%TA.AperFunction,ComponentPad*%
%ADD12O,1.700000X1.700000*%
%TD*%
%TA.AperFunction,ComponentPad*%
%ADD13C,2.400000*%
%TD*%
%TA.AperFunction,ComponentPad*%
%ADD14R,1.350000X1.350000*%
%TD*%
%TA.AperFunction,ComponentPad*%
%ADD15O,1.350000X1.350000*%
%TD*%
%TA.AperFunction,SMDPad,CuDef*%
%ADD16R,1.600000X1.600000*%
%TD*%
%TA.AperFunction,ComponentPad*%
%ADD17C,1.600000*%
%TD*%
%TA.AperFunction,SMDPad,CuDef*%
%ADD18C,1.600000*%
%TD*%
%TA.AperFunction,ComponentPad*%
%ADD19C,1.524000*%
%TD*%
%TA.AperFunction,ViaPad*%
%ADD20C,0.800000*%
%TD*%
%TA.AperFunction,Conductor*%
%ADD21C,0.500000*%
%TD*%
%TA.AperFunction,Conductor*%
%ADD22C,0.400000*%
%TD*%
%TA.AperFunction,Conductor*%
%ADD23C,0.250000*%
%TD*%
G04 APERTURE END LIST*
D10*
%TO.P,IC1,V*%
%TO.N,GND*%
X111760002Y-137800164D03*
%TD*%
D11*
%TO.P,BAT1,1,Pin_1*%
%TO.N,VBAT*%
X106807000Y-102489000D03*
D12*
%TO.P,BAT1,2,Pin_2*%
%TO.N,GND*%
X109347000Y-102489000D03*
%TD*%
D13*
%TO.P,IC2,V*%
%TO.N,GND*%
X111760002Y-113664998D03*
%TD*%
D14*
%TO.P,test1,1,Pin_1*%
%TO.N,+3V3*%
X106045000Y-144780000D03*
D15*
%TO.P,test1,2,Pin_2*%
%TO.N,SDA*%
X106045000Y-142780000D03*
%TO.P,test1,3,Pin_3*%
%TO.N,SCL*%
X106045000Y-140780000D03*
%TO.P,test1,4,Pin_4*%
%TO.N,GND*%
X106045000Y-138780000D03*
%TD*%
D11*
%TO.P,J3,1,Pin_1*%
%TO.N,GND*%
X126049000Y-144135000D03*
D12*
%TO.P,J3,2,Pin_2*%
X128589000Y-144135000D03*
%TD*%
D11*
%TO.P,J2,1,Pin_1*%
%TO.N,IN4A*%
X126049000Y-117465000D03*
D12*
%TO.P,J2,2,Pin_2*%
%TO.N,IN4B*%
X128589000Y-117465000D03*
%TO.P,J2,3,Pin_3*%
%TO.N,IN5A*%
X126049000Y-114925000D03*
%TO.P,J2,4,Pin_4*%
%TO.N,IN5B*%
X128589000Y-114925000D03*
%TO.P,J2,5,Pin_5*%
%TO.N,IN6A*%
X126049000Y-112385000D03*
%TO.P,J2,6,Pin_6*%
%TO.N,IN6B*%
X128589000Y-112385000D03*
%TO.P,J2,7,Pin_7*%
%TO.N,IN7A*%
X126049000Y-109845000D03*
%TO.P,J2,8,Pin_8*%
%TO.N,IN7B*%
X128589000Y-109845000D03*
%TD*%
D11*
%TO.P,J1,1,Pin_1*%
%TO.N,IN0A*%
X126049000Y-141595000D03*
D12*
%TO.P,J1,2,Pin_2*%
%TO.N,IN0B*%
X128589000Y-141595000D03*
%TO.P,J1,3,Pin_3*%
%TO.N,IN1A*%
X126049000Y-139055000D03*
%TO.P,J1,4,Pin_4*%
%TO.N,IN1B*%
X128589000Y-139055000D03*
%TO.P,J1,5,Pin_5*%
%TO.N,IN2A*%
X126049000Y-136515000D03*
%TO.P,J1,6,Pin_6*%
%TO.N,IN2B*%
X128589000Y-136515000D03*
%TO.P,J1,7,Pin_7*%
%TO.N,IN3A*%
X126049000Y-133975000D03*
%TO.P,J1,8,Pin_8*%
%TO.N,IN3B*%
X128589000Y-133975000D03*
%TD*%
D16*
%TO.P,A1,1,~{RESET}*%
%TO.N,unconnected-(A1-Pad1)*%
X121779797Y-106420834D03*
D17*
%TO.P,A1,2,3V3*%
%TO.N,+3V3*%
X121779797Y-108960834D03*
D18*
%TO.P,A1,3,AREF*%
%TO.N,unconnected-(A1-Pad3)*%
X121779797Y-111500834D03*
D17*
%TO.P,A1,4,GND*%
%TO.N,GND*%
X121779797Y-114040834D03*
D18*
%TO.P,A1,5,A0*%
%TO.N,unconnected-(A1-Pad5)*%
X121779797Y-116580834D03*
%TO.P,A1,6,A1*%
%TO.N,unconnected-(A1-Pad6)*%
X121779797Y-119120834D03*
%TO.P,A1,7,A2*%
%TO.N,unconnected-(A1-Pad7)*%
X121779797Y-121660834D03*
%TO.P,A1,8,A3*%
%TO.N,unconnected-(A1-Pad8)*%
X121779797Y-124200834D03*
%TO.P,A1,9,A4*%
%TO.N,unconnected-(A1-Pad9)*%
X121779797Y-126740834D03*
%TO.P,A1,10,A5*%
%TO.N,unconnected-(A1-Pad10)*%
X121779797Y-129280834D03*
%TO.P,A1,11,SCK*%
%TO.N,unconnected-(A1-Pad11)*%
X121779797Y-131820834D03*
%TO.P,A1,12,MOSI*%
%TO.N,unconnected-(A1-Pad12)*%
X121779797Y-134360834D03*
%TO.P,A1,13,MISO*%
%TO.N,unconnected-(A1-Pad13)*%
X121779797Y-136900834D03*
%TO.P,A1,14,RX*%
%TO.N,unconnected-(A1-Pad14)*%
X121779797Y-139440834D03*
%TO.P,A1,15,TX*%
%TO.N,unconnected-(A1-Pad15)*%
X121779797Y-141980834D03*
%TO.P,A1,16,SPARE*%
%TO.N,unconnected-(A1-Pad16)*%
X121779797Y-144520834D03*
D17*
%TO.P,A1,17,SDA*%
%TO.N,SDA*%
X101459797Y-144520834D03*
%TO.P,A1,18,SCL*%
%TO.N,SCL*%
X101459797Y-141980834D03*
%TO.P,A1,19,D0*%
%TO.N,ADDR1*%
X101459797Y-139440834D03*
%TO.P,A1,20,D1*%
%TO.N,ADDR2*%
X101459797Y-136900834D03*
%TO.P,A1,21,D2*%
%TO.N,SD*%
X101459797Y-134360834D03*
%TO.P,A1,22,D3*%
%TO.N,unconnected-(A1-Pad22)*%
X101459797Y-131820834D03*
%TO.P,A1,23,D4*%
%TO.N,unconnected-(A1-Pad23)*%
X101459797Y-129280834D03*
%TO.P,A1,24,D5*%
%TO.N,unconnected-(A1-Pad24)*%
X101459797Y-126740834D03*
%TO.P,A1,25,D6*%
%TO.N,unconnected-(A1-Pad25)*%
X101459797Y-124200834D03*
%TO.P,A1,26,USB*%
%TO.N,unconnected-(A1-Pad26)*%
X101459797Y-121660834D03*
%TO.P,A1,27,EN*%
%TO.N,Net-(A1-Pad27)*%
X101459797Y-119120834D03*
%TO.P,A1,28,VBAT*%
%TO.N,VBAT*%
X101459797Y-116580834D03*
%TD*%
D19*
%TO.P,SW1,1,A*%
%TO.N,unconnected-(SW1-Pad1)*%
X124746000Y-127853000D03*
%TO.P,SW1,2,B*%
%TO.N,Net-(A1-Pad27)*%
X126746000Y-127853000D03*
%TO.P,SW1,3,C*%
%TO.N,GND*%
X128746000Y-127853000D03*
%TO.P,SW1,4,A*%
%TO.N,unconnected-(SW1-Pad4)*%
X124746000Y-123353000D03*
%TO.P,SW1,5,B*%
%TO.N,unconnected-(SW1-Pad5)*%
X126746000Y-123353000D03*
%TO.P,SW1,6,C*%
%TO.N,unconnected-(SW1-Pad6)*%
X128746000Y-123353000D03*
%TD*%
D20*
%TO.N,GND*%
X111646000Y-118986000D03*
%TO.N,+3V3*%
X105410000Y-135001000D03*
X110096000Y-117475000D03*
X113411000Y-124587000D03*
X110109000Y-124828000D03*
X105664000Y-112776000D03*
X109969000Y-141605000D03*
%TO.N,SCL*%
X105359200Y-107950000D03*
X105814500Y-129667000D03*
%TO.N,SDA*%
X105410000Y-109626400D03*
X105814500Y-131318000D03*
%TO.N,ADDR2*%
X103632000Y-125984000D03*
%TO.N,clk*%
X109067600Y-111797500D03*
X115062000Y-124714000D03*
X108712000Y-135128000D03*
%TO.N,Net-(A1-Pad27)*%
X105664000Y-123444000D03*
X108966000Y-128016000D03*
%TO.N,SD*%
X106273600Y-134112000D03*
X108458000Y-137718800D03*
%TD*%
D21*
%TO.N,GND*%
X113244926Y-113664998D02*
X111826520Y-115083404D01*
D22*
X121779797Y-113956597D02*
X121488198Y-113664998D01*
X121779797Y-114040834D02*
X121779797Y-113956597D01*
D21*
X111826520Y-118805480D02*
X111646000Y-118986000D01*
X121488198Y-113664998D02*
X113244926Y-113664998D01*
X111826520Y-115083404D02*
X111826520Y-118805480D01*
D22*
%TO.N,+3V3*%
X109677200Y-109626400D02*
X108153200Y-111150400D01*
X109677200Y-117500400D02*
X110134400Y-117500400D01*
D21*
X121112366Y-108960834D02*
X120548400Y-109524800D01*
X120446800Y-109626400D02*
X112318800Y-109626400D01*
D22*
X108153200Y-111150400D02*
X108153200Y-115976400D01*
X108153200Y-115976400D02*
X109677200Y-117500400D01*
X112318800Y-109626400D02*
X109677200Y-109626400D01*
X121779797Y-108960834D02*
X121112366Y-108960834D01*
X120548400Y-109524800D02*
X120446800Y-109626400D01*
D23*
%TO.N,SCL*%
X106578400Y-127050800D02*
X106578400Y-128903100D01*
X103632000Y-132980391D02*
X103632000Y-136271000D01*
X103632000Y-136271000D02*
X102584308Y-137318692D01*
X105359200Y-107950000D02*
X104140000Y-109169200D01*
X102584308Y-137318692D02*
X102584308Y-140856323D01*
X105089989Y-130391511D02*
X105089989Y-131522402D01*
X104140000Y-109169200D02*
X104140000Y-124612400D01*
X105089989Y-131522402D02*
X103632000Y-132980391D01*
X104140000Y-124612400D02*
X106578400Y-127050800D01*
X102584308Y-140856323D02*
X101459797Y-141980834D01*
X106578400Y-128903100D02*
X105814500Y-129667000D01*
X105814500Y-129667000D02*
X105089989Y-130391511D01*
%TO.N,SDA*%
X104800400Y-110236000D02*
X104800400Y-124155200D01*
X103033828Y-142946803D02*
X101459797Y-144520834D01*
X107340400Y-129792100D02*
X105814500Y-131318000D01*
X105814500Y-131623750D02*
X104140000Y-133298250D01*
X104140000Y-136525000D02*
X103033828Y-137631172D01*
X107340400Y-126695200D02*
X107340400Y-129792100D01*
X103033828Y-137631172D02*
X103033828Y-142946803D01*
X104140000Y-133298250D02*
X104140000Y-136525000D01*
X105814500Y-131318000D02*
X105814500Y-131623750D01*
X105410000Y-109626400D02*
X104800400Y-110236000D01*
X104800400Y-124155200D02*
X107340400Y-126695200D01*
%TO.N,ADDR2*%
X101459797Y-136900834D02*
X103124000Y-135236631D01*
X103124000Y-126492000D02*
X103632000Y-125984000D01*
X103124000Y-135236631D02*
X103124000Y-126492000D01*
%TO.N,clk*%
X115062000Y-124714000D02*
X115062000Y-127508000D01*
X115062000Y-124714000D02*
X114831500Y-124714000D01*
X109067600Y-113893600D02*
X109067600Y-111797500D01*
X110921489Y-118685897D02*
X111252000Y-118355386D01*
X114831500Y-124714000D02*
X110921489Y-120803989D01*
X115062000Y-127508000D02*
X108712000Y-133858000D01*
X108712000Y-133858000D02*
X108712000Y-135128000D01*
X111252000Y-116078000D02*
X109067600Y-113893600D01*
X110921489Y-120803989D02*
X110921489Y-118685897D01*
X111252000Y-118355386D02*
X111252000Y-116078000D01*
%TO.N,Net-(A1-Pad27)*%
X105765600Y-123444000D02*
X108966000Y-126644400D01*
X105664000Y-123444000D02*
X105765600Y-123444000D01*
X108966000Y-126644400D02*
X108966000Y-128016000D01*
%TO.N,SD*%
X106273600Y-134112000D02*
X107238800Y-135077200D01*
X107238800Y-136499600D02*
X108458000Y-137718800D01*
X107238800Y-135077200D02*
X107238800Y-136499600D01*
%TD*%
%TA.AperFunction,Conductor*%
%TO.N,+3V3*%
G36*
X117798121Y-100604002D02*
G01*
X117844614Y-100657658D01*
X117856000Y-100710000D01*
X117856000Y-105030000D01*
X117835998Y-105098121D01*
X117782342Y-105144614D01*
X117730000Y-105156000D01*
X114808000Y-105156000D01*
X112776000Y-107188000D01*
X112776000Y-110183810D01*
X112755998Y-110251931D01*
X112739095Y-110272905D01*
X111760000Y-111252000D01*
X111760000Y-111830655D01*
X111739998Y-111898776D01*
X111686342Y-111945269D01*
X111650991Y-111955504D01*
X111568910Y-111966675D01*
X111403789Y-111989147D01*
X111399303Y-111990455D01*
X111399301Y-111990455D01*
X111369830Y-111999045D01*
X111159995Y-112060206D01*
X110929382Y-112166520D01*
X110925473Y-112169083D01*
X110720930Y-112303187D01*
X110720925Y-112303191D01*
X110717017Y-112305753D01*
X110679378Y-112339347D01*
X110575678Y-112431903D01*
X110527564Y-112474846D01*
X110365185Y-112670085D01*
X110233449Y-112887180D01*
X110231640Y-112891494D01*
X110231639Y-112891496D01*
X110171616Y-113034636D01*
X110135248Y-113121363D01*
X110072740Y-113367488D01*
X110047298Y-113620149D01*
X110047522Y-113624815D01*
X110047522Y-113624821D01*
X110049677Y-113669682D01*
X110032966Y-113738684D01*
X109981602Y-113787698D01*
X109911894Y-113801161D01*
X109845973Y-113774800D01*
X109834727Y-113764822D01*
X109738005Y-113668100D01*
X109703979Y-113605788D01*
X109701100Y-113579005D01*
X109701100Y-112500024D01*
X109721102Y-112431903D01*
X109733458Y-112415721D01*
X109806640Y-112334444D01*
X109902127Y-112169056D01*
X109961142Y-111987428D01*
X109964561Y-111954903D01*
X109980414Y-111804065D01*
X109981104Y-111797500D01*
X109961142Y-111607572D01*
X109902127Y-111425944D01*
X109880250Y-111388051D01*
X109809941Y-111266274D01*
X109806640Y-111260556D01*
X109796774Y-111249598D01*
X109683275Y-111123545D01*
X109683274Y-111123544D01*
X109678853Y-111118634D01*
X109524352Y-111006382D01*
X109518324Y-111003698D01*
X109518322Y-111003697D01*
X109355919Y-110931391D01*
X109355918Y-110931391D01*
X109349888Y-110928706D01*
X109256488Y-110908853D01*
X109169544Y-110890372D01*
X109169539Y-110890372D01*
X109163087Y-110889000D01*
X108972113Y-110889000D01*
X108965661Y-110890372D01*
X108965656Y-110890372D01*
X108878712Y-110908853D01*
X108785312Y-110928706D01*
X108779282Y-110931391D01*
X108779281Y-110931391D01*
X108616878Y-111003697D01*
X108616876Y-111003698D01*
X108610848Y-111006382D01*
X108456347Y-111118634D01*
X108451926Y-111123544D01*
X108451925Y-111123545D01*
X108338427Y-111249598D01*
X108328560Y-111260556D01*
X108325259Y-111266274D01*
X108254951Y-111388051D01*
X108233073Y-111425944D01*
X108174058Y-111607572D01*
X108154096Y-111797500D01*
X108154786Y-111804065D01*
X108170640Y-111954903D01*
X108174058Y-111987428D01*
X108233073Y-112169056D01*
X108328560Y-112334444D01*
X108401737Y-112415715D01*
X108432453Y-112479721D01*
X108434100Y-112500024D01*
X108434100Y-113814833D01*
X108433573Y-113826016D01*
X108431898Y-113833509D01*
X108432147Y-113841435D01*
X108432147Y-113841436D01*
X108434038Y-113901586D01*
X108434100Y-113905545D01*
X108434100Y-113933456D01*
X108434597Y-113937390D01*
X108434597Y-113937391D01*
X108434605Y-113937456D01*
X108435538Y-113949293D01*
X108436927Y-113993489D01*
X108442578Y-114012939D01*
X108446587Y-114032300D01*
X108449126Y-114052397D01*
X108452045Y-114059768D01*
X108452045Y-114059770D01*
X108465404Y-114093512D01*
X108469249Y-114104742D01*
X108481582Y-114147193D01*
X108485615Y-114154012D01*
X108485617Y-114154017D01*
X108491893Y-114164628D01*
X108500588Y-114182376D01*
X108508048Y-114201217D01*
X108512710Y-114207633D01*
X108512710Y-114207634D01*
X108534036Y-114236987D01*
X108540552Y-114246907D01*
X108563058Y-114284962D01*
X108577379Y-114299283D01*
X108590219Y-114314316D01*
X108602128Y-114330707D01*
X108608234Y-114335758D01*
X108636205Y-114358898D01*
X108644984Y-114366888D01*
X110581595Y-116303500D01*
X110615621Y-116365812D01*
X110618500Y-116392595D01*
X110618500Y-118040791D01*
X110598498Y-118108912D01*
X110581595Y-118129886D01*
X110529236Y-118182245D01*
X110520950Y-118189785D01*
X110514471Y-118193897D01*
X110509046Y-118199674D01*
X110467845Y-118243549D01*
X110465090Y-118246391D01*
X110445354Y-118266127D01*
X110442874Y-118269324D01*
X110435171Y-118278344D01*
X110404903Y-118310576D01*
X110401084Y-118317522D01*
X110401082Y-118317525D01*
X110395141Y-118328331D01*
X110384290Y-118344850D01*
X110371875Y-118360856D01*
X110368730Y-118368125D01*
X110368727Y-118368129D01*
X110354315Y-118401434D01*
X110349098Y-118412084D01*
X110327794Y-118450837D01*
X110325823Y-118458512D01*
X110325823Y-118458513D01*
X110322756Y-118470459D01*
X110316352Y-118489163D01*
X110308308Y-118507752D01*
X110307069Y-118515575D01*
X110307066Y-118515585D01*
X110301390Y-118551421D01*
X110298984Y-118563041D01*
X110287989Y-118605867D01*
X110287989Y-118626121D01*
X110286438Y-118645831D01*
X110283269Y-118665840D01*
X110284015Y-118673732D01*
X110287430Y-118709858D01*
X110287989Y-118721716D01*
X110287989Y-120725222D01*
X110287462Y-120736405D01*
X110285787Y-120743898D01*
X110286036Y-120751824D01*
X110286036Y-120751825D01*
X110287927Y-120811975D01*
X110287989Y-120815934D01*
X110287989Y-120843845D01*
X110288486Y-120847779D01*
X110288486Y-120847780D01*
X110288494Y-120847845D01*
X110289427Y-120859682D01*
X110290816Y-120903878D01*
X110296467Y-120923328D01*
X110300476Y-120942689D01*
X110303015Y-120962786D01*
X110305934Y-120970157D01*
X110305934Y-120970159D01*
X110319293Y-121003901D01*
X110323138Y-121015131D01*
X110335471Y-121057582D01*
X110339504Y-121064401D01*
X110339506Y-121064406D01*
X110345782Y-121075017D01*
X110354477Y-121092765D01*
X110361937Y-121111606D01*
X110366599Y-121118022D01*
X110366599Y-121118023D01*
X110387925Y-121147376D01*
X110394441Y-121157296D01*
X110416947Y-121195351D01*
X110431268Y-121209672D01*
X110444108Y-121224705D01*
X110456017Y-121241096D01*
X110462123Y-121246147D01*
X110490094Y-121269287D01*
X110498873Y-121277277D01*
X114167732Y-124946136D01*
X114198470Y-124996294D01*
X114227473Y-125085556D01*
X114322960Y-125250944D01*
X114396137Y-125332215D01*
X114426853Y-125396221D01*
X114428500Y-125416524D01*
X114428500Y-127193406D01*
X114408498Y-127261527D01*
X114391595Y-127282501D01*
X111354685Y-130319410D01*
X108319747Y-133354348D01*
X108311461Y-133361888D01*
X108304982Y-133366000D01*
X108299557Y-133371777D01*
X108258357Y-133415651D01*
X108255602Y-133418493D01*
X108235865Y-133438230D01*
X108233385Y-133441427D01*
X108225682Y-133450447D01*
X108195414Y-133482679D01*
X108191595Y-133489625D01*
X108191593Y-133489628D01*
X108185652Y-133500434D01*
X108174801Y-133516953D01*
X108162386Y-133532959D01*
X108159241Y-133540228D01*
X108159238Y-133540232D01*
X108144826Y-133573537D01*
X108139609Y-133584187D01*
X108118305Y-133622940D01*
X108116334Y-133630615D01*
X108116334Y-133630616D01*
X108113267Y-133642562D01*
X108106863Y-133661266D01*
X108098819Y-133679855D01*
X108097580Y-133687678D01*
X108097577Y-133687688D01*
X108091901Y-133723524D01*
X108089495Y-133735144D01*
X108086521Y-133746729D01*
X108078500Y-133777970D01*
X108078500Y-133798224D01*
X108076949Y-133817934D01*
X108073780Y-133837943D01*
X108074526Y-133845835D01*
X108077941Y-133881961D01*
X108078500Y-133893819D01*
X108078500Y-134425476D01*
X108058498Y-134493597D01*
X108046142Y-134509779D01*
X107972960Y-134591056D01*
X107960925Y-134611902D01*
X107936324Y-134654511D01*
X107884941Y-134703504D01*
X107815228Y-134716940D01*
X107749317Y-134690553D01*
X107738110Y-134680606D01*
X107729021Y-134671517D01*
X107716180Y-134656483D01*
X107714747Y-134654511D01*
X107704272Y-134640093D01*
X107670195Y-134611902D01*
X107661416Y-134603912D01*
X107220722Y-134163218D01*
X107186696Y-134100906D01*
X107184507Y-134087293D01*
X107167832Y-133928635D01*
X107167832Y-133928633D01*
X107167142Y-133922072D01*
X107108127Y-133740444D01*
X107101745Y-133729389D01*
X107062413Y-133661266D01*
X107012640Y-133575056D01*
X106999673Y-133560654D01*
X106889275Y-133438045D01*
X106889274Y-133438044D01*
X106884853Y-133433134D01*
X106730352Y-133320882D01*
X106724324Y-133318198D01*
X106724322Y-133318197D01*
X106561919Y-133245891D01*
X106561918Y-133245891D01*
X106555888Y-133243206D01*
X106451347Y-133220985D01*
X106375544Y-133204872D01*
X106375539Y-133204872D01*
X106369087Y-133203500D01*
X106178113Y-133203500D01*
X106171661Y-133204872D01*
X106171656Y-133204872D01*
X106095853Y-133220985D01*
X105991312Y-133243206D01*
X105985282Y-133245891D01*
X105985281Y-133245891D01*
X105822878Y-133318197D01*
X105822876Y-133318198D01*
X105816848Y-133320882D01*
X105662347Y-133433134D01*
X105657926Y-133438044D01*
X105657925Y-133438045D01*
X105547528Y-133560654D01*
X105534560Y-133575056D01*
X105484787Y-133661266D01*
X105445456Y-133729389D01*
X105439073Y-133740444D01*
X105380058Y-133922072D01*
X105379368Y-133928633D01*
X105379368Y-133928635D01*
X105363092Y-134083499D01*
X105360096Y-134112000D01*
X105360786Y-134118565D01*
X105365637Y-134164715D01*
X105380058Y-134301928D01*
X105439073Y-134483556D01*
X105442376Y-134489278D01*
X105442377Y-134489279D01*
X105476286Y-134548010D01*
X105534560Y-134648944D01*
X105538978Y-134653851D01*
X105538979Y-134653852D01*
X105567779Y-134685838D01*
X105662347Y-134790866D01*
X105816848Y-134903118D01*
X105822876Y-134905802D01*
X105822878Y-134905803D01*
X105985281Y-134978109D01*
X105991312Y-134980794D01*
X106084712Y-135000647D01*
X106171656Y-135019128D01*
X106171661Y-135019128D01*
X106178113Y-135020500D01*
X106234005Y-135020500D01*
X106302126Y-135040502D01*
X106323101Y-135057405D01*
X106568396Y-135302701D01*
X106602421Y-135365013D01*
X106605300Y-135391796D01*
X106605300Y-136420833D01*
X106604773Y-136432016D01*
X106603098Y-136439509D01*
X106603347Y-136447435D01*
X106603347Y-136447436D01*
X106605238Y-136507586D01*
X106605300Y-136511545D01*
X106605300Y-136539456D01*
X106605797Y-136543390D01*
X106605797Y-136543391D01*
X106605805Y-136543456D01*
X106606738Y-136555293D01*
X106608127Y-136599489D01*
X106613778Y-136618939D01*
X106617787Y-136638300D01*
X106620326Y-136658397D01*
X106623245Y-136665768D01*
X106623245Y-136665770D01*
X106636604Y-136699512D01*
X106640449Y-136710742D01*
X106650571Y-136745583D01*
X106652782Y-136753193D01*
X106656815Y-136760012D01*
X106656817Y-136760017D01*
X106663093Y-136770628D01*
X106671788Y-136788376D01*
X106679248Y-136807217D01*
X106683910Y-136813633D01*
X106683910Y-136813634D01*
X106705236Y-136842987D01*
X106711752Y-136852907D01*
X106729294Y-136882568D01*
X106734258Y-136890962D01*
X106748579Y-136905283D01*
X106761419Y-136920316D01*
X106773328Y-136936707D01*
X106806913Y-136964491D01*
X106807405Y-136964898D01*
X106816184Y-136972888D01*
X107510878Y-137667582D01*
X107544904Y-137729894D01*
X107547093Y-137743507D01*
X107562748Y-137892455D01*
X107564458Y-137908728D01*
X107623473Y-138090356D01*
X107718960Y-138255744D01*
X107723378Y-138260651D01*
X107723379Y-138260652D01*
X107812489Y-138359619D01*
X107846747Y-138397666D01*
X108001248Y-138509918D01*
X108007276Y-138512602D01*
X108007278Y-138512603D01*
X108169681Y-138584909D01*
X108175712Y-138587594D01*
X108269113Y-138607447D01*
X108356056Y-138625928D01*
X108356061Y-138625928D01*
X108362513Y-138627300D01*
X108553487Y-138627300D01*
X108559939Y-138625928D01*
X108559944Y-138625928D01*
X108646887Y-138607447D01*
X108740288Y-138587594D01*
X108746319Y-138584909D01*
X108908722Y-138512603D01*
X108908724Y-138512602D01*
X108914752Y-138509918D01*
X109069253Y-138397666D01*
X109103511Y-138359619D01*
X109192621Y-138260652D01*
X109192622Y-138260651D01*
X109197040Y-138255744D01*
X109292527Y-138090356D01*
X109351542Y-137908728D01*
X109353253Y-137892455D01*
X109370814Y-137725365D01*
X109371504Y-137718800D01*
X109358801Y-137597941D01*
X109352232Y-137535435D01*
X109352232Y-137535433D01*
X109351542Y-137528872D01*
X109292527Y-137347244D01*
X109276849Y-137320088D01*
X109200341Y-137187574D01*
X109197040Y-137181856D01*
X109069253Y-137039934D01*
X108927174Y-136936707D01*
X108920094Y-136931563D01*
X108920093Y-136931562D01*
X108914752Y-136927682D01*
X108908724Y-136924998D01*
X108908722Y-136924997D01*
X108746319Y-136852691D01*
X108746318Y-136852691D01*
X108740288Y-136850006D01*
X108646887Y-136830153D01*
X108559944Y-136811672D01*
X108559939Y-136811672D01*
X108553487Y-136810300D01*
X108497595Y-136810300D01*
X108429474Y-136790298D01*
X108408500Y-136773395D01*
X107909205Y-136274100D01*
X107875179Y-136211788D01*
X107872300Y-136185005D01*
X107872300Y-135881390D01*
X107892302Y-135813269D01*
X107945958Y-135766776D01*
X108016232Y-135756672D01*
X108080812Y-135786166D01*
X108091926Y-135797069D01*
X108100747Y-135806866D01*
X108109560Y-135813269D01*
X108221552Y-135894636D01*
X108255248Y-135919118D01*
X108261276Y-135921802D01*
X108261278Y-135921803D01*
X108423681Y-135994109D01*
X108429712Y-135996794D01*
X108523112Y-136016647D01*
X108610056Y-136035128D01*
X108610061Y-136035128D01*
X108616513Y-136036500D01*
X108807487Y-136036500D01*
X108813939Y-136035128D01*
X108813944Y-136035128D01*
X108900888Y-136016647D01*
X108994288Y-135996794D01*
X109000319Y-135994109D01*
X109162722Y-135921803D01*
X109162724Y-135921802D01*
X109168752Y-135919118D01*
X109202449Y-135894636D01*
X109314440Y-135813269D01*
X109323253Y-135806866D01*
X109328943Y-135800547D01*
X109446621Y-135669852D01*
X109446622Y-135669851D01*
X109451040Y-135664944D01*
X109546527Y-135499556D01*
X109605542Y-135317928D01*
X109607143Y-135302701D01*
X109624814Y-135134565D01*
X109625504Y-135128000D01*
X109616308Y-135040502D01*
X109606232Y-134944635D01*
X109606232Y-134944633D01*
X109605542Y-134938072D01*
X109546527Y-134756444D01*
X109451040Y-134591056D01*
X109377863Y-134509785D01*
X109347147Y-134445779D01*
X109345500Y-134425476D01*
X109345500Y-134172594D01*
X109365502Y-134104473D01*
X109382405Y-134083499D01*
X115454253Y-128011652D01*
X115462539Y-128004112D01*
X115469018Y-128000000D01*
X115515644Y-127950348D01*
X115518398Y-127947507D01*
X115538135Y-127927770D01*
X115540615Y-127924573D01*
X115548320Y-127915551D01*
X115563955Y-127898901D01*
X115578586Y-127883321D01*
X115582405Y-127876375D01*
X115582407Y-127876372D01*
X115588348Y-127865566D01*
X115599199Y-127849047D01*
X115599559Y-127848583D01*
X115611614Y-127833041D01*
X115614759Y-127825772D01*
X115614762Y-127825768D01*
X115629174Y-127792463D01*
X115634391Y-127781813D01*
X115655695Y-127743060D01*
X115660733Y-127723437D01*
X115667137Y-127704734D01*
X115672033Y-127693420D01*
X115672033Y-127693419D01*
X115675181Y-127686145D01*
X115676420Y-127678322D01*
X115676423Y-127678312D01*
X115682099Y-127642476D01*
X115684505Y-127630856D01*
X115693528Y-127595711D01*
X115693528Y-127595710D01*
X115695500Y-127588030D01*
X115695500Y-127567776D01*
X115697051Y-127548065D01*
X115698980Y-127535886D01*
X115700220Y-127528057D01*
X115696059Y-127484038D01*
X115695500Y-127472181D01*
X115695500Y-125416524D01*
X115715502Y-125348403D01*
X115727858Y-125332221D01*
X115801040Y-125250944D01*
X115896527Y-125085556D01*
X115955542Y-124903928D01*
X115975504Y-124714000D01*
X115970680Y-124668099D01*
X115956232Y-124530635D01*
X115956232Y-124530633D01*
X115955542Y-124524072D01*
X115896527Y-124342444D01*
X115801040Y-124177056D01*
X115673253Y-124035134D01*
X115518752Y-123922882D01*
X115512724Y-123920198D01*
X115512722Y-123920197D01*
X115350319Y-123847891D01*
X115350318Y-123847891D01*
X115344288Y-123845206D01*
X115250888Y-123825353D01*
X115163944Y-123806872D01*
X115163939Y-123806872D01*
X115157487Y-123805500D01*
X114966513Y-123805500D01*
X114960058Y-123806872D01*
X114960049Y-123806873D01*
X114911698Y-123817151D01*
X114840907Y-123811750D01*
X114796405Y-123783000D01*
X111591894Y-120578489D01*
X111557868Y-120516177D01*
X111554989Y-120489394D01*
X111554989Y-120020500D01*
X111574991Y-119952379D01*
X111628647Y-119905886D01*
X111680989Y-119894500D01*
X111741487Y-119894500D01*
X111747939Y-119893128D01*
X111747944Y-119893128D01*
X111834888Y-119874647D01*
X111928288Y-119854794D01*
X111934319Y-119852109D01*
X112096722Y-119779803D01*
X112096724Y-119779802D01*
X112102752Y-119777118D01*
X112257253Y-119664866D01*
X112261675Y-119659955D01*
X112380621Y-119527852D01*
X112380622Y-119527851D01*
X112385040Y-119522944D01*
X112480527Y-119357556D01*
X112530167Y-119204781D01*
X112570241Y-119146175D01*
X112635637Y-119118538D01*
X112705594Y-119130645D01*
X112757900Y-119178651D01*
X112776000Y-119243717D01*
X112776000Y-120904000D01*
X114300000Y-122428000D01*
X120653998Y-122428000D01*
X120722119Y-122448002D01*
X120757210Y-122481728D01*
X120773599Y-122505134D01*
X120935497Y-122667032D01*
X120940005Y-122670189D01*
X120940008Y-122670191D01*
X120998018Y-122710810D01*
X121123048Y-122798357D01*
X121128030Y-122800680D01*
X121128035Y-122800683D01*
X121162254Y-122816639D01*
X121215539Y-122863556D01*
X121235000Y-122931833D01*
X121214458Y-122999793D01*
X121162254Y-123045029D01*
X121128035Y-123060985D01*
X121128030Y-123060988D01*
X121123048Y-123063311D01*
X121018186Y-123136736D01*
X120940008Y-123191477D01*
X120940005Y-123191479D01*
X120935497Y-123194636D01*
X120773599Y-123356534D01*
X120770442Y-123361042D01*
X120770440Y-123361045D01*
X120715699Y-123439223D01*
X120642274Y-123544085D01*
X120639951Y-123549067D01*
X120639948Y-123549072D01*
X120625631Y-123579776D01*
X120545513Y-123751591D01*
X120544091Y-123756899D01*
X120544090Y-123756901D01*
X120535437Y-123789196D01*
X120486254Y-123972747D01*
X120466299Y-124200834D01*
X120486254Y-124428921D01*
X120487678Y-124434234D01*
X120487678Y-124434236D01*
X120538086Y-124622358D01*
X120545513Y-124650077D01*
X120547836Y-124655058D01*
X120547836Y-124655059D01*
X120639948Y-124852596D01*
X120639951Y-124852601D01*
X120642274Y-124857583D01*
X120773599Y-125045134D01*
X120935497Y-125207032D01*
X120940005Y-125210189D01*
X120940008Y-125210191D01*
X120998210Y-125250944D01*
X121123048Y-125338357D01*
X121128030Y-125340680D01*
X121128035Y-125340683D01*
X121162254Y-125356639D01*
X121215539Y-125403556D01*
X121235000Y-125471833D01*
X121214458Y-125539793D01*
X121162254Y-125585029D01*
X121128035Y-125600985D01*
X121128030Y-125600988D01*
X121123048Y-125603311D01*
X121069870Y-125640547D01*
X120940008Y-125731477D01*
X120940005Y-125731479D01*
X120935497Y-125734636D01*
X120773599Y-125896534D01*
X120642274Y-126084085D01*
X120639951Y-126089067D01*
X120639948Y-126089072D01*
X120581831Y-126213706D01*
X120545513Y-126291591D01*
X120544091Y-126296899D01*
X120544090Y-126296901D01*
X120523600Y-126373372D01*
X120486254Y-126512747D01*
X120466299Y-126740834D01*
X120486254Y-126968921D01*
X120487678Y-126974234D01*
X120487678Y-126974236D01*
X120502439Y-127029322D01*
X120545513Y-127190077D01*
X120547836Y-127195058D01*
X120547836Y-127195059D01*
X120639948Y-127392596D01*
X120639951Y-127392601D01*
X120642274Y-127397583D01*
X120655733Y-127416804D01*
X120770075Y-127580101D01*
X120773599Y-127585134D01*
X120935497Y-127747032D01*
X120940005Y-127750189D01*
X120940008Y-127750191D01*
X120992593Y-127787011D01*
X121123048Y-127878357D01*
X121128030Y-127880680D01*
X121128035Y-127880683D01*
X121162254Y-127896639D01*
X121215539Y-127943556D01*
X121235000Y-128011833D01*
X121214458Y-128079793D01*
X121162254Y-128125029D01*
X121128035Y-128140985D01*
X121128030Y-128140988D01*
X121123048Y-128143311D01*
X121069870Y-128180547D01*
X120940008Y-128271477D01*
X120940005Y-128271479D01*
X120935497Y-128274636D01*
X120773599Y-128436534D01*
X120642274Y-128624085D01*
X120639951Y-128629067D01*
X120639948Y-128629072D01*
X120602262Y-128709892D01*
X120545513Y-128831591D01*
X120544089Y-128836904D01*
X120544089Y-128836905D01*
X120516837Y-128938611D01*
X120479885Y-128999234D01*
X120416025Y-129030255D01*
X120395130Y-129032000D01*
X114808000Y-129032000D01*
X112776000Y-131064000D01*
X112776000Y-134567810D01*
X112755998Y-134635931D01*
X112739095Y-134656905D01*
X111760000Y-135636000D01*
X111760000Y-135915358D01*
X111739998Y-135983479D01*
X111686342Y-136029972D01*
X111650994Y-136040206D01*
X111393364Y-136075268D01*
X111142435Y-136148407D01*
X111138182Y-136150367D01*
X111138181Y-136150368D01*
X111087890Y-136173553D01*
X110905074Y-136257832D01*
X110855026Y-136290645D01*
X110690406Y-136398574D01*
X110690401Y-136398578D01*
X110686493Y-136401140D01*
X110491496Y-136575182D01*
X110324365Y-136776134D01*
X110321936Y-136780137D01*
X110208343Y-136967333D01*
X110188773Y-136999583D01*
X110087699Y-137240619D01*
X110023361Y-137493947D01*
X110022893Y-137498598D01*
X110022892Y-137498602D01*
X110020476Y-137522594D01*
X109997175Y-137754003D01*
X109997399Y-137758669D01*
X109997399Y-137758675D01*
X110001016Y-137833962D01*
X110009715Y-138015072D01*
X110060706Y-138271420D01*
X110149028Y-138517416D01*
X110151244Y-138521540D01*
X110215755Y-138641601D01*
X110272739Y-138747655D01*
X110275534Y-138751398D01*
X110275536Y-138751401D01*
X110426332Y-138953341D01*
X110426337Y-138953347D01*
X110429124Y-138957079D01*
X110432433Y-138960359D01*
X110432438Y-138960365D01*
X110611428Y-139137799D01*
X110614745Y-139141087D01*
X110618507Y-139143845D01*
X110618510Y-139143848D01*
X110788484Y-139268478D01*
X110825526Y-139295638D01*
X110829669Y-139297818D01*
X110829671Y-139297819D01*
X111052686Y-139415153D01*
X111052691Y-139415155D01*
X111056836Y-139417336D01*
X111303592Y-139503508D01*
X111308185Y-139504380D01*
X111555787Y-139551388D01*
X111555790Y-139551388D01*
X111560376Y-139552259D01*
X111638948Y-139555346D01*
X111706230Y-139578007D01*
X111750580Y-139633447D01*
X111760000Y-139681249D01*
X111760000Y-140208000D01*
X112739095Y-141187095D01*
X112773121Y-141249407D01*
X112776000Y-141276190D01*
X112776000Y-143764000D01*
X112784006Y-143770405D01*
X112784007Y-143770406D01*
X113205482Y-144107586D01*
X115316000Y-145796000D01*
X121466536Y-145796000D01*
X121499147Y-145800293D01*
X121534364Y-145809729D01*
X121551710Y-145814377D01*
X121779797Y-145834332D01*
X122007884Y-145814377D01*
X122025230Y-145809729D01*
X122060447Y-145800293D01*
X122093058Y-145796000D01*
X122428000Y-145796000D01*
X124475405Y-143748595D01*
X124537717Y-143714569D01*
X124608532Y-143719634D01*
X124665368Y-143762181D01*
X124690179Y-143828701D01*
X124690500Y-143837690D01*
X124690500Y-145033134D01*
X124690869Y-145036531D01*
X124691080Y-145038475D01*
X124697255Y-145095316D01*
X124748385Y-145231705D01*
X124835739Y-145348261D01*
X124952295Y-145435615D01*
X125088684Y-145486745D01*
X125150866Y-145493500D01*
X126947134Y-145493500D01*
X127009316Y-145486745D01*
X127145705Y-145435615D01*
X127262261Y-145348261D01*
X127349615Y-145231705D01*
X127354346Y-145219086D01*
X127393598Y-145114382D01*
X127436240Y-145057618D01*
X127502802Y-145032918D01*
X127572150Y-145048126D01*
X127606817Y-145076114D01*
X127635250Y-145108938D01*
X127807126Y-145251632D01*
X128000000Y-145364338D01*
X128004825Y-145366180D01*
X128004826Y-145366181D01*
X128044209Y-145381220D01*
X128208692Y-145444030D01*
X128213760Y-145445061D01*
X128213763Y-145445062D01*
X128321017Y-145466883D01*
X128427597Y-145488567D01*
X128432772Y-145488757D01*
X128432774Y-145488757D01*
X128645673Y-145496564D01*
X128645677Y-145496564D01*
X128650837Y-145496753D01*
X128655957Y-145496097D01*
X128655959Y-145496097D01*
X128867288Y-145469025D01*
X128867289Y-145469025D01*
X128872416Y-145468368D01*
X128877366Y-145466883D01*
X129081429Y-145405661D01*
X129081434Y-145405659D01*
X129086384Y-145404174D01*
X129286994Y-145305896D01*
X129291203Y-145302894D01*
X129291211Y-145302889D01*
X129325206Y-145278641D01*
X129392279Y-145255367D01*
X129461288Y-145272052D01*
X129510321Y-145323396D01*
X129524373Y-145381220D01*
X129524373Y-149272957D01*
X129520256Y-149304901D01*
X129505168Y-149362469D01*
X129472380Y-149419620D01*
X128560905Y-150331095D01*
X128498593Y-150365121D01*
X128471810Y-150368000D01*
X121216085Y-150368000D01*
X121147964Y-150347998D01*
X121101471Y-150294342D01*
X121091367Y-150224068D01*
X121120861Y-150159488D01*
X121171445Y-150124173D01*
X121230314Y-150101870D01*
X121230323Y-150101866D01*
X121234588Y-150100250D01*
X121470368Y-149969286D01*
X121684773Y-149805657D01*
X121873312Y-149612792D01*
X122032034Y-149394730D01*
X122115190Y-149236676D01*
X122155490Y-149160079D01*
X122155493Y-149160073D01*
X122157615Y-149156039D01*
X122220378Y-148978312D01*
X122245902Y-148906033D01*
X122245902Y-148906032D01*
X122247425Y-148901720D01*
X122299581Y-148637100D01*
X122308782Y-148452277D01*
X122312764Y-148372292D01*
X122312764Y-148372286D01*
X122312991Y-148367723D01*
X122287375Y-148099231D01*
X122242042Y-147913967D01*
X122224355Y-147841688D01*
X122223269Y-147837250D01*
X122122015Y-147587267D01*
X121985735Y-147354518D01*
X121867928Y-147207208D01*
X121820136Y-147147447D01*
X121820135Y-147147445D01*
X121817284Y-147143881D01*
X121620191Y-146959766D01*
X121398584Y-146806032D01*
X121394501Y-146804001D01*
X121394498Y-146803999D01*
X121229606Y-146721967D01*
X121157106Y-146685899D01*
X121152772Y-146684478D01*
X121152769Y-146684477D01*
X120905147Y-146603302D01*
X120905141Y-146603301D01*
X120900814Y-146601882D01*
X120896322Y-146601102D01*
X120638860Y-146556399D01*
X120638852Y-146556398D01*
X120635079Y-146555743D01*
X120623817Y-146555182D01*
X120551422Y-146551578D01*
X120551414Y-146551578D01*
X120549851Y-146551500D01*
X120381488Y-146551500D01*
X120379220Y-146551665D01*
X120379208Y-146551665D01*
X120248116Y-146561177D01*
X120180996Y-146566047D01*
X120176541Y-146567031D01*
X120176538Y-146567031D01*
X119922088Y-146623209D01*
X119922084Y-146623210D01*
X119917628Y-146624194D01*
X119791520Y-146671972D01*
X119669682Y-146718132D01*
X119669679Y-146718133D01*
X119665412Y-146719750D01*
X119429632Y-146850714D01*
X119215227Y-147014343D01*
X119026688Y-147207208D01*
X118867966Y-147425270D01*
X118865844Y-147429304D01*
X118744510Y-147659921D01*
X118744507Y-147659927D01*
X118742385Y-147663961D01*
X118740865Y-147668266D01*
X118740863Y-147668270D01*
X118654098Y-147913967D01*
X118652575Y-147918280D01*
X118600419Y-148182900D01*
X118600192Y-148187453D01*
X118600192Y-148187456D01*
X118590410Y-148383967D01*
X118587009Y-148452277D01*
X118612625Y-148720769D01*
X118613710Y-148725203D01*
X118613711Y-148725209D01*
X118658163Y-148906868D01*
X118676731Y-148982750D01*
X118777985Y-149232733D01*
X118914265Y-149465482D01*
X118945492Y-149504529D01*
X119034686Y-149616060D01*
X119082716Y-149676119D01*
X119279809Y-149860234D01*
X119501416Y-150013968D01*
X119505499Y-150015999D01*
X119505502Y-150016001D01*
X119733020Y-150129189D01*
X119785101Y-150177440D01*
X119802828Y-150246187D01*
X119780573Y-150313606D01*
X119725402Y-150358290D01*
X119676898Y-150368000D01*
X104266000Y-150368000D01*
X104197879Y-150347998D01*
X104151386Y-150294342D01*
X104140000Y-150242000D01*
X104140000Y-149562173D01*
X104160002Y-149494052D01*
X104164129Y-149488023D01*
X104229347Y-149398423D01*
X104229353Y-149398413D01*
X104232034Y-149394730D01*
X104315190Y-149236676D01*
X104355490Y-149160079D01*
X104355493Y-149160073D01*
X104357615Y-149156039D01*
X104420378Y-148978312D01*
X104445902Y-148906033D01*
X104445902Y-148906032D01*
X104447425Y-148901720D01*
X104499581Y-148637100D01*
X104508782Y-148452277D01*
X104512764Y-148372292D01*
X104512764Y-148372286D01*
X104512991Y-148367723D01*
X104487375Y-148099231D01*
X104442042Y-147913967D01*
X104424355Y-147841688D01*
X104423269Y-147837250D01*
X104322015Y-147587267D01*
X104185735Y-147354518D01*
X104167596Y-147331836D01*
X104140672Y-147266142D01*
X104140000Y-147253142D01*
X104140000Y-146304000D01*
X100710000Y-146304000D01*
X100641879Y-146283998D01*
X100595386Y-146230342D01*
X100584000Y-146178000D01*
X100584000Y-145747022D01*
X100604002Y-145678901D01*
X100657658Y-145632408D01*
X100727932Y-145622304D01*
X100782270Y-145643808D01*
X100803048Y-145658357D01*
X100808030Y-145660680D01*
X100808035Y-145660683D01*
X100877456Y-145693054D01*
X101010554Y-145755118D01*
X101015862Y-145756540D01*
X101015864Y-145756541D01*
X101226395Y-145812953D01*
X101226397Y-145812953D01*
X101231710Y-145814377D01*
X101459797Y-145834332D01*
X101687884Y-145814377D01*
X101693197Y-145812953D01*
X101693199Y-145812953D01*
X101903730Y-145756541D01*
X101903732Y-145756540D01*
X101909040Y-145755118D01*
X102042138Y-145693054D01*
X102111559Y-145660683D01*
X102111564Y-145660680D01*
X102116546Y-145658357D01*
X102260797Y-145557351D01*
X102299586Y-145530191D01*
X102299589Y-145530189D01*
X102304097Y-145527032D01*
X102331460Y-145499669D01*
X104862001Y-145499669D01*
X104862371Y-145506490D01*
X104867895Y-145557352D01*
X104871521Y-145572604D01*
X104916676Y-145693054D01*
X104925214Y-145708649D01*
X105001715Y-145810724D01*
X105014276Y-145823285D01*
X105116351Y-145899786D01*
X105131946Y-145908324D01*
X105252394Y-145953478D01*
X105267649Y-145957105D01*
X105318514Y-145962631D01*
X105325328Y-145963000D01*
X105772885Y-145963000D01*
X105788124Y-145958525D01*
X105789329Y-145957135D01*
X105791000Y-145949452D01*
X105791000Y-145944884D01*
X106299000Y-145944884D01*
X106303475Y-145960123D01*
X106304865Y-145961328D01*
X106312548Y-145962999D01*
X106764669Y-145962999D01*
X106771490Y-145962629D01*
X106822352Y-145957105D01*
X106837604Y-145953479D01*
X106958054Y-145908324D01*
X106973649Y-145899786D01*
X107075724Y-145823285D01*
X107088285Y-145810724D01*
X107164786Y-145708649D01*
X107173324Y-145693054D01*
X107218478Y-145572606D01*
X107222105Y-145557351D01*
X107227631Y-145506486D01*
X107228000Y-145499672D01*
X107228000Y-145052115D01*
X107223525Y-145036876D01*
X107222135Y-145035671D01*
X107214452Y-145034000D01*
X106317115Y-145034000D01*
X106301876Y-145038475D01*
X106300671Y-145039865D01*
X106299000Y-145047548D01*
X106299000Y-145944884D01*
X105791000Y-145944884D01*
X105791000Y-145052115D01*
X105786525Y-145036876D01*
X105785135Y-145035671D01*
X105777452Y-145034000D01*
X104880116Y-145034000D01*
X104864877Y-145038475D01*
X104863672Y-145039865D01*
X104862001Y-145047548D01*
X104862001Y-145499669D01*
X102331460Y-145499669D01*
X102465995Y-145365134D01*
X102495221Y-145323396D01*
X102547784Y-145248327D01*
X102597320Y-145177583D01*
X102599643Y-145172601D01*
X102599646Y-145172596D01*
X102691758Y-144975059D01*
X102691758Y-144975058D01*
X102694081Y-144970077D01*
X102737748Y-144807113D01*
X102751916Y-144754236D01*
X102751916Y-144754234D01*
X102753340Y-144748921D01*
X102773295Y-144520834D01*
X102753340Y-144292747D01*
X102751918Y-144287442D01*
X102751916Y-144287428D01*
X102736338Y-144229295D01*
X102738026Y-144158318D01*
X102768949Y-144107586D01*
X103426086Y-143450450D01*
X103434365Y-143442916D01*
X103440846Y-143438803D01*
X103487472Y-143389151D01*
X103490226Y-143386310D01*
X103509963Y-143366573D01*
X103512443Y-143363376D01*
X103520148Y-143354354D01*
X103544987Y-143327903D01*
X103550414Y-143322124D01*
X103554233Y-143315178D01*
X103554235Y-143315175D01*
X103560176Y-143304369D01*
X103571027Y-143287850D01*
X103578586Y-143278104D01*
X103583442Y-143271844D01*
X103586587Y-143264575D01*
X103586590Y-143264571D01*
X103601002Y-143231266D01*
X103606219Y-143220616D01*
X103627523Y-143181863D01*
X103632561Y-143162240D01*
X103638965Y-143143537D01*
X103643861Y-143132223D01*
X103643861Y-143132222D01*
X103647009Y-143124948D01*
X103648248Y-143117125D01*
X103648251Y-143117115D01*
X103653927Y-143081279D01*
X103656333Y-143069659D01*
X103665356Y-143034514D01*
X103665356Y-143034513D01*
X103667328Y-143026833D01*
X103667328Y-143006579D01*
X103668879Y-142986868D01*
X103670808Y-142974689D01*
X103672048Y-142966860D01*
X103667887Y-142922841D01*
X103667328Y-142910984D01*
X103667328Y-142748887D01*
X104856837Y-142748887D01*
X104871063Y-142965933D01*
X104872484Y-142971529D01*
X104872485Y-142971534D01*
X104909083Y-143115635D01*
X104924605Y-143176753D01*
X105015668Y-143374285D01*
X105111919Y-143510477D01*
X105134899Y-143577649D01*
X105117915Y-143646584D01*
X105084586Y-143684022D01*
X105014272Y-143736719D01*
X105001715Y-143749276D01*
X104925214Y-143851351D01*
X104916676Y-143866946D01*
X104871522Y-143987394D01*
X104867895Y-144002649D01*
X104862369Y-144053514D01*
X104862000Y-144060328D01*
X104862000Y-144507885D01*
X104866475Y-144523124D01*
X104867865Y-144524329D01*
X104875548Y-144526000D01*
X107209884Y-144526000D01*
X107225123Y-144521525D01*
X107226328Y-144520135D01*
X107227999Y-144512452D01*
X107227999Y-144060331D01*
X107227629Y-144053510D01*
X107222105Y-144002648D01*
X107218479Y-143987396D01*
X107173324Y-143866946D01*
X107164786Y-143851351D01*
X107088285Y-143749276D01*
X107075724Y-143736715D01*
X107005002Y-143683712D01*
X106962487Y-143626853D01*
X106957461Y-143556035D01*
X106983693Y-143502317D01*
X107020834Y-143457659D01*
X107024532Y-143453213D01*
X107130813Y-143263435D01*
X107132669Y-143257968D01*
X107132671Y-143257963D01*
X107198874Y-143062935D01*
X107198875Y-143062930D01*
X107200730Y-143057466D01*
X107231941Y-142842205D01*
X107233570Y-142780000D01*
X107213667Y-142563400D01*
X107154626Y-142354055D01*
X107058423Y-142158974D01*
X106928280Y-141984691D01*
X106806078Y-141871729D01*
X106769633Y-141810800D01*
X106771914Y-141739840D01*
X106811038Y-141682330D01*
X106881008Y-141624137D01*
X106885446Y-141620446D01*
X107024532Y-141453213D01*
X107130813Y-141263435D01*
X107132669Y-141257968D01*
X107132671Y-141257963D01*
X107198874Y-141062935D01*
X107198875Y-141062930D01*
X107200730Y-141057466D01*
X107231941Y-140842205D01*
X107233570Y-140780000D01*
X107213667Y-140563400D01*
X107207718Y-140542304D01*
X107168241Y-140402332D01*
X107154626Y-140354055D01*
X107058423Y-140158974D01*
X106928280Y-139984691D01*
X106806078Y-139871729D01*
X106769633Y-139810800D01*
X106771914Y-139739840D01*
X106811038Y-139682330D01*
X106881008Y-139624137D01*
X106885446Y-139620446D01*
X107024532Y-139453213D01*
X107111557Y-139297819D01*
X107127989Y-139268478D01*
X107127990Y-139268476D01*
X107130813Y-139263435D01*
X107132669Y-139257968D01*
X107132671Y-139257963D01*
X107198874Y-139062935D01*
X107198875Y-139062930D01*
X107200730Y-139057466D01*
X107231941Y-138842205D01*
X107233570Y-138780000D01*
X107213667Y-138563400D01*
X107154626Y-138354055D01*
X107058423Y-138158974D01*
X107002491Y-138084071D01*
X106931733Y-137989315D01*
X106931732Y-137989314D01*
X106928280Y-137984691D01*
X106852895Y-137915006D01*
X106772796Y-137840963D01*
X106772793Y-137840961D01*
X106768556Y-137837044D01*
X106584599Y-137720976D01*
X106382572Y-137640376D01*
X106169239Y-137597941D01*
X106163464Y-137597865D01*
X106163460Y-137597865D01*
X106054419Y-137596438D01*
X105951746Y-137595094D01*
X105946049Y-137596073D01*
X105946048Y-137596073D01*
X105743065Y-137630952D01*
X105743062Y-137630953D01*
X105737375Y-137631930D01*
X105533307Y-137707214D01*
X105346376Y-137818427D01*
X105182842Y-137961842D01*
X105179270Y-137966373D01*
X105077018Y-138096079D01*
X105048181Y-138132658D01*
X104946905Y-138325154D01*
X104945192Y-138330671D01*
X104889534Y-138509918D01*
X104882403Y-138532882D01*
X104856837Y-138748887D01*
X104871063Y-138965933D01*
X104872484Y-138971529D01*
X104872485Y-138971534D01*
X104914712Y-139137799D01*
X104924605Y-139176753D01*
X105015668Y-139374285D01*
X105019001Y-139379001D01*
X105078111Y-139462639D01*
X105141204Y-139551914D01*
X105261316Y-139668921D01*
X105284741Y-139691741D01*
X105319579Y-139753602D01*
X105315442Y-139824478D01*
X105279899Y-139876726D01*
X105182842Y-139961842D01*
X105179270Y-139966373D01*
X105076944Y-140096173D01*
X105048181Y-140132658D01*
X104946905Y-140325154D01*
X104945192Y-140330671D01*
X104893143Y-140498295D01*
X104882403Y-140532882D01*
X104856837Y-140748887D01*
X104871063Y-140965933D01*
X104872484Y-140971529D01*
X104872485Y-140971534D01*
X104923184Y-141171158D01*
X104924605Y-141176753D01*
X105015668Y-141374285D01*
X105141204Y-141551914D01*
X105145346Y-141555949D01*
X105284741Y-141691741D01*
X105319579Y-141753602D01*
X105315442Y-141824478D01*
X105279899Y-141876726D01*
X105182842Y-141961842D01*
X105048181Y-142132658D01*
X105045493Y-142137767D01*
X104997543Y-142228906D01*
X104946905Y-142325154D01*
X104882403Y-142532882D01*
X104856837Y-142748887D01*
X103667328Y-142748887D01*
X103667328Y-137945766D01*
X103687330Y-137877645D01*
X103704233Y-137856671D01*
X104532247Y-137028657D01*
X104540537Y-137021113D01*
X104547018Y-137017000D01*
X104593659Y-136967332D01*
X104596413Y-136964491D01*
X104616134Y-136944770D01*
X104618612Y-136941575D01*
X104626318Y-136932553D01*
X104651158Y-136906101D01*
X104656586Y-136900321D01*
X104666346Y-136882568D01*
X104677199Y-136866045D01*
X104684753Y-136856306D01*
X104689613Y-136850041D01*
X104707176Y-136809457D01*
X104712383Y-136798827D01*
X104733695Y-136760060D01*
X104735666Y-136752383D01*
X104735668Y-136752378D01*
X104738732Y-136740442D01*
X104745138Y-136721730D01*
X104750034Y-136710417D01*
X104753181Y-136703145D01*
X104760097Y-136659481D01*
X104762504Y-136647860D01*
X104771528Y-136612711D01*
X104771528Y-136612710D01*
X104773500Y-136605030D01*
X104773500Y-136584769D01*
X104775051Y-136565058D01*
X104776979Y-136552885D01*
X104778219Y-136545057D01*
X104774059Y-136501046D01*
X104773500Y-136489189D01*
X104773500Y-133612844D01*
X104793502Y-133544723D01*
X104810405Y-133523749D01*
X106171431Y-132162723D01*
X106209277Y-132136711D01*
X106265222Y-132111803D01*
X106265224Y-132111802D01*
X106271252Y-132109118D01*
X106425753Y-131996866D01*
X106553540Y-131854944D01*
X106649027Y-131689556D01*
X106708042Y-131507928D01*
X106725407Y-131342706D01*
X106752420Y-131277050D01*
X106761622Y-131266782D01*
X107732647Y-130295757D01*
X107740937Y-130288213D01*
X107747418Y-130284100D01*
X107794059Y-130234432D01*
X107796813Y-130231591D01*
X107816534Y-130211870D01*
X107819012Y-130208675D01*
X107826718Y-130199653D01*
X107851558Y-130173201D01*
X107856986Y-130167421D01*
X107866746Y-130149668D01*
X107877599Y-130133145D01*
X107885153Y-130123406D01*
X107890013Y-130117141D01*
X107907576Y-130076557D01*
X107912783Y-130065927D01*
X107934095Y-130027160D01*
X107936066Y-130019483D01*
X107936068Y-130019478D01*
X107939132Y-130007542D01*
X107945538Y-129988830D01*
X107950434Y-129977517D01*
X107953581Y-129970245D01*
X107956921Y-129949162D01*
X107960497Y-129926581D01*
X107962904Y-129914960D01*
X107971928Y-129879811D01*
X107971928Y-129879810D01*
X107973900Y-129872130D01*
X107973900Y-129851869D01*
X107975451Y-129832158D01*
X107977379Y-129819985D01*
X107978619Y-129812157D01*
X107974459Y-129768146D01*
X107973900Y-129756289D01*
X107973900Y-128584869D01*
X107993902Y-128516748D01*
X108047558Y-128470255D01*
X108117832Y-128460151D01*
X108182412Y-128489645D01*
X108209018Y-128521868D01*
X108226960Y-128552944D01*
X108231378Y-128557851D01*
X108231379Y-128557852D01*
X108350325Y-128689955D01*
X108354747Y-128694866D01*
X108415290Y-128738853D01*
X108496982Y-128798206D01*
X108509248Y-128807118D01*
X108515276Y-128809802D01*
X108515278Y-128809803D01*
X108672412Y-128879763D01*
X108683712Y-128884794D01*
X108777112Y-128904647D01*
X108864056Y-128923128D01*
X108864061Y-128923128D01*
X108870513Y-128924500D01*
X109061487Y-128924500D01*
X109067939Y-128923128D01*
X109067944Y-128923128D01*
X109154888Y-128904647D01*
X109248288Y-128884794D01*
X109259588Y-128879763D01*
X109416722Y-128809803D01*
X109416724Y-128809802D01*
X109422752Y-128807118D01*
X109435019Y-128798206D01*
X109516710Y-128738853D01*
X109577253Y-128694866D01*
X109581675Y-128689955D01*
X109700621Y-128557852D01*
X109700622Y-128557851D01*
X109705040Y-128552944D01*
X109769645Y-128441045D01*
X109797223Y-128393279D01*
X109797224Y-128393278D01*
X109800527Y-128387556D01*
X109859542Y-128205928D01*
X109865792Y-128146468D01*
X109878814Y-128022565D01*
X109879504Y-128016000D01*
X109871713Y-127941875D01*
X109860232Y-127832635D01*
X109860232Y-127832633D01*
X109859542Y-127826072D01*
X109800527Y-127644444D01*
X109796239Y-127637016D01*
X109708341Y-127484774D01*
X109705040Y-127479056D01*
X109631863Y-127397785D01*
X109601147Y-127333779D01*
X109599500Y-127313476D01*
X109599500Y-126723167D01*
X109600027Y-126711984D01*
X109601702Y-126704491D01*
X109601098Y-126685260D01*
X109599562Y-126636414D01*
X109599500Y-126632455D01*
X109599500Y-126604544D01*
X109598995Y-126600544D01*
X109598062Y-126588701D01*
X109596922Y-126552430D01*
X109596673Y-126544511D01*
X109591021Y-126525057D01*
X109587013Y-126505700D01*
X109585468Y-126493470D01*
X109585468Y-126493469D01*
X109584474Y-126485603D01*
X109581555Y-126478230D01*
X109568196Y-126444488D01*
X109564351Y-126433258D01*
X109554229Y-126398417D01*
X109554229Y-126398416D01*
X109552018Y-126390807D01*
X109547985Y-126383988D01*
X109547983Y-126383983D01*
X109541707Y-126373372D01*
X109533012Y-126355624D01*
X109525552Y-126336783D01*
X109499564Y-126301013D01*
X109493048Y-126291093D01*
X109474580Y-126259865D01*
X109474578Y-126259862D01*
X109470542Y-126253038D01*
X109456221Y-126238717D01*
X109443380Y-126223683D01*
X109436131Y-126213706D01*
X109431472Y-126207293D01*
X109397395Y-126179102D01*
X109388616Y-126171112D01*
X106599189Y-123381684D01*
X106565163Y-123319372D01*
X106562974Y-123305758D01*
X106558232Y-123260636D01*
X106558232Y-123260635D01*
X106557542Y-123254072D01*
X106498527Y-123072444D01*
X106403040Y-122907056D01*
X106363873Y-122863556D01*
X106279675Y-122770045D01*
X106279674Y-122770044D01*
X106275253Y-122765134D01*
X106120752Y-122652882D01*
X106114724Y-122650198D01*
X106114722Y-122650197D01*
X105952319Y-122577891D01*
X105952318Y-122577891D01*
X105946288Y-122575206D01*
X105852887Y-122555353D01*
X105765944Y-122536872D01*
X105765939Y-122536872D01*
X105759487Y-122535500D01*
X105568513Y-122535500D01*
X105568513Y-122534882D01*
X105503229Y-122522941D01*
X105451384Y-122474438D01*
X105433900Y-122410405D01*
X105433900Y-110652149D01*
X105453902Y-110584028D01*
X105507558Y-110537535D01*
X105533699Y-110528903D01*
X105692288Y-110495194D01*
X105772198Y-110459616D01*
X105860722Y-110420203D01*
X105860724Y-110420202D01*
X105866752Y-110417518D01*
X106021253Y-110305266D01*
X106127438Y-110187336D01*
X106144621Y-110168252D01*
X106144622Y-110168251D01*
X106149040Y-110163344D01*
X106244527Y-109997956D01*
X106303542Y-109816328D01*
X106323504Y-109626400D01*
X106303542Y-109436472D01*
X106244527Y-109254844D01*
X106215761Y-109205019D01*
X106166295Y-109119342D01*
X106149040Y-109089456D01*
X106141867Y-109081489D01*
X106025675Y-108952445D01*
X106025674Y-108952444D01*
X106021253Y-108947534D01*
X105993265Y-108927199D01*
X105916852Y-108871682D01*
X105873498Y-108815460D01*
X105867423Y-108744723D01*
X105900555Y-108681932D01*
X105916851Y-108667810D01*
X105970453Y-108628866D01*
X105994969Y-108601638D01*
X106093821Y-108491852D01*
X106093822Y-108491851D01*
X106098240Y-108486944D01*
X106193727Y-108321556D01*
X106252742Y-108139928D01*
X106272704Y-107950000D01*
X106252742Y-107760072D01*
X106193727Y-107578444D01*
X106098240Y-107413056D01*
X105970453Y-107271134D01*
X105815952Y-107158882D01*
X105809924Y-107156198D01*
X105809922Y-107156197D01*
X105647519Y-107083891D01*
X105647518Y-107083891D01*
X105641488Y-107081206D01*
X105548087Y-107061353D01*
X105461144Y-107042872D01*
X105461139Y-107042872D01*
X105454687Y-107041500D01*
X105263713Y-107041500D01*
X105257261Y-107042872D01*
X105257256Y-107042872D01*
X105170313Y-107061353D01*
X105076912Y-107081206D01*
X105070882Y-107083891D01*
X105070881Y-107083891D01*
X104908478Y-107156197D01*
X104908476Y-107156198D01*
X104902448Y-107158882D01*
X104747947Y-107271134D01*
X104620160Y-107413056D01*
X104524673Y-107578444D01*
X104465658Y-107760072D01*
X104464968Y-107766633D01*
X104464968Y-107766635D01*
X104448293Y-107925292D01*
X104421280Y-107990949D01*
X104412078Y-108001217D01*
X103747747Y-108665548D01*
X103739461Y-108673088D01*
X103732982Y-108677200D01*
X103727557Y-108682977D01*
X103686357Y-108726851D01*
X103683602Y-108729693D01*
X103663865Y-108749430D01*
X103661385Y-108752627D01*
X103653682Y-108761647D01*
X103623414Y-108793879D01*
X103619595Y-108800825D01*
X103619593Y-108800828D01*
X103613652Y-108811634D01*
X103602801Y-108828153D01*
X103590386Y-108844159D01*
X103587241Y-108851428D01*
X103587238Y-108851432D01*
X103572826Y-108884737D01*
X103567609Y-108895387D01*
X103546305Y-108934140D01*
X103544334Y-108941815D01*
X103544334Y-108941816D01*
X103541267Y-108953762D01*
X103534863Y-108972466D01*
X103526819Y-108991055D01*
X103525580Y-108998878D01*
X103525577Y-108998888D01*
X103519901Y-109034724D01*
X103517495Y-109046344D01*
X103506500Y-109089170D01*
X103506500Y-109109424D01*
X103504949Y-109129134D01*
X103501780Y-109149143D01*
X103502526Y-109157035D01*
X103505941Y-109193161D01*
X103506500Y-109205019D01*
X103506500Y-124533633D01*
X103505973Y-124544816D01*
X103504298Y-124552309D01*
X103504547Y-124560235D01*
X103504547Y-124560236D01*
X103506438Y-124620386D01*
X103506500Y-124624345D01*
X103506500Y-124652256D01*
X103506997Y-124656190D01*
X103506997Y-124656191D01*
X103507005Y-124656256D01*
X103507938Y-124668093D01*
X103509327Y-124712289D01*
X103514978Y-124731739D01*
X103518987Y-124751100D01*
X103521526Y-124771197D01*
X103524445Y-124778568D01*
X103524445Y-124778570D01*
X103537804Y-124812312D01*
X103541649Y-124823542D01*
X103553982Y-124865993D01*
X103558015Y-124872812D01*
X103558017Y-124872817D01*
X103564293Y-124883428D01*
X103572988Y-124901176D01*
X103578933Y-124916191D01*
X103585411Y-124986889D01*
X103552637Y-125049868D01*
X103487978Y-125085817D01*
X103349712Y-125115206D01*
X103343682Y-125117891D01*
X103343681Y-125117891D01*
X103181278Y-125190197D01*
X103181276Y-125190198D01*
X103175248Y-125192882D01*
X103020747Y-125305134D01*
X103016326Y-125310044D01*
X103016325Y-125310045D01*
X102932128Y-125403556D01*
X102892960Y-125447056D01*
X102797473Y-125612444D01*
X102738458Y-125794072D01*
X102737768Y-125800633D01*
X102737768Y-125800635D01*
X102728761Y-125886337D01*
X102701748Y-125951994D01*
X102643527Y-125992624D01*
X102572582Y-125995327D01*
X102511437Y-125959245D01*
X102500238Y-125945438D01*
X102469154Y-125901045D01*
X102469152Y-125901042D01*
X102465995Y-125896534D01*
X102304097Y-125734636D01*
X102299589Y-125731479D01*
X102299586Y-125731477D01*
X102169724Y-125640547D01*
X102116546Y-125603311D01*
X102111564Y-125600988D01*
X102111559Y-125600985D01*
X102077340Y-125585029D01*
X102024055Y-125538112D01*
X102004594Y-125469835D01*
X102025136Y-125401875D01*
X102077340Y-125356639D01*
X102111559Y-125340683D01*
X102111564Y-125340680D01*
X102116546Y-125338357D01*
X102241384Y-125250944D01*
X102299586Y-125210191D01*
X102299589Y-125210189D01*
X102304097Y-125207032D01*
X102465995Y-125045134D01*
X102597320Y-124857583D01*
X102599643Y-124852601D01*
X102599646Y-124852596D01*
X102691758Y-124655059D01*
X102691758Y-124655058D01*
X102694081Y-124650077D01*
X102701509Y-124622358D01*
X102751916Y-124434236D01*
X102751916Y-124434234D01*
X102753340Y-124428921D01*
X102773295Y-124200834D01*
X102753340Y-123972747D01*
X102704157Y-123789196D01*
X102695504Y-123756901D01*
X102695503Y-123756899D01*
X102694081Y-123751591D01*
X102613963Y-123579776D01*
X102599646Y-123549072D01*
X102599643Y-123549067D01*
X102597320Y-123544085D01*
X102523895Y-123439223D01*
X102469154Y-123361045D01*
X102469152Y-123361042D01*
X102465995Y-123356534D01*
X102304097Y-123194636D01*
X102299589Y-123191479D01*
X102299586Y-123191477D01*
X102221408Y-123136736D01*
X102116546Y-123063311D01*
X102111564Y-123060988D01*
X102111559Y-123060985D01*
X102077340Y-123045029D01*
X102024055Y-122998112D01*
X102004594Y-122929835D01*
X102025136Y-122861875D01*
X102077340Y-122816639D01*
X102111559Y-122800683D01*
X102111564Y-122800680D01*
X102116546Y-122798357D01*
X102241576Y-122710810D01*
X102299586Y-122670191D01*
X102299589Y-122670189D01*
X102304097Y-122667032D01*
X102465995Y-122505134D01*
X102597320Y-122317583D01*
X102599643Y-122312601D01*
X102599646Y-122312596D01*
X102691758Y-122115059D01*
X102691758Y-122115058D01*
X102694081Y-122110077D01*
X102753340Y-121888921D01*
X102773295Y-121660834D01*
X102753340Y-121432747D01*
X102694081Y-121211591D01*
X102666378Y-121152181D01*
X102599646Y-121009072D01*
X102599643Y-121009067D01*
X102597320Y-121004085D01*
X102496212Y-120859688D01*
X102469154Y-120821045D01*
X102469152Y-120821042D01*
X102465995Y-120816534D01*
X102304097Y-120654636D01*
X102299589Y-120651479D01*
X102299586Y-120651477D01*
X102169724Y-120560547D01*
X102116546Y-120523311D01*
X102111564Y-120520988D01*
X102111559Y-120520985D01*
X102077340Y-120505029D01*
X102024055Y-120458112D01*
X102004594Y-120389835D01*
X102025136Y-120321875D01*
X102077340Y-120276639D01*
X102111559Y-120260683D01*
X102111564Y-120260680D01*
X102116546Y-120258357D01*
X102221408Y-120184932D01*
X102299586Y-120130191D01*
X102299589Y-120130189D01*
X102304097Y-120127032D01*
X102465995Y-119965134D01*
X102597320Y-119777583D01*
X102599643Y-119772601D01*
X102599646Y-119772596D01*
X102691758Y-119575059D01*
X102691758Y-119575058D01*
X102694081Y-119570077D01*
X102706711Y-119522944D01*
X102751916Y-119354236D01*
X102751916Y-119354234D01*
X102753340Y-119348921D01*
X102773295Y-119120834D01*
X102753340Y-118892747D01*
X102734785Y-118823500D01*
X102695504Y-118676901D01*
X102695503Y-118676899D01*
X102694081Y-118671591D01*
X102687749Y-118658011D01*
X102599646Y-118469072D01*
X102599643Y-118469067D01*
X102597320Y-118464085D01*
X102465995Y-118276534D01*
X102304097Y-118114636D01*
X102299589Y-118111479D01*
X102299586Y-118111477D01*
X102169724Y-118020547D01*
X102116546Y-117983311D01*
X102111564Y-117980988D01*
X102111559Y-117980985D01*
X102077340Y-117965029D01*
X102024055Y-117918112D01*
X102004594Y-117849835D01*
X102025136Y-117781875D01*
X102077340Y-117736639D01*
X102111559Y-117720683D01*
X102111564Y-117720680D01*
X102116546Y-117718357D01*
X102221408Y-117644932D01*
X102299586Y-117590191D01*
X102299589Y-117590189D01*
X102304097Y-117587032D01*
X102465995Y-117425134D01*
X102597320Y-117237583D01*
X102599643Y-117232601D01*
X102599646Y-117232596D01*
X102691758Y-117035059D01*
X102691758Y-117035058D01*
X102694081Y-117030077D01*
X102753340Y-116808921D01*
X102773295Y-116580834D01*
X102753340Y-116352747D01*
X102694081Y-116131591D01*
X102616946Y-115966173D01*
X102599646Y-115929072D01*
X102599643Y-115929067D01*
X102597320Y-115924085D01*
X102465995Y-115736534D01*
X102304097Y-115574636D01*
X102299589Y-115571479D01*
X102299586Y-115571477D01*
X102169724Y-115480547D01*
X102116546Y-115443311D01*
X102111564Y-115440988D01*
X102111559Y-115440985D01*
X101914022Y-115348873D01*
X101914021Y-115348873D01*
X101909040Y-115346550D01*
X101903732Y-115345128D01*
X101903730Y-115345127D01*
X101693199Y-115288715D01*
X101693197Y-115288715D01*
X101687884Y-115287291D01*
X101459797Y-115267336D01*
X101231710Y-115287291D01*
X101226397Y-115288715D01*
X101226395Y-115288715D01*
X101015864Y-115345127D01*
X101015862Y-115345128D01*
X101010554Y-115346550D01*
X101005573Y-115348873D01*
X101005572Y-115348873D01*
X100808035Y-115440985D01*
X100808030Y-115440988D01*
X100803048Y-115443311D01*
X100782270Y-115457860D01*
X100714996Y-115480547D01*
X100646136Y-115463262D01*
X100597552Y-115411491D01*
X100584000Y-115354646D01*
X100584000Y-105282000D01*
X100604002Y-105213879D01*
X100657658Y-105167386D01*
X100710000Y-105156000D01*
X104140000Y-105156000D01*
X104140000Y-103895173D01*
X104160002Y-103827052D01*
X104164129Y-103821023D01*
X104229347Y-103731423D01*
X104229353Y-103731413D01*
X104232034Y-103727730D01*
X104284521Y-103627969D01*
X104355490Y-103493079D01*
X104355493Y-103493073D01*
X104357615Y-103489039D01*
X104365667Y-103466240D01*
X104393602Y-103387134D01*
X105448500Y-103387134D01*
X105455255Y-103449316D01*
X105506385Y-103585705D01*
X105593739Y-103702261D01*
X105710295Y-103789615D01*
X105846684Y-103840745D01*
X105908866Y-103847500D01*
X107705134Y-103847500D01*
X107767316Y-103840745D01*
X107903705Y-103789615D01*
X108020261Y-103702261D01*
X108107615Y-103585705D01*
X108142339Y-103493079D01*
X108151598Y-103468382D01*
X108194240Y-103411618D01*
X108260802Y-103386918D01*
X108330150Y-103402126D01*
X108364817Y-103430114D01*
X108393250Y-103462938D01*
X108565126Y-103605632D01*
X108758000Y-103718338D01*
X108966692Y-103798030D01*
X108971760Y-103799061D01*
X108971763Y-103799062D01*
X109079017Y-103820883D01*
X109185597Y-103842567D01*
X109190772Y-103842757D01*
X109190774Y-103842757D01*
X109403673Y-103850564D01*
X109403677Y-103850564D01*
X109408837Y-103850753D01*
X109413957Y-103850097D01*
X109413959Y-103850097D01*
X109625288Y-103823025D01*
X109625289Y-103823025D01*
X109630416Y-103822368D01*
X109635366Y-103820883D01*
X109839429Y-103759661D01*
X109839434Y-103759659D01*
X109844384Y-103758174D01*
X110044994Y-103659896D01*
X110226860Y-103530173D01*
X110385096Y-103372489D01*
X110515453Y-103191077D01*
X110520078Y-103181720D01*
X110612136Y-102995453D01*
X110612137Y-102995451D01*
X110614430Y-102990811D01*
X110679370Y-102777069D01*
X110708529Y-102555590D01*
X110710156Y-102489000D01*
X110691852Y-102266361D01*
X110637431Y-102049702D01*
X110548354Y-101844840D01*
X110427014Y-101657277D01*
X110276670Y-101492051D01*
X110272619Y-101488852D01*
X110272615Y-101488848D01*
X110105414Y-101356800D01*
X110105410Y-101356798D01*
X110101359Y-101353598D01*
X109905789Y-101245638D01*
X109900920Y-101243914D01*
X109900916Y-101243912D01*
X109700087Y-101172795D01*
X109700083Y-101172794D01*
X109695212Y-101171069D01*
X109690119Y-101170162D01*
X109690116Y-101170161D01*
X109480373Y-101132800D01*
X109480367Y-101132799D01*
X109475284Y-101131894D01*
X109401452Y-101130992D01*
X109257081Y-101129228D01*
X109257079Y-101129228D01*
X109251911Y-101129165D01*
X109031091Y-101162955D01*
X108818756Y-101232357D01*
X108788443Y-101248137D01*
X108702712Y-101292766D01*
X108620607Y-101335507D01*
X108616474Y-101338610D01*
X108616471Y-101338612D01*
X108466466Y-101451239D01*
X108441965Y-101469635D01*
X108385537Y-101528684D01*
X108361283Y-101554064D01*
X108299759Y-101589494D01*
X108228846Y-101586037D01*
X108171060Y-101544791D01*
X108152207Y-101511243D01*
X108110767Y-101400703D01*
X108107615Y-101392295D01*
X108020261Y-101275739D01*
X107903705Y-101188385D01*
X107767316Y-101137255D01*
X107705134Y-101130500D01*
X105908866Y-101130500D01*
X105846684Y-101137255D01*
X105710295Y-101188385D01*
X105593739Y-101275739D01*
X105506385Y-101392295D01*
X105455255Y-101528684D01*
X105448500Y-101590866D01*
X105448500Y-103387134D01*
X104393602Y-103387134D01*
X104445902Y-103239033D01*
X104445902Y-103239032D01*
X104447425Y-103234720D01*
X104483090Y-103053769D01*
X104498700Y-102974572D01*
X104498701Y-102974566D01*
X104499581Y-102970100D01*
X104499808Y-102965544D01*
X104512764Y-102705292D01*
X104512764Y-102705286D01*
X104512991Y-102700723D01*
X104487375Y-102432231D01*
X104423269Y-102170250D01*
X104322015Y-101920267D01*
X104196129Y-101705270D01*
X104188045Y-101691463D01*
X104188044Y-101691462D01*
X104185735Y-101687518D01*
X104167596Y-101664836D01*
X104140672Y-101599142D01*
X104140000Y-101586142D01*
X104140000Y-100710000D01*
X104160002Y-100641879D01*
X104213658Y-100595386D01*
X104266000Y-100584000D01*
X117730000Y-100584000D01*
X117798121Y-100604002D01*
G37*
%TD.AperFunction*%
%TD*%
M02*
